<?xml version="1.0" encoding="utf-8"?>
<!-- Generator: Adobe Illustrator 25.4.1, SVG Export Plug-In . SVG Version: 6.00 Build 0)  -->
<svg version="1.1" id="Layer_1" xmlns="http://www.w3.org/2000/svg" xmlns:xlink="http://www.w3.org/1999/xlink" x="0px" y="0px"
	 viewBox="0 0 64 80" style="enable-background:new 0 0 64 80;" xml:space="preserve">
<path d="M42.7,16.3l-0.5-6l-6,0.6L32,6.6l-4.2,4.3l-6-0.6l-0.5,6l-4.9,3.4l3.5,4.9l-1.6,5.8l5.8,1.5l1,2.1H25v24.4l7-7l7,7V34h-0.1
	l1-2.1l5.8-1.5l-1.6-5.8l3.5-4.9L42.7,16.3z M37,53.6l-5-5l-5,5V37.1l5-2.4l5,2.4V53.6z M43.3,28.9l-4.8,1.2l-2,4.5L32,32.5
	l-4.4,2.1l-2-4.5l-4.8-1.2l1.3-4.7l-2.9-4l4.1-2.8l0.4-4.9l4.9,0.5L32,9.5l3.5,3.5l4.9-0.5l0.4,4.9l4.1,2.8l-2.9,4L43.3,28.9z"/>
<path d="M32,15c-3.9,0-7,3.1-7,7s3.1,7,7,7s7-3.1,7-7C39,18.1,35.9,15,32,15z M32,27c-2.8,0-5-2.2-5-5s2.2-5,5-5s5,2.2,5,5
	C37,24.8,34.8,27,32,27z"/>
</svg>
