<?xml version="1.0" encoding="utf-8"?>
<!-- Generator: Adobe Illustrator 25.4.1, SVG Export Plug-In . SVG Version: 6.00 Build 0)  -->
<svg version="1.1" id="Layer_1" xmlns="http://www.w3.org/2000/svg" xmlns:xlink="http://www.w3.org/1999/xlink" x="0px" y="0px"
	 viewBox="0 0 32 40" style="enable-background:new 0 0 32 40;" xml:space="preserve">
<g>
	<path d="M28.8,7.5H17.4c-0.4,0-0.8-0.3-1-0.7l-1.1-2.7c-0.5-1.2-1.7-2-2.9-2H3.2C1.4,2.1,0,3.6,0,5.3v21.3c0,1.8,1.4,3.2,3.2,3.2
		h25.6c1.8,0,3.2-1.4,3.2-3.2v-16C32,8.9,30.6,7.5,28.8,7.5z M29.9,26.7c0,0.6-0.5,1.1-1.1,1.1H3.2c-0.6,0-1.1-0.5-1.1-1.1V5.3
		c0-0.6,0.5-1.1,1.1-1.1h9.1c0.4,0,0.8,0.3,1,0.7c0,0,1.1,2.7,1.1,2.7c0.5,1.2,1.7,2,2.9,2h11.4c0.6,0,1.1,0.5,1.1,1.1
		C29.9,10.7,29.9,26.7,29.9,26.7z"/>
	<path d="M17,12c-2.7-0.7-5.4,1.5-5.4,4.2c0,0.6,0.5,1.1,1.1,1.1s1.1-0.5,1.1-1.1c0-2.6,3.8-3.1,4.4-0.5c0.3,1.2-0.5,2.2-1.3,2.6
		c-1.1,0.5-1.9,1.5-1.9,2.7c-0.1,0.7,0.3,1.4,1.1,1.4c0.6,0,1.1-0.5,1.1-1.1c-0.1-0.5,0.1-0.9,0.5-1C21.5,18.8,21.1,12.9,17,12z"/>
	<path d="M16,22.8c-0.9,0-1.1,0.8-1.1,1.6c0,0.6,0.5,1.1,1.1,1.1c0.9,0,1.1-0.8,1.1-1.6C17.1,23.2,16.6,22.8,16,22.8z"/>
</g>
</svg>
