<?xml version="1.0" encoding="utf-8"?>
<!-- Generator: Adobe Illustrator 25.4.1, SVG Export Plug-In . SVG Version: 6.00 Build 0)  -->
<svg version="1.1" xmlns="http://www.w3.org/2000/svg" xmlns:xlink="http://www.w3.org/1999/xlink" x="0px" y="0px"
	 viewBox="0 0 100 125" style="enable-background:new 0 0 100 125;" xml:space="preserve">
<g id="Layer_2">
</g>
<g id="Layer_1">
	<g>
		<path d="M72.7,47.4c0-12.5-10.2-22.7-22.7-22.7S27.3,34.9,27.3,47.4c0,1.8,0.2,3.6,0.7,5.4c0.6,2.9,1.7,4.7,3.2,7.2
			c0.3,0.6,0.7,1.2,1.1,1.9c0.5,0.8,0.9,1.6,1.4,2.3c2,3.3,3.2,5.2,3.2,9.1v9.4c0,2.4,1.7,4.3,4,4.7c1,5.1,4,8.3,9.1,8.3
			s8.2-3.2,9.1-8.3c2.3-0.4,4-2.4,4-4.7v-9.4c0-3.9,1.2-5.9,3.2-9.1c0.4-0.7,0.9-1.5,1.4-2.3c0.4-0.7,0.8-1.3,1.1-1.9
			c1.5-2.5,2.6-4.3,3.2-7.2C72.5,51,72.7,49.2,72.7,47.4z M59.2,75.7H41v-2.3c0-0.5,0-0.9-0.1-1.3h18.3c0,0.4-0.1,0.8-0.1,1.3
			L59.2,75.7L59.2,75.7z M58.3,83.6H41.7c-0.5,0-0.8-0.4-0.8-0.8v-3.1h18.2v3.1C59.2,83.2,58.8,83.6,58.3,83.6z M50,91.8
			c-1.1,0-3.9,0-5-4.2h10.1C54,91.8,51.1,91.8,50,91.8z M68.1,52c-0.5,2.2-1.3,3.7-2.7,6c-0.4,0.6-0.7,1.2-1.1,1.9
			c-0.5,0.8-0.9,1.6-1.3,2.2c-1.2,2-2.3,3.8-3,5.9H40.2c-0.7-2.1-1.7-3.9-3-5.9c-0.4-0.7-0.9-1.4-1.3-2.2c-0.4-0.7-0.8-1.4-1.1-1.9
			c-1.4-2.4-2.2-3.8-2.7-6.1c-0.4-1.5-0.6-3-0.6-4.5c0-10.3,8.4-18.7,18.7-18.7s18.7,8.4,18.7,18.7C68.7,48.9,68.5,50.4,68.1,52z"/>
		<path d="M91.2,45.4h-8.3c-1.1,0-2,0.9-2,2s0.9,2,2,2h8.3c1.1,0,2-0.9,2-2S92.3,45.4,91.2,45.4z"/>
		<path d="M73.2,26.2c0.5,0,1-0.2,1.4-0.6l5.9-5.9c0.8-0.8,0.8-2,0-2.8s-2-0.8-2.8,0l-5.9,5.9c-0.8,0.8-0.8,2,0,2.8
			C72.2,26,72.7,26.2,73.2,26.2z"/>
		<path d="M50,16.5c1.1,0,2-0.9,2-2V6.2c0-1.1-0.9-2-2-2s-2,0.9-2,2v8.3C48,15.6,48.9,16.5,50,16.5z"/>
		<path d="M25.4,25.6c0.4,0.4,0.9,0.6,1.4,0.6s1-0.2,1.4-0.6c0.8-0.8,0.8-2,0-2.8l-5.9-5.9c-0.8-0.8-2-0.8-2.8,0s-0.8,2,0,2.8
			L25.4,25.6z"/>
		<path d="M17.2,45.4H8.9c-1.1,0-2,0.9-2,2s0.9,2,2,2h8.3c1.1,0,2-0.9,2-2S18.3,45.4,17.2,45.4z"/>
		<path d="M25.4,69.2l-5.9,5.9c-0.8,0.8-0.8,2,0,2.8c0.4,0.4,0.9,0.6,1.4,0.6s1-0.2,1.4-0.6l5.9-5.9c0.8-0.8,0.8-2,0-2.8
			S26.1,68.4,25.4,69.2z"/>
		<path d="M74.6,69.2c-0.8-0.8-2-0.8-2.8,0s-0.8,2,0,2.8l5.9,5.9c0.4,0.4,0.9,0.6,1.4,0.6s1-0.2,1.4-0.6c0.8-0.8,0.8-2,0-2.8
			L74.6,69.2z"/>
	</g>
</g>
</svg>
