<?xml version="1.0" encoding="utf-8"?>
<!-- Generator: Adobe Illustrator 26.0.0, SVG Export Plug-In . SVG Version: 6.00 Build 0)  -->
<svg version="1.1" id="Layer_1" xmlns="http://www.w3.org/2000/svg" xmlns:xlink="http://www.w3.org/1999/xlink" x="0px" y="0px"
	 viewBox="0 0 612 792" style="enable-background:new 0 0 612 792;" xml:space="preserve">
<style type="text/css">
	.st0{fill:#FFFFFF;}
	.st1{fill:none;}
	.st2{font-family:'Optima-ExtraBlack';}
	.st3{font-size:21.1245px;}
</style>
<path class="st0" d="M368.2,291.4c-15.3-6.3-32.6-0.7-41.7,12.3l-10.9-27.1c-0.2-0.4-0.5-0.7-0.9-0.9c-0.4-0.2-0.9-0.2-1.4,0
	L249.7,301c-0.4,0.2-0.7,0.5-0.9,0.9c-0.2,0.4-0.2,0.9,0,1.4L297,423.4c0.4,0.7,0.9,1.1,1.6,1.1c0.2,0,0.5,0,0.7-0.2l63.5-25.5
	c0.4-0.2,0.7-0.5,0.9-0.9c0.2-0.4,0.2-0.9,0-1.4l-15.7-38.9c2.3,0.5,4.6,0.7,6.7,0.7c13.7,0,26.6-8.1,32.2-21.5
	c3.5-8.6,3.5-18,0-26.6C383.3,301.6,376.6,294.9,368.2,291.4z M312.9,279.6l11.3,28c-0.5,0.9-0.9,1.9-1.4,2.8
	c-3.2,7.6-3.3,15.5-1.2,22.9c-4.8,2.1-21.1,10.4-20.6,29.4c0,0.5,0,0.9,0,1.4l-1.2-1.2c-0.7-0.7-1.8-0.7-2.5,0s-0.7,1.8,0,2.5
	l3.3,3.3c-1.6,12.5-8.4,21.5-11.8,25L272,351.9c0.2,0,0.4-0.2,0.5-0.2c0.9-0.2,1.6-1.1,1.4-2.1c-0.2-0.9-1.1-1.6-2.1-1.4
	c-0.4,0-0.7,0.2-1.2,0.4l-18-44.9L312.9,279.6z M343.9,356.5l7,17.6c-0.4,0.2-0.5,0.4-0.9,0.7c-0.9,0.5-1.1,1.6-0.5,2.5
	c0.4,0.5,0.9,0.9,1.4,0.9c0.4,0,0.7,0,0.9-0.4c0.2-0.2,0.4-0.2,0.4-0.4l7.6,18.8l-60,24.1l-9.3-23.2c3.3-3.3,14.6-15.8,14.1-34.9
	c-0.4-16.7,13.7-23.9,18.3-25.9c3.3,8.4,10,15.5,19,19.2C342.5,356,343.2,356.1,343.9,356.5L343.9,356.5z M383.7,335.4
	c-6.5,15.8-24.8,23.6-40.7,16.9c-15.8-6.5-23.6-24.8-16.9-40.7c4.9-12,16.5-19.4,28.9-19.4c3.9,0,7.9,0.7,11.8,2.3
	C382.6,301.2,390.3,319.5,383.7,335.4z"/>
<path class="st0" d="M365.7,297.3c-7-2.8-14.8-2.8-21.7,0c-7,3-12.5,8.4-15.3,15.3c-6,14.4,1.1,31,15.5,37c3.5,1.4,7.2,2.1,10.7,2.1
	c3.7,0,7.4-0.7,10.9-2.1c7-3,12.5-8.4,15.3-15.3C387,319.9,380.1,303.3,365.7,297.3z M377.8,332.9c-2.5,6.2-7.2,10.9-13.4,13.6
	c-6.2,2.5-12.9,2.6-19,0c-12.7-5.3-18.7-19.7-13.6-32.4c3.9-9.5,13.2-15.3,23.1-15.3c3.2,0,6.3,0.5,9.3,1.9
	C377,305.8,383.1,320.4,377.8,332.9z"/>
<path class="st0" d="M368.3,328.9c-0.4,0.9,0,1.9,0.9,2.3l4.6,1.9c0.2,0.2,0.5,0.2,0.7,0.2c0.7,0,1.4-0.4,1.6-1.1
	c0.4-0.9,0-1.9-0.9-2.3l-4.6-1.9C369.7,327.6,368.7,328,368.3,328.9z"/>
<path class="st0" d="M340,319c0.7,0,1.4-0.4,1.6-1.1c0.4-0.9,0-1.9-0.9-2.3l-4.6-1.9c-0.9-0.4-1.9,0-2.3,0.9c-0.4,0.9,0,1.9,0.9,2.3
	l4.6,1.9C339.5,319,339.8,319,340,319z"/>
<path class="st0" d="M360.9,310.2c0.2,0.2,0.5,0.2,0.7,0.2c0.7,0,1.4-0.4,1.6-1.1l1.9-4.6c0.4-0.9,0-1.9-0.9-2.3
	c-0.9-0.4-1.9,0-2.3,0.9l-1.9,4.6C359.5,308.8,360.1,309.8,360.9,310.2z"/>
<path class="st0" d="M350,337c-0.9-0.4-1.9,0-2.3,0.9l-1.9,4.6c-0.4,0.9,0,1.9,0.9,2.3c0.2,0.2,0.5,0.2,0.7,0.2
	c0.7,0,1.4-0.4,1.6-1.1l1.9-4.6C351.3,338.4,350.9,337.3,350,337z"/>
<path class="st0" d="M289.6,317.8L289.6,317.8c0.9,0,1.8-0.4,2.5-1.1c0.7-0.7,1.1-1.4,1.1-2.5c0-1.1-0.4-1.8-1.1-2.5
	c-0.7-0.7-1.4-1.1-2.5-1.1c-0.9,0-1.8,0.4-2.5,1.1c-0.7,0.7-1.1,1.4-1.1,2.5l0,0C286.3,316.4,287.7,317.8,289.6,317.8z M289.6,314.2
	C289.8,314.2,289.8,314.4,289.6,314.2L289.6,314.2C289.6,314.4,289.6,314.2,289.6,314.2z"/>
<path class="st0" d="M297.2,336.8c0.4,0.2,0.5,0.2,0.9,0.2c0.2,0,0.5,0,0.7-0.2c0.5-0.2,0.9-0.7,1.1-1.2c0.5-2.1,5.5-20.2,2.8-26.9
	c-2.8-7.2-11.1-10.7-18.3-7.7c-7.2,2.8-10.7,11.1-7.7,18.3C279.1,325.9,295.3,335.7,297.2,336.8z M285.6,304.2
	c1.2-0.5,2.6-0.7,3.9-0.7c4.2,0,8.1,2.5,9.9,6.7c1.6,4.2-0.7,16-2.3,22.4c-5.6-3.5-15.5-10.4-17.3-14.6
	C277.5,312.5,280.1,306.3,285.6,304.2z"/>
<path class="st0" d="M338.4,381.7c0.2,0.7,0.9,1.2,1.8,1.2c0.2,0,0.4,0,0.5,0c1.6-0.5,3.3-1.1,4.9-1.9c0.9-0.4,1.2-1.4,0.9-2.3
	c-0.4-0.9-1.4-1.2-2.3-0.9c-1.6,0.7-3.2,1.2-4.6,1.8C338.6,379.9,338.1,380.8,338.4,381.7z"/>
<path class="st0" d="M333.1,380.8c-1.6,0.2-3.2,0.2-4.8,0.2c-1.1,0-1.8,0.7-1.9,1.6c0,1.1,0.7,1.8,1.6,1.9c0.7,0,1.4,0,2.1,0
	c1.1,0,2.3,0,3.3-0.2c0.9-0.2,1.6-0.9,1.6-1.9C335.1,381.5,334.2,380.8,333.1,380.8z"/>
<path class="st0" d="M284.7,350.7c-1.8-0.9-3.5-1.6-5.1-2.1c-0.9-0.2-1.9,0.4-2.1,1.2c-0.2,0.9,0.4,1.9,1.2,2.1
	c1.4,0.4,2.8,0.9,4.4,1.8c0.2,0.2,0.5,0.2,0.9,0.2c0.7,0,1.2-0.4,1.6-0.9C285.8,352.3,285.6,351.2,284.7,350.7z"/>
<path class="st0" d="M322,379.7c-1.1-0.4-1.9-0.7-3-1.2c-0.5-0.2-1.1-0.5-1.6-0.7c-0.9-0.5-1.9-0.2-2.5,0.7s-0.2,1.9,0.7,2.5
	c0.5,0.4,1.1,0.5,1.8,0.9c1.1,0.5,2.1,0.9,3.3,1.2c0.2,0,0.4,0,0.5,0c0.7,0,1.4-0.5,1.8-1.2C323.4,381,322.9,380.1,322,379.7z"/>
<path class="st0" d="M308.3,370.9c-0.7-0.5-1.8-0.5-2.5,0.2s-0.5,1.8,0.2,2.5c1.4,1.2,2.8,2.3,4,3.3c0.4,0.2,0.7,0.4,1.1,0.4
	c0.5,0,1.1-0.2,1.4-0.7c0.5-0.7,0.5-1.9-0.4-2.5C310.9,373.2,309.7,372.2,308.3,370.9z"/>
<path class="st0" d="M290.7,354.7c-0.7-0.5-1.9-0.5-2.5,0.4c-0.5,0.7-0.5,1.9,0.4,2.5c1.2,0.9,2.5,1.9,3.9,3.2
	c0.4,0.4,0.7,0.5,1.2,0.5s0.9-0.2,1.2-0.5c0.7-0.7,0.5-1.8-0.2-2.5C293.2,356.7,291.9,355.6,290.7,354.7z"/>
<path class="st0" d="M367.3,311.3c-0.9-0.4-1.9,0.2-2.3,1.1s0.2,1.9,1.1,2.3l2.3,0.9l-11.1,4.9c-0.2,0-0.4-0.2-0.4-0.2
	c-0.9-0.4-1.8-0.4-2.6,0s-1.4,1.1-1.8,1.9l0,0c0,0.2-0.2,0.4-0.2,0.7l-16.4,7c-0.9,0.4-1.2,1.4-0.9,2.3c0.4,0.7,0.9,1.1,1.6,1.1
	c0.2,0,0.5,0,0.7-0.2l16.2-7.2c0.2,0.2,0.5,0.4,0.9,0.5s0.9,0.2,1.2,0.2c1.4,0,2.6-0.9,3.2-2.1c0.2-0.4,0.2-0.7,0.2-1.1l11.4-5.1
	l-0.9,2.8c-0.2,0.9,0.4,1.9,1.2,2.1c0.9,0.2,1.9-0.4,2.1-1.2l1.8-6.3c0.2-0.7,0-1.4-0.5-1.8c-0.4-0.2-0.7-0.4-1.1-0.4L367.3,311.3z"
	/>
<rect x="217.1" y="450.3" class="st1" width="253" height="42.5"/>
<text transform="matrix(1 0 0 1 217.1009 466.3319)" class="st0 st2 st3">Destination Outdoor</text>
</svg>
