<?xml version="1.0" encoding="utf-8"?>
<!-- Generator: Adobe Illustrator 26.0.0, SVG Export Plug-In . SVG Version: 6.00 Build 0)  -->
<svg version="1.1" id="Layer_1" xmlns="http://www.w3.org/2000/svg" xmlns:xlink="http://www.w3.org/1999/xlink" x="0px" y="0px"
	 viewBox="0 0 50 50" style="enable-background:new 0 0 50 50;" xml:space="preserve">
<style type="text/css">
	.st0{fill:#FFFFFF;}
</style>
<g>
	<path class="st0" d="M5.4,18.4c-0.4-0.2-0.9-0.4-1.3-0.5c-0.2,0-0.5,0.1-0.5,0.3s0.1,0.5,0.3,0.5c0.3,0.1,0.7,0.2,1.1,0.4
		c0,0,0.1,0,0.2,0c0.2,0,0.3-0.1,0.4-0.2C5.6,18.8,5.6,18.5,5.4,18.4z"/>
	<g>
		<path class="st0" d="M34.9,7.5c-3.8-1.6-8.1-0.2-10.4,3.1l-2.7-6.9c0-0.1-0.1-0.2-0.2-0.2c-0.1,0-0.2,0-0.3,0L5.5,10
			c-0.1,0-0.2,0.1-0.2,0.2c0,0.1,0,0.2,0,0.4l12,30.6c0.1,0.2,0.2,0.3,0.4,0.3c0,0,0.1,0,0.2,0l15.8-6.5c0.1,0,0.2-0.1,0.2-0.2
			s0-0.2,0-0.4l-3.9-9.9c0.6,0.1,1.1,0.2,1.7,0.2c3.4,0,6.6-2.1,8-5.5c0.9-2.2,0.9-4.6,0-6.8C38.7,10.1,37,8.4,34.9,7.5z M21.2,4.5
			l2.8,7.1c-0.1,0.2-0.2,0.5-0.3,0.7c-0.8,1.9-0.8,4-0.3,5.8c-1.2,0.5-5.2,2.6-5.1,7.5c0,0.1,0,0.2,0,0.4l-0.3-0.3
			c-0.2-0.2-0.4-0.2-0.6,0c-0.2,0.2-0.2,0.4,0,0.6l0.8,0.9c-0.4,3.2-2.1,5.5-2.9,6.4l-4.2-10.6c0,0,0.1,0,0.1,0
			c0.2,0,0.4-0.3,0.3-0.5c0-0.2-0.3-0.4-0.5-0.4c-0.1,0-0.2,0-0.3,0.1L6.3,10.6L21.2,4.5z M28.9,24.1l1.7,4.5
			c-0.1,0-0.1,0.1-0.2,0.2c-0.2,0.1-0.3,0.4-0.1,0.6c0.1,0.1,0.2,0.2,0.3,0.2c0.1,0,0.2,0,0.2-0.1c0,0,0.1,0,0.1-0.1l1.9,4.8
			l-14.9,6.1l-2.3-5.9c0.8-0.9,3.6-4,3.5-8.9c-0.1-4.3,3.4-6.1,4.5-6.6c0.8,2.2,2.5,4,4.7,4.9C28.5,24,28.7,24,28.9,24.1L28.9,24.1z
			 M38.8,18.7c-1.6,4-6.2,6-10.1,4.3c-3.9-1.7-5.9-6.3-4.2-10.4c1.2-3.1,4.1-4.9,7.2-4.9c1,0,2,0.2,2.9,0.6
			C38.5,10,40.4,14.7,38.8,18.7z"/>
		<path class="st0" d="M34.3,9c-1.7-0.7-3.7-0.7-5.4,0c-1.7,0.8-3.1,2.2-3.8,3.9c-1.5,3.7,0.3,7.9,3.8,9.4c0.9,0.4,1.8,0.5,2.7,0.5
			c0.9,0,1.8-0.2,2.7-0.5c1.7-0.8,3.1-2.2,3.8-3.9C39.6,14.8,37.9,10.6,34.3,9z M37.3,18.1c-0.6,1.6-1.8,2.8-3.3,3.5
			c-1.5,0.6-3.2,0.7-4.7,0c-3.1-1.3-4.6-5-3.4-8.3c1-2.4,3.3-3.9,5.7-3.9c0.8,0,1.6,0.1,2.3,0.5C37.1,11.2,38.6,14.9,37.3,18.1z"/>
		<path class="st0" d="M35,17.1c-0.1,0.2,0,0.5,0.2,0.6l1.1,0.5c0,0,0.1,0,0.2,0c0.2,0,0.3-0.1,0.4-0.3c0.1-0.2,0-0.5-0.2-0.6
			l-1.1-0.5C35.3,16.7,35.1,16.8,35,17.1z"/>
		<path class="st0" d="M27.9,14.5c0.2,0,0.3-0.1,0.4-0.3c0.1-0.2,0-0.5-0.2-0.6L27,13.2c-0.2-0.1-0.5,0-0.6,0.2
			c-0.1,0.2,0,0.5,0.2,0.6l1.1,0.5C27.8,14.5,27.9,14.5,27.9,14.5z"/>
		<path class="st0" d="M33.1,12.3c0,0,0.1,0,0.2,0c0.2,0,0.3-0.1,0.4-0.3l0.5-1.2c0.1-0.2,0-0.5-0.2-0.6c-0.2-0.1-0.5,0-0.6,0.2
			l-0.5,1.2C32.8,11.9,32.9,12.2,33.1,12.3z"/>
		<path class="st0" d="M30.4,19.1c-0.2-0.1-0.5,0-0.6,0.2l-0.5,1.2c-0.1,0.2,0,0.5,0.2,0.6c0,0,0.1,0,0.2,0c0.2,0,0.3-0.1,0.4-0.3
			l0.5-1.2C30.7,19.5,30.6,19.2,30.4,19.1z"/>
		<path class="st0" d="M15.4,14.2L15.4,14.2c0.2,0,0.4-0.1,0.6-0.3c0.2-0.2,0.3-0.4,0.3-0.6s-0.1-0.4-0.3-0.6
			c-0.2-0.2-0.3-0.3-0.6-0.3c-0.2,0-0.4,0.1-0.6,0.3s-0.3,0.4-0.3,0.6l0,0C14.6,13.9,15,14.2,15.4,14.2z M15.4,13.3
			C15.5,13.3,15.5,13.4,15.4,13.3L15.4,13.3C15.4,13.4,15.4,13.3,15.4,13.3z"/>
		<path class="st0" d="M17.3,19.1c0.1,0,0.1,0,0.2,0c0,0,0.1,0,0.2,0c0.1,0,0.2-0.2,0.3-0.3c0.1-0.5,1.4-5.2,0.7-6.9
			c-0.7-1.8-2.8-2.7-4.5-2c-1.8,0.7-2.7,2.8-1.9,4.7C12.8,16.3,16.8,18.8,17.3,19.1z M14.4,10.8c0.3-0.1,0.7-0.2,1-0.2
			c1,0,2,0.6,2.4,1.7c0.4,1.1-0.2,4.1-0.6,5.7c-1.4-0.9-3.8-2.6-4.3-3.7C12.4,12.9,13.1,11.3,14.4,10.8z"/>
		<path class="st0" d="M27.5,30.5c0,0.2,0.2,0.3,0.4,0.3c0,0,0.1,0,0.1,0c0.4-0.1,0.8-0.3,1.2-0.5c0.2-0.1,0.3-0.4,0.2-0.6
			c-0.1-0.2-0.3-0.3-0.6-0.2c-0.4,0.2-0.8,0.3-1.1,0.4C27.6,30.1,27.5,30.3,27.5,30.5z"/>
		<path class="st0" d="M26.2,30.3c-0.4,0-0.8,0-1.2,0c-0.3,0-0.4,0.2-0.5,0.4c0,0.3,0.2,0.4,0.4,0.5c0.2,0,0.3,0,0.5,0
			c0.3,0,0.6,0,0.8,0c0.2,0,0.4-0.2,0.4-0.5C26.7,30.5,26.5,30.3,26.2,30.3z"/>
		<path class="st0" d="M23.5,30c-0.3-0.1-0.5-0.2-0.7-0.3c-0.1,0-0.3-0.1-0.4-0.2c-0.2-0.1-0.5,0-0.6,0.2c-0.1,0.2,0,0.5,0.2,0.6
			c0.1,0.1,0.3,0.1,0.4,0.2c0.3,0.1,0.5,0.2,0.8,0.3c0,0,0.1,0,0.1,0c0.2,0,0.3-0.1,0.4-0.3C23.8,30.3,23.7,30.1,23.5,30z"/>
		<path class="st0" d="M20.1,27.8c-0.2-0.1-0.4-0.1-0.6,0c-0.2,0.2-0.1,0.4,0,0.6c0.3,0.3,0.7,0.6,1,0.9c0.1,0,0.2,0.1,0.3,0.1
			c0.1,0,0.3,0,0.3-0.2c0.1-0.2,0.1-0.5-0.1-0.6C20.7,28.4,20.4,28.1,20.1,27.8z"/>
		<path class="st0" d="M15.7,23.7c-0.2-0.1-0.5-0.1-0.6,0.1c-0.1,0.2-0.1,0.5,0.1,0.6c0.3,0.2,0.6,0.5,1,0.8
			c0.1,0.1,0.2,0.1,0.3,0.1c0.1,0,0.2,0,0.3-0.1c0.2-0.2,0.1-0.4,0-0.6C16.3,24.2,16,23.9,15.7,23.7z"/>
		<path class="st0" d="M34.7,12.6c-0.2-0.1-0.5,0-0.6,0.3c-0.1,0.2,0,0.5,0.3,0.6l0.6,0.2l-2.8,1.3c0,0-0.1,0-0.1,0
			c-0.2-0.1-0.4-0.1-0.7,0s-0.3,0.3-0.4,0.5l0,0c0,0,0,0.1,0,0.2l-4.1,1.8c-0.2,0.1-0.3,0.4-0.2,0.6c0.1,0.2,0.2,0.3,0.4,0.3
			c0,0,0.1,0,0.2,0l4-1.8c0,0,0.1,0.1,0.2,0.1c0.1,0,0.2,0,0.3,0c0.3,0,0.7-0.2,0.8-0.5c0-0.1,0-0.2,0-0.3l2.8-1.3l-0.2,0.7
			c0,0.2,0.1,0.5,0.3,0.5c0.2,0,0.5-0.1,0.5-0.3l0.4-1.6c0-0.2,0-0.4-0.1-0.4c-0.1,0-0.2-0.1-0.3-0.1L34.7,12.6z"/>
	</g>
	<g>
		<path class="st0" d="M1.7,45.4c0-0.3,0-0.6,0-0.8c0-0.2,0-0.5,0-0.7c0.1,0,0.1,0,0.2,0c0.1,0,0.1,0,0.2,0c0.1,0,0.2,0,0.4,0
			c0.1,0,0.3,0,0.6,0c0.3,0,0.6,0,0.8,0.1c0.2,0.1,0.5,0.1,0.6,0.3c0.2,0.1,0.3,0.3,0.4,0.5C5,45.1,5,45.3,5,45.7
			c0,0.3,0,0.6-0.1,0.8s-0.2,0.4-0.4,0.6c-0.2,0.2-0.4,0.3-0.6,0.4c-0.2,0.1-0.5,0.1-0.7,0.1c-0.3,0-0.5,0-0.7,0c-0.2,0-0.3,0-0.5,0
			c-0.1,0-0.2,0-0.2,0s-0.1,0-0.2,0c0-0.2,0-0.4,0-0.7c0-0.2,0-0.5,0-0.8V45.4z M2.4,46.5v0.3c0,0.1,0,0.2,0,0.3c0,0.1,0,0.1,0,0.2
			c0.1,0,0.1,0,0.2,0c0.1,0,0.2,0,0.3,0c0.4,0,0.7-0.1,0.9-0.4c0.2-0.3,0.3-0.7,0.3-1.3c0-0.2,0-0.4-0.1-0.6C4,44.9,4,44.7,3.9,44.6
			s-0.2-0.2-0.4-0.3c-0.1-0.1-0.3-0.1-0.5-0.1c-0.1,0-0.2,0-0.3,0c-0.1,0-0.2,0-0.2,0c0,0,0,0.1,0,0.2c0,0.1,0,0.2,0,0.3V45v0.3v1
			V46.5z"/>
		<path class="st0" d="M6.2,46.3c0,0.1,0,0.3,0,0.4c0,0.1,0.1,0.2,0.1,0.3c0.1,0.1,0.1,0.2,0.2,0.2c0.1,0.1,0.2,0.1,0.3,0.1
			c0.2,0,0.5-0.1,0.6-0.2l0.1,0l-0.1,0.3c-0.1,0.1-0.2,0.1-0.3,0.2c-0.1,0-0.3,0.1-0.5,0.1c-0.2,0-0.3,0-0.5-0.1
			c-0.2,0-0.3-0.1-0.4-0.2c-0.1-0.1-0.2-0.3-0.3-0.4c-0.1-0.2-0.1-0.4-0.1-0.6c0-0.2,0-0.4,0.1-0.6c0.1-0.2,0.1-0.3,0.3-0.4
			s0.2-0.2,0.4-0.3C6.3,45,6.5,45,6.7,45c0.3,0,0.6,0.1,0.8,0.3c0.2,0.2,0.3,0.5,0.3,0.9v0.1c0,0,0,0.1,0,0.1H6.2z M7,46.1
			c0-0.3,0-0.5-0.1-0.6c-0.1-0.2-0.2-0.2-0.3-0.2c-0.1,0-0.1,0-0.2,0.1c-0.1,0.1-0.1,0.1-0.1,0.2c0,0.1-0.1,0.2-0.1,0.3
			c0,0.1,0,0.2,0,0.3H7z"/>
		<path class="st0" d="M8.3,47.1c0,0.1,0.1,0.1,0.1,0.1c0,0,0.1,0.1,0.2,0.1c0.1,0,0.1,0,0.2,0c0.1,0,0.2,0,0.3-0.1
			c0.1-0.1,0.1-0.1,0.1-0.2c0-0.1,0-0.1-0.1-0.2c-0.1-0.1-0.1-0.1-0.2-0.1c-0.1,0-0.2-0.1-0.3-0.1c-0.1,0-0.2-0.1-0.3-0.2
			c-0.1-0.1-0.2-0.1-0.2-0.3C8.1,46.1,8,46,8,45.8c0-0.2,0-0.3,0.1-0.4c0.1-0.1,0.1-0.2,0.2-0.3C8.4,45.1,8.5,45,8.6,45
			C8.7,45,8.9,45,9,45c0.1,0,0.3,0,0.4,0.1c0.1,0,0.2,0.1,0.3,0.2c0,0.1-0.1,0.1-0.1,0.2c0,0.1,0,0.2,0,0.2H9.4c0,0,0-0.1-0.1-0.1
			c0-0.1-0.1-0.1-0.1-0.1c0,0-0.1-0.1-0.2-0.1s-0.1,0-0.2,0c-0.1,0-0.2,0-0.3,0.1c-0.1,0.1-0.1,0.1-0.1,0.2c0,0.1,0,0.2,0.1,0.2
			c0.1,0.1,0.1,0.1,0.2,0.1C9,45.9,9.1,46,9.2,46c0.1,0,0.2,0.1,0.3,0.2c0.1,0.1,0.2,0.1,0.2,0.2c0.1,0.1,0.1,0.2,0.1,0.4
			c0,0.2,0,0.3-0.1,0.4c-0.1,0.1-0.1,0.2-0.2,0.3c-0.1,0.1-0.2,0.1-0.3,0.2c-0.1,0-0.2,0-0.4,0c-0.2,0-0.3,0-0.4-0.1
			c-0.1,0-0.2-0.1-0.3-0.1c0-0.2,0.1-0.3,0.1-0.5h0.1C8.3,47,8.3,47.1,8.3,47.1z"/>
		<path class="st0" d="M11.6,45.2c0,0,0,0.1,0,0.1l-0.5,0c0,0.1,0,0.2,0,0.3s0,0.2,0,0.3c0,0.1,0,0.2,0,0.3c0,0.1,0,0.2,0,0.3
			c0,0.2,0,0.3,0,0.5s0,0.2,0,0.3c0,0.1,0.1,0.1,0.1,0.1c0,0,0.1,0,0.1,0c0.1,0,0.1,0,0.1,0c0,0,0.1,0,0.1,0v0.2
			c-0.1,0-0.2,0.1-0.3,0.1c-0.1,0-0.2,0-0.3,0c-0.4,0-0.7-0.3-0.7-0.8c0-0.1,0-0.2,0-0.4c0-0.1,0-0.3,0-0.4c0-0.1,0-0.3,0-0.4
			c0-0.1,0-0.3,0-0.4l-0.4,0c0,0,0-0.1,0-0.1c0,0,0-0.1,0-0.1l0.4,0c0-0.1,0-0.2,0-0.3c0-0.1,0-0.2,0-0.4c0.1-0.1,0.2-0.1,0.4-0.2
			c0.1-0.1,0.2-0.1,0.4-0.2l0.1,0c0,0.1,0,0.1,0,0.2c0,0.1,0,0.2,0,0.2c0,0.1,0,0.2,0,0.3c0,0.1,0,0.2,0,0.3l0.5,0
			C11.6,45.1,11.6,45.2,11.6,45.2z"/>
		<path class="st0" d="M12,44c0-0.1,0-0.2,0.1-0.3c0.1-0.1,0.2-0.1,0.3-0.1c0.1,0,0.2,0,0.3,0.1c0.1,0.1,0.1,0.2,0.1,0.3
			c0,0.1,0,0.2-0.1,0.3c-0.1,0.1-0.2,0.1-0.3,0.1c-0.1,0-0.2,0-0.3-0.1C12,44.2,12,44.1,12,44z M12.1,46.2c0-0.2,0-0.4,0-0.6
			c0-0.2,0-0.4,0-0.6c0,0,0.1,0,0.2,0c0.1,0,0.1,0,0.2,0c0.2,0,0.3,0,0.4,0c0,0.2,0,0.4,0,0.6s0,0.4,0,0.6v0.2c0,0.2,0,0.4,0,0.6
			s0,0.4,0,0.6c0,0-0.1,0-0.2,0c-0.1,0-0.1,0-0.2,0c-0.1,0-0.2,0-0.2,0s-0.1,0-0.2,0c0-0.2,0-0.4,0-0.6c0-0.2,0-0.4,0-0.6V46.2z"/>
		<path class="st0" d="M14.2,45.4c0.1-0.2,0.2-0.3,0.3-0.4c0.1-0.1,0.3-0.1,0.4-0.1c0.3,0,0.5,0.1,0.6,0.2c0.1,0.2,0.2,0.4,0.2,0.8
			c0,0.2,0,0.3,0,0.5c0,0.1,0,0.3,0,0.4c0,0.1,0,0.2,0,0.4c0,0.1,0,0.3,0,0.4c0,0-0.1,0-0.2,0c-0.1,0-0.1,0-0.2,0
			c-0.1,0-0.2,0-0.2,0c-0.1,0-0.1,0-0.2,0c0-0.2,0-0.4,0-0.7c0-0.3,0-0.5,0-0.9c0-0.2,0-0.4-0.1-0.5c-0.1-0.1-0.2-0.2-0.3-0.2
			c-0.2,0-0.3,0.1-0.3,0.2c-0.1,0.1-0.1,0.3-0.1,0.6v0.2c0,0.2,0,0.4,0,0.6c0,0.2,0,0.4,0,0.6c0,0-0.1,0-0.2,0c-0.1,0-0.1,0-0.2,0
			c-0.1,0-0.2,0-0.2,0c-0.1,0-0.1,0-0.2,0c0-0.2,0-0.4,0-0.6c0-0.2,0-0.4,0-0.6v-0.2c0-0.2,0-0.4,0-0.6c0-0.2,0-0.4,0-0.6
			c0.1,0,0.1,0,0.2,0c0.1,0,0.1,0,0.2,0c0.1,0,0.1,0,0.2,0c0.1,0,0.1,0,0.2,0L14.2,45.4L14.2,45.4z"/>
		<path class="st0" d="M16.4,45.3c0.1-0.1,0.3-0.2,0.5-0.3C17,45,17.2,45,17.3,45c0.1,0,0.3,0,0.4,0c0.1,0,0.2,0.1,0.3,0.2
			c0.1,0.1,0.2,0.2,0.2,0.3c0,0.1,0.1,0.2,0.1,0.4c0,0.2,0,0.4,0,0.6c0,0.2,0,0.4,0,0.6c0,0.1,0,0.2,0,0.2s0,0.1,0.1,0.1
			c0,0,0.1,0,0.1,0c0,0,0.1,0,0.1,0v0.1c-0.1,0-0.2,0.1-0.3,0.1c-0.1,0-0.1,0-0.2,0c-0.1,0-0.2,0-0.3-0.1c-0.1-0.1-0.1-0.2-0.2-0.3
			c-0.1,0.1-0.2,0.2-0.3,0.3c-0.1,0.1-0.2,0.1-0.4,0.1c-0.1,0-0.2,0-0.3-0.1c-0.1,0-0.2-0.1-0.2-0.2s-0.1-0.1-0.1-0.2
			c0-0.1,0-0.2,0-0.3c0-0.1,0-0.2,0.1-0.3c0-0.1,0.1-0.2,0.2-0.2c0.1-0.1,0.1-0.1,0.2-0.2c0.1,0,0.2-0.1,0.3-0.1
			c0.1,0,0.3-0.1,0.3-0.1c0.1,0,0.1-0.1,0.2-0.1c0,0,0.1-0.1,0.1-0.1c0,0,0-0.1,0-0.1c0-0.1,0-0.2-0.1-0.3c-0.1-0.1-0.2-0.1-0.4-0.1
			c-0.1,0-0.1,0-0.2,0c-0.1,0-0.1,0-0.2,0.1c-0.1,0-0.1,0.1-0.2,0.1c0,0-0.1,0.1-0.1,0.1h0L16.4,45.3z M17.6,46.8c0-0.2,0-0.3,0-0.4
			c0-0.1,0-0.2,0-0.2c-0.1,0-0.2,0.1-0.2,0.1c-0.1,0-0.2,0.1-0.2,0.1c-0.1,0-0.1,0.1-0.2,0.2c0,0.1-0.1,0.2-0.1,0.3
			c0,0.1,0,0.2,0.1,0.3c0.1,0.1,0.1,0.1,0.2,0.1c0.1,0,0.2,0,0.3-0.1C17.6,47.1,17.6,47,17.6,46.8z"/>
		<path class="st0" d="M20.3,45.2c0,0,0,0.1,0,0.1l-0.5,0c0,0.1,0,0.2,0,0.3c0,0.1,0,0.2,0,0.3c0,0.1,0,0.2,0,0.3c0,0.1,0,0.2,0,0.3
			c0,0.2,0,0.3,0,0.5c0,0.1,0,0.2,0,0.3c0,0.1,0.1,0.1,0.1,0.1c0,0,0.1,0,0.1,0c0.1,0,0.1,0,0.1,0c0,0,0.1,0,0.1,0v0.2
			c-0.1,0-0.2,0.1-0.3,0.1c-0.1,0-0.2,0-0.3,0c-0.4,0-0.7-0.3-0.7-0.8c0-0.1,0-0.2,0-0.4c0-0.1,0-0.3,0-0.4c0-0.1,0-0.3,0-0.4
			c0-0.1,0-0.3,0-0.4l-0.4,0c0,0,0-0.1,0-0.1c0,0,0-0.1,0-0.1l0.4,0c0-0.1,0-0.2,0-0.3c0-0.1,0-0.2,0-0.4c0.1-0.1,0.2-0.1,0.4-0.2
			c0.1-0.1,0.2-0.1,0.4-0.2l0.1,0c0,0.1,0,0.1,0,0.2c0,0.1,0,0.2,0,0.2c0,0.1,0,0.2,0,0.3c0,0.1,0,0.2,0,0.3l0.5,0
			C20.3,45.1,20.3,45.2,20.3,45.2z"/>
		<path class="st0" d="M20.7,44c0-0.1,0-0.2,0.1-0.3c0.1-0.1,0.2-0.1,0.3-0.1c0.1,0,0.2,0,0.3,0.1c0.1,0.1,0.1,0.2,0.1,0.3
			c0,0.1,0,0.2-0.1,0.3c-0.1,0.1-0.2,0.1-0.3,0.1c-0.1,0-0.2,0-0.3-0.1C20.8,44.2,20.7,44.1,20.7,44z M20.8,46.2c0-0.2,0-0.4,0-0.6
			c0-0.2,0-0.4,0-0.6c0,0,0.1,0,0.2,0c0.1,0,0.1,0,0.2,0c0.2,0,0.3,0,0.4,0c0,0.2,0,0.4,0,0.6c0,0.2,0,0.4,0,0.6v0.2
			c0,0.2,0,0.4,0,0.6c0,0.2,0,0.4,0,0.6c0,0-0.1,0-0.2,0c-0.1,0-0.1,0-0.2,0c-0.1,0-0.2,0-0.2,0s-0.1,0-0.2,0c0-0.2,0-0.4,0-0.6
			c0-0.2,0-0.4,0-0.6V46.2z"/>
		<path class="st0" d="M22,46.4c0-0.2,0-0.5,0.1-0.6c0.1-0.2,0.2-0.3,0.3-0.4c0.1-0.1,0.3-0.2,0.4-0.3C23,45,23.2,45,23.3,45
			c0.4,0,0.7,0.1,0.9,0.4c0.2,0.2,0.3,0.6,0.3,1c0,0.2,0,0.4-0.1,0.6s-0.2,0.3-0.3,0.4c-0.1,0.1-0.2,0.2-0.4,0.3
			c-0.2,0.1-0.3,0.1-0.5,0.1c-0.2,0-0.3,0-0.5-0.1c-0.2,0-0.3-0.1-0.4-0.2s-0.2-0.2-0.3-0.4C22.1,46.8,22,46.6,22,46.4z M23.8,46.2
			c0-0.3,0-0.6-0.1-0.7c-0.1-0.2-0.2-0.3-0.4-0.3c-0.2,0-0.3,0.1-0.4,0.3c-0.1,0.2-0.1,0.5-0.1,0.9c0,0.2,0,0.3,0,0.4
			c0,0.1,0,0.2,0.1,0.3c0,0.1,0.1,0.2,0.2,0.2c0.1,0.1,0.1,0.1,0.2,0.1C23.7,47.5,23.8,47,23.8,46.2z"/>
		<path class="st0" d="M25.8,45.4c0.1-0.2,0.2-0.3,0.3-0.4c0.1-0.1,0.3-0.1,0.4-0.1c0.3,0,0.5,0.1,0.6,0.2c0.1,0.2,0.2,0.4,0.2,0.8
			c0,0.2,0,0.3,0,0.5c0,0.1,0,0.3,0,0.4c0,0.1,0,0.2,0,0.4c0,0.1,0,0.3,0,0.4c0,0-0.1,0-0.2,0c-0.1,0-0.1,0-0.2,0
			c-0.1,0-0.2,0-0.2,0c-0.1,0-0.1,0-0.2,0c0-0.2,0-0.4,0-0.7c0-0.3,0-0.5,0-0.9c0-0.2,0-0.4-0.1-0.5s-0.2-0.2-0.3-0.2
			c-0.2,0-0.3,0.1-0.3,0.2c-0.1,0.1-0.1,0.3-0.1,0.6v0.2c0,0.2,0,0.4,0,0.6c0,0.2,0,0.4,0,0.6c0,0-0.1,0-0.2,0c-0.1,0-0.1,0-0.2,0
			c-0.1,0-0.2,0-0.2,0c-0.1,0-0.1,0-0.2,0c0-0.2,0-0.4,0-0.6c0-0.2,0-0.4,0-0.6v-0.2c0-0.2,0-0.4,0-0.6c0-0.2,0-0.4,0-0.6
			c0.1,0,0.1,0,0.2,0c0.1,0,0.1,0,0.2,0c0.1,0,0.1,0,0.2,0c0.1,0,0.1,0,0.2,0L25.8,45.4L25.8,45.4z"/>
		<path class="st0" d="M29.3,45.8c0-0.3,0-0.5,0.1-0.7c0.1-0.2,0.2-0.4,0.4-0.6c0.2-0.2,0.4-0.3,0.6-0.4c0.2-0.1,0.5-0.2,0.8-0.2
			c0.3,0,0.5,0,0.8,0.1c0.2,0.1,0.5,0.2,0.6,0.4c0.2,0.2,0.3,0.4,0.4,0.6c0.1,0.2,0.2,0.5,0.2,0.8c0,0.3,0,0.5-0.1,0.8
			c-0.1,0.2-0.2,0.4-0.4,0.6s-0.4,0.3-0.6,0.4c-0.2,0.1-0.5,0.1-0.8,0.1c-0.3,0-0.5,0-0.8-0.1c-0.2-0.1-0.5-0.2-0.6-0.3
			c-0.2-0.2-0.3-0.4-0.4-0.6C29.4,46.4,29.3,46.1,29.3,45.8z M32.5,45.7c0-0.2,0-0.4-0.1-0.6c-0.1-0.2-0.1-0.3-0.2-0.5
			c-0.1-0.1-0.2-0.2-0.4-0.3s-0.3-0.1-0.5-0.1c-0.2,0-0.3,0-0.5,0.1c-0.1,0.1-0.3,0.2-0.4,0.4c-0.1,0.2-0.2,0.3-0.2,0.5
			c-0.1,0.2-0.1,0.4-0.1,0.6c0,0.3,0,0.5,0.1,0.7c0.1,0.2,0.1,0.4,0.2,0.5c0.1,0.1,0.2,0.2,0.4,0.3c0.1,0.1,0.3,0.1,0.4,0.1
			c0.2,0,0.3,0,0.5-0.1c0.1-0.1,0.3-0.2,0.4-0.3c0.1-0.1,0.2-0.3,0.3-0.5C32.5,46.2,32.5,46,32.5,45.7z"/>
		<path class="st0" d="M35.4,47.2c-0.1,0.2-0.2,0.3-0.3,0.3c-0.1,0.1-0.3,0.1-0.4,0.1c-0.3,0-0.5-0.1-0.6-0.2
			c-0.1-0.2-0.2-0.4-0.2-0.7c0-0.2,0-0.3,0-0.5c0-0.1,0-0.3,0-0.4c0-0.1,0-0.2,0-0.4c0-0.1,0-0.3,0-0.4c0,0,0.1,0,0.2,0
			c0.1,0,0.1,0,0.2,0c0.1,0,0.2,0,0.2,0c0.1,0,0.1,0,0.2,0c0,0.2,0,0.4,0,0.7c0,0.3,0,0.5,0,0.9c0,0.2,0,0.4,0.1,0.5
			c0.1,0.1,0.2,0.2,0.3,0.2c0.2,0,0.3-0.1,0.3-0.2c0.1-0.1,0.1-0.3,0.1-0.6v-0.2c0-0.2,0-0.4,0-0.6s0-0.4,0-0.6c0.1,0,0.2,0,0.4,0
			c0.1,0,0.2,0,0.2,0c0.1,0,0.1,0,0.2,0c0,0.2,0,0.4,0,0.6s0,0.4,0,0.6v0.2c0,0.2,0,0.4,0,0.6s0,0.4,0,0.6c-0.1,0-0.1,0-0.2,0
			c-0.1,0-0.1,0-0.2,0s-0.1,0-0.2,0c-0.1,0-0.1,0-0.2,0L35.4,47.2L35.4,47.2z"/>
		<path class="st0" d="M38.1,45.2c0,0,0,0.1,0,0.1l-0.5,0c0,0.1,0,0.2,0,0.3c0,0.1,0,0.2,0,0.3c0,0.1,0,0.2,0,0.3c0,0.1,0,0.2,0,0.3
			c0,0.2,0,0.3,0,0.5c0,0.1,0,0.2,0,0.3c0,0.1,0.1,0.1,0.1,0.1c0,0,0.1,0,0.1,0c0.1,0,0.1,0,0.1,0c0,0,0.1,0,0.1,0v0.2
			c-0.1,0-0.2,0.1-0.3,0.1c-0.1,0-0.2,0-0.3,0c-0.4,0-0.7-0.3-0.7-0.8c0-0.1,0-0.2,0-0.4c0-0.1,0-0.3,0-0.4c0-0.1,0-0.3,0-0.4
			c0-0.1,0-0.3,0-0.4l-0.4,0c0,0,0-0.1,0-0.1c0,0,0-0.1,0-0.1l0.4,0c0-0.1,0-0.2,0-0.3c0-0.1,0-0.2,0-0.4c0.1-0.1,0.2-0.1,0.4-0.2
			c0.1-0.1,0.2-0.1,0.4-0.2l0.1,0c0,0.1,0,0.1,0,0.2c0,0.1,0,0.2,0,0.2s0,0.2,0,0.3c0,0.1,0,0.2,0,0.3l0.5,0
			C38.1,45.1,38.1,45.2,38.1,45.2z"/>
		<path class="st0" d="M40.8,45.8c0,0.4,0,0.7,0,1c0,0.3,0,0.6,0,0.9c0,0-0.1,0-0.2,0c-0.1,0-0.1,0-0.2,0c-0.1,0-0.1,0-0.2,0
			c-0.1,0-0.1,0-0.1,0c0,0,0,0,0-0.1c0,0,0-0.1,0-0.1c0-0.1,0-0.1,0-0.1c0,0,0-0.1,0-0.1l0,0c-0.1,0.2-0.2,0.3-0.3,0.4
			c-0.1,0.1-0.3,0.1-0.5,0.1c-0.2,0-0.3,0-0.5-0.1c-0.1-0.1-0.2-0.2-0.3-0.3c-0.1-0.1-0.1-0.3-0.2-0.4c0-0.2-0.1-0.4-0.1-0.5
			c0-0.2,0-0.4,0.1-0.5c0.1-0.2,0.1-0.3,0.2-0.4c0.1-0.1,0.2-0.2,0.3-0.3c0.1-0.1,0.3-0.1,0.4-0.1c0.2,0,0.3,0,0.4,0.1
			c0.1,0.1,0.2,0.2,0.3,0.3h0c0-0.3,0-0.6,0-0.9c0-0.3,0-0.6,0-0.9c0,0,0.1,0,0.2,0c0.1,0,0.1,0,0.2,0c0.1,0,0.2,0,0.2,0
			c0.1,0,0.1,0,0.2,0c0,0.3,0,0.6,0,0.9c0,0.3,0,0.6,0,1V45.8z M39.1,46.4c0,0.2,0,0.3,0,0.5s0.1,0.2,0.1,0.3c0,0.1,0.1,0.1,0.1,0.2
			c0.1,0,0.1,0.1,0.2,0.1c0.1,0,0.3-0.1,0.4-0.3c0.1-0.2,0.1-0.4,0.1-0.8c0-0.3,0-0.6-0.1-0.7s-0.2-0.2-0.3-0.2c-0.1,0-0.1,0-0.2,0
			c-0.1,0-0.1,0.1-0.2,0.2c0,0.1-0.1,0.2-0.1,0.3C39.2,46,39.1,46.2,39.1,46.4z"/>
		<path class="st0" d="M41.3,46.4c0-0.2,0-0.5,0.1-0.6c0.1-0.2,0.2-0.3,0.3-0.4c0.1-0.1,0.3-0.2,0.4-0.3c0.2-0.1,0.3-0.1,0.5-0.1
			c0.4,0,0.7,0.1,0.9,0.4c0.2,0.2,0.3,0.6,0.3,1c0,0.2,0,0.4-0.1,0.6s-0.2,0.3-0.3,0.4c-0.1,0.1-0.2,0.2-0.4,0.3
			c-0.2,0.1-0.3,0.1-0.5,0.1c-0.2,0-0.3,0-0.5-0.1c-0.2,0-0.3-0.1-0.4-0.2c-0.1-0.1-0.2-0.2-0.3-0.4C41.3,46.8,41.3,46.6,41.3,46.4z
			 M43.1,46.2c0-0.3,0-0.6-0.1-0.7c-0.1-0.2-0.2-0.3-0.4-0.3c-0.2,0-0.3,0.1-0.4,0.3c-0.1,0.2-0.1,0.5-0.1,0.9c0,0.2,0,0.3,0,0.4
			s0,0.2,0.1,0.3c0,0.1,0.1,0.2,0.2,0.2c0.1,0.1,0.1,0.1,0.2,0.1C42.9,47.5,43.1,47,43.1,46.2z"/>
		<path class="st0" d="M44.2,46.4c0-0.2,0-0.5,0.1-0.6c0.1-0.2,0.2-0.3,0.3-0.4c0.1-0.1,0.3-0.2,0.4-0.3c0.2-0.1,0.3-0.1,0.5-0.1
			c0.4,0,0.7,0.1,0.9,0.4c0.2,0.2,0.3,0.6,0.3,1c0,0.2,0,0.4-0.1,0.6s-0.2,0.3-0.3,0.4c-0.1,0.1-0.2,0.2-0.4,0.3
			c-0.2,0.1-0.3,0.1-0.5,0.1c-0.2,0-0.3,0-0.5-0.1c-0.2,0-0.3-0.1-0.4-0.2c-0.1-0.1-0.2-0.2-0.3-0.4C44.2,46.8,44.2,46.6,44.2,46.4z
			 M46,46.2c0-0.3,0-0.6-0.1-0.7c-0.1-0.2-0.2-0.3-0.4-0.3c-0.2,0-0.3,0.1-0.4,0.3C45,45.7,45,46,45,46.4c0,0.2,0,0.3,0,0.4
			s0,0.2,0.1,0.3c0,0.1,0.1,0.2,0.2,0.2c0.1,0.1,0.1,0.1,0.2,0.1C45.8,47.5,46,47,46,46.2z"/>
		<path class="st0" d="M48,45.7c0.1-0.2,0.2-0.4,0.3-0.5s0.3-0.2,0.5-0.2c0,0,0,0,0,0c0,0,0,0,0,0c0,0.1,0,0.1,0,0.2
			c0,0.1,0,0.1,0,0.2v0.2c0,0,0,0.1,0,0.1c0,0,0,0.1,0,0.1l0,0c0,0-0.1,0-0.1-0.1c0,0-0.1,0-0.1,0c-0.2,0-0.3,0.1-0.4,0.2
			S48,46.1,48,46.2v0.2c0,0.2,0,0.4,0,0.6c0,0.2,0,0.4,0,0.6c0,0-0.1,0-0.2,0s-0.1,0-0.2,0s-0.2,0-0.2,0s-0.1,0-0.2,0
			c0-0.2,0-0.4,0-0.6c0-0.2,0-0.4,0-0.6v-0.2c0-0.2,0-0.4,0-0.6c0-0.2,0-0.4,0-0.6c0.1,0,0.1,0,0.2,0c0.1,0,0.1,0,0.2,0
			c0.1,0,0.1,0,0.2,0c0.1,0,0.1,0,0.2,0L48,45.7L48,45.7z"/>
	</g>
</g>
</svg>
