<?xml version="1.0" encoding="utf-8"?>
<!-- Generator: Adobe Illustrator 26.0.0, SVG Export Plug-In . SVG Version: 6.00 Build 0)  -->
<svg version="1.1" id="Layer_1" xmlns="http://www.w3.org/2000/svg" xmlns:xlink="http://www.w3.org/1999/xlink" x="0px" y="0px"
	 viewBox="0 0 512 512" style="enable-background:new 0 0 512 512;" xml:space="preserve">
<style type="text/css">
	.st0{fill:#FFFFFF;}
	.st1{fill:none;}
	.st2{enable-background:new    ;}
	.st3{font-family:'Optima-ExtraBlack';}
	.st4{font-size:21px;}
</style>
<path class="st0" d="M247.2,188c-7.5-3.1-15.8-0.3-20.3,6l-5.3-13.1c-0.1-0.2-0.2-0.3-0.4-0.4c-0.2-0.1-0.4-0.1-0.7,0l-31,12.4
	c-0.2,0.1-0.3,0.2-0.4,0.4c-0.1,0.2-0.1,0.4,0,0.7l23.5,58.5c0.2,0.3,0.4,0.6,0.8,0.6c0.1,0,0.2,0,0.3-0.1l31-12.5
	c0.2-0.1,0.3-0.2,0.4-0.4c0.1-0.2,0.1-0.4,0-0.7l-7.6-18.9c1.1,0.2,2.2,0.3,3.2,0.3c6.7,0,12.9-3.9,15.7-10.5
	c1.7-4.2,1.7-8.7,0-12.9C254.5,193.1,251.3,189.8,247.2,188z M220.3,182.4l5.5,13.6c-0.2,0.4-0.4,0.9-0.7,1.3
	c-1.6,3.7-1.7,7.6-0.6,11.1c-2.3,1-10.3,5-10,14.3c0,0.2,0,0.4,0,0.7l-0.6-0.6c-0.3-0.3-0.9-0.3-1.2,0c-0.3,0.3-0.3,0.9,0,1.2
	l1.7,1.7c-0.8,6.1-4.1,10.5-5.8,12.1l-8.2-20.3c0.1,0,0.2-0.1,0.2-0.1c0.4-0.1,0.8-0.6,0.7-1c-0.1-0.4-0.6-0.8-1-0.7
	c-0.2,0-0.3,0.1-0.6,0.2l-8.7-21.8L220.3,182.4z M235.3,219.8l3.5,8.6c-0.2,0.1-0.2,0.2-0.4,0.3c-0.4,0.2-0.6,0.8-0.2,1.2
	c0.2,0.2,0.4,0.4,0.7,0.4c0.2,0,0.3,0,0.4-0.2c0.1-0.1,0.2-0.1,0.2-0.2l3.7,9.1l-29.3,11.8l-4.6-11.3c1.7-1.7,7.1-7.7,6.9-16.9
	c-0.2-8.1,6.7-11.7,8.9-12.6c1.7,4.1,4.9,7.6,9.2,9.4C234.7,219.6,235,219.7,235.3,219.8L235.3,219.8z M254.7,209.5
	c-3.1,7.7-12,11.5-19.8,8.2c-7.7-3.1-11.5-12-8.2-19.8c2.5-5.8,8-9.5,14-9.5c1.9,0,3.9,0.3,5.8,1.1
	C254.2,192.9,258,201.9,254.7,209.5z"/>
<path class="st0" d="M245.9,191.1c-3.5-1.3-7.2-1.3-10.6,0c-3.5,1.4-6.1,4.1-7.5,7.5c-2.9,7,0.6,15,7.6,18.1c1.7,0.7,3.6,1,5.2,1
	c1.8,0,3.6-0.3,5.3-1c3.5-1.4,6.1-4.1,7.5-7.5C256.3,202,252.9,193.9,245.9,191.1z M251.8,208.3c-1.2,3-3.6,5.3-6.5,6.6
	c-3,1.2-6.2,1.3-9.2,0c-6.1-2.6-9.1-9.6-6.6-15.8c1.9-4.7,6.5-7.5,11.3-7.5c1.6,0,3.1,0.2,4.6,0.9
	C251.5,195.2,254.4,202.2,251.8,208.3z"/>
<path class="st0" d="M247.3,206.3c-0.2,0.4,0,0.9,0.4,1.1l2.2,0.9c0.1,0.1,0.2,0.1,0.3,0.1c0.3,0,0.7-0.2,0.8-0.6
	c0.2-0.4,0-0.9-0.4-1.1l-2.2-0.9C247.9,205.8,247.4,205.9,247.3,206.3z"/>
<path class="st0" d="M233.4,201.5c0.3,0,0.7-0.2,0.8-0.6c0.2-0.4,0-0.9-0.4-1.1l-2.2-0.9c-0.4-0.2-0.9,0-1.1,0.4s0,0.9,0.4,1.1
	l2.2,0.9C233.2,201.5,233.3,201.5,233.4,201.5z"/>
<path class="st0" d="M243.7,197.3c0.1,0.1,0.2,0.1,0.3,0.1c0.3,0,0.7-0.2,0.8-0.6l0.9-2.2c0.2-0.4,0-0.9-0.4-1.1s-0.9,0-1.1,0.4
	l-0.9,2.2C242.9,196.6,243.3,197.1,243.7,197.3z"/>
<path class="st0" d="M238.4,210.3c-0.4-0.2-0.9,0-1.1,0.4l-0.9,2.2c-0.2,0.4,0,0.9,0.4,1.1c0.1,0.1,0.2,0.1,0.3,0.1
	c0.3,0,0.7-0.2,0.8-0.6l0.9-2.2C238.9,211,238.8,210.4,238.4,210.3z"/>
<path class="st0" d="M208.9,201L208.9,201c0.4,0,0.9-0.2,1.2-0.6s0.6-0.7,0.6-1.2s-0.2-0.9-0.6-1.2s-0.7-0.6-1.2-0.6
	c-0.4,0-0.9,0.2-1.2,0.6s-0.6,0.7-0.6,1.2l0,0C207.3,200.3,208,201,208.9,201z M208.9,199.2C209,199.2,209,199.3,208.9,199.2
	L208.9,199.2C208.9,199.3,208.9,199.2,208.9,199.2z"/>
<path class="st0" d="M212.6,210.2c0.2,0.1,0.2,0.1,0.4,0.1c0.1,0,0.2,0,0.3-0.1c0.2-0.1,0.4-0.3,0.6-0.6c0.2-1,2.7-9.8,1.3-13.1
	c-1.3-3.6-5.3-5.2-8.9-3.8c-3.6,1.3-5.2,5.3-3.8,8.9C203.8,204.9,211.7,209.7,212.6,210.2z M206.9,194.4c0.6-0.2,1.3-0.3,1.9-0.3
	c2,0,3.9,1.2,4.8,3.2c0.8,2-0.3,7.8-1.1,10.9c-2.8-1.7-7.6-5-8.4-7.1C203,198.4,204.3,195.4,206.9,194.4z"/>
<path class="st0" d="M232.7,232.1c0.1,0.3,0.4,0.6,0.9,0.6c0.1,0,0.2,0,0.2,0c0.8-0.2,1.7-0.6,2.5-0.9c0.4-0.2,0.6-0.7,0.4-1.1
	c-0.2-0.4-0.7-0.6-1.1-0.4c-0.8,0.3-1.6,0.6-2.2,0.9C232.8,231.2,232.6,231.6,232.7,232.1z"/>
<path class="st0" d="M230.1,231.6c-0.8,0.1-1.6,0.1-2.3,0.1c-0.6,0-0.9,0.3-0.9,0.8c0,0.6,0.3,0.9,0.8,0.9c0.3,0,0.7,0,1,0
	c0.6,0,1.1,0,1.7-0.1c0.4-0.1,0.8-0.4,0.8-0.9C231,231.9,230.7,231.6,230.1,231.6z"/>
<path class="st0" d="M-185.9,217.8c-0.9-0.4-1.7-0.8-2.5-1c-0.4-0.1-0.9,0.2-1,0.6c-0.1,0.3,0.2,0.9,0.6,1c0.7,0.2,1.3,0.4,2.1,0.9
	c0.1,0.1,0.2,0.1,0.4,0.1c0.3,0,0.6-0.2,0.8-0.4C-185.4,218.5-185.5,218-185.9,217.8z"/>
<path class="st0" d="M224.8,231.2c-0.6-0.2-0.9-0.3-1.4-0.6c-0.2-0.1-0.6-0.2-0.8-0.3c-0.4-0.2-0.9-0.1-1.2,0.3
	c-0.2,0.4-0.1,0.9,0.3,1.2c0.2,0.2,0.6,0.2,0.9,0.4c0.6,0.2,1,0.4,1.7,0.6c0.1,0,0.2,0,0.2,0c0.3,0,0.7-0.2,0.9-0.6
	C225.4,231.7,225.1,231.3,224.8,231.2z"/>
<path class="st0" d="M218.1,226.8c-0.3-0.2-0.9-0.2-1.2,0.1s-0.2,0.9,0.1,1.2c0.7,0.6,1.3,1.1,2,1.7c0.2,0.1,0.3,0.2,0.6,0.2
	c0.2,0,0.6-0.1,0.7-0.3c0.2-0.3,0.2-0.9-0.2-1.2C219.3,227.9,218.7,227.5,218.1,226.8z"/>
<path class="st0" d="M209.5,218.9c-0.3-0.2-0.9-0.2-1.2,0.2c-0.2,0.3-0.2,0.9,0.2,1.2c0.6,0.4,1.2,0.9,1.9,1.6
	c0.2,0.2,0.3,0.2,0.6,0.2s0.4-0.1,0.6-0.2c0.3-0.3,0.2-0.9-0.1-1.2C210.6,219.9,210,219.4,209.5,218.9z"/>
<path class="st0" d="M246.7,197.7c-0.4-0.2-0.9,0.1-1.1,0.6c-0.2,0.4,0.1,0.9,0.6,1.1l1.1,0.4l-5.3,2.5c-0.1,0-0.2-0.1-0.2-0.1
	c-0.4-0.2-0.9-0.2-1.3,0s-0.7,0.6-0.9,0.9l0,0c0,0.1-0.1,0.2-0.1,0.3l-8,3.5c-0.4,0.2-0.6,0.7-0.4,1.1c0.2,0.3,0.4,0.6,0.8,0.6
	c0.1,0,0.2,0,0.3-0.1l7.9-3.6c0.1,0.1,0.2,0.2,0.4,0.2c0.2,0.1,0.4,0.1,0.6,0.1c0.7,0,1.3-0.4,1.6-1c0.2-0.1,0.2-0.3,0.2-0.6
	l5.6-2.5l-0.4,1.3c-0.1,0.4,0.2,0.9,0.6,1c0.4,0.1,0.9-0.2,1-0.6l0.9-3.1c0.1-0.3,0-0.7-0.2-0.9c-0.2-0.1-0.3-0.2-0.6-0.2
	L246.7,197.7z"/>
<rect x="266" y="201.4" class="st1" width="110.5" height="18.6"/>
<text transform="matrix(1 0 0 1 264.7961 216.4139)" class="st2"><tspan x="0" y="0" class="st0 st3 st4">Destination </tspan><tspan x="0" y="25.2" class="st0 st3 st4">Outdoor</tspan></text>
</svg>
