<?xml version="1.0" encoding="utf-8"?>
<!-- Generator: Adobe Illustrator 26.0.0, SVG Export Plug-In . SVG Version: 6.00 Build 0)  -->
<svg version="1.1" id="Layer_1" xmlns="http://www.w3.org/2000/svg" xmlns:xlink="http://www.w3.org/1999/xlink" x="0px" y="0px"
	 viewBox="0 0 320 100" style="enable-background:new 0 0 320 100;" xml:space="preserve">
<style type="text/css">
	.st0{fill:#FFFFFF;}
	.st1{fill:none;}
	.st2{font-family:'Optima-ExtraBlack';}
	.st3{font-size:14.444px;}
</style>
<path class="st0" d="M158.7,9c-8-3.3-17.1-0.4-21.9,6.5L131,1.2c-0.1-0.2-0.3-0.4-0.5-0.5c-0.2-0.1-0.5-0.1-0.7,0L96.5,14
	c-0.2,0.1-0.4,0.3-0.5,0.5c-0.1,0.2-0.1,0.5,0,0.7l25.3,63c0.2,0.4,0.5,0.6,0.8,0.6c0.1,0,0.3,0,0.4-0.1l33.4-13.4
	c0.2-0.1,0.4-0.3,0.5-0.5c0.1-0.2,0.1-0.5,0-0.7l-8.2-20.4c1.2,0.3,2.4,0.4,3.5,0.4c7.2,0,14-4.3,16.9-11.3c1.8-4.5,1.8-9.4,0-14
	C166.6,14.3,163.1,10.8,158.7,9z M129.6,2.8l5.9,14.7c-0.3,0.5-0.5,1-0.7,1.5c-1.7,4-1.8,8.1-0.6,12c-2.5,1.1-11.1,5.5-10.8,15.4
	c0,0.3,0,0.5,0,0.7l-0.6-0.6c-0.4-0.4-0.9-0.4-1.3,0c-0.4,0.4-0.4,0.9,0,1.3l1.8,1.8c-0.8,6.6-4.4,11.3-6.2,13.1l-8.8-21.9
	c0.1,0,0.2-0.1,0.3-0.1c0.5-0.1,0.8-0.6,0.7-1.1c-0.1-0.5-0.6-0.8-1.1-0.7c-0.2,0-0.4,0.1-0.6,0.2L98,15.4L129.6,2.8z M145.9,43.1
	l3.7,9.2c-0.2,0.1-0.3,0.2-0.5,0.4c-0.5,0.3-0.6,0.8-0.3,1.3c0.2,0.3,0.5,0.5,0.7,0.5c0.2,0,0.4,0,0.5-0.2c0.1-0.1,0.2-0.1,0.2-0.2
	l4,9.9l-31.5,12.7l-4.9-12.2c1.8-1.8,7.7-8.3,7.4-18.3c-0.2-8.8,7.2-12.6,9.6-13.6c1.8,4.4,5.3,8.1,10,10.1
	C145.2,42.9,145.5,43,145.9,43.1L145.9,43.1z M166.8,32.1c-3.4,8.3-13,12.4-21.3,8.9c-8.3-3.4-12.4-13-8.9-21.3
	c2.6-6.3,8.7-10.2,15.2-10.2c2,0,4.2,0.4,6.2,1.2C166.2,14.1,170.3,23.7,166.8,32.1z"/>
<path class="st0" d="M157.4,12.1c-3.7-1.5-7.8-1.5-11.4,0c-3.7,1.6-6.6,4.4-8,8c-3.1,7.6,0.6,16.3,8.1,19.4c1.8,0.7,3.8,1.1,5.6,1.1
	c1.9,0,3.9-0.4,5.7-1.1c3.7-1.6,6.6-4.4,8-8C168.5,23.9,164.9,15.2,157.4,12.1z M163.7,30.8c-1.3,3.2-3.8,5.7-7,7.1
	c-3.2,1.3-6.7,1.4-10,0c-6.7-2.8-9.8-10.3-7.1-17c2-5,6.9-8,12.1-8c1.7,0,3.3,0.3,4.9,1C163.3,16.5,166.5,24.2,163.7,30.8z"/>
<path class="st0" d="M158.7,28.6c-0.2,0.5,0,1,0.5,1.2l2.4,1c0.1,0.1,0.3,0.1,0.4,0.1c0.4,0,0.7-0.2,0.8-0.6c0.2-0.5,0-1-0.5-1.2
	l-2.4-1C159.5,28,158.9,28.2,158.7,28.6z"/>
<path class="st0" d="M143.9,23.5c0.4,0,0.7-0.2,0.8-0.6c0.2-0.5,0-1-0.5-1.2l-2.4-1c-0.5-0.2-1,0-1.2,0.5c-0.2,0.5,0,1,0.5,1.2
	l2.4,1C143.6,23.5,143.8,23.5,143.9,23.5z"/>
<path class="st0" d="M154.9,18.8c0.1,0.1,0.3,0.1,0.4,0.1c0.4,0,0.7-0.2,0.8-0.6l1-2.4c0.2-0.5,0-1-0.5-1.2c-0.5-0.2-1,0-1.2,0.5
	l-1,2.4C154.1,18.1,154.4,18.7,154.9,18.8z"/>
<path class="st0" d="M149.1,32.9c-0.5-0.2-1,0-1.2,0.5l-1,2.4c-0.2,0.5,0,1,0.5,1.2c0.1,0.1,0.3,0.1,0.4,0.1c0.4,0,0.7-0.2,0.8-0.6
	l1-2.4C149.8,33.6,149.6,33.1,149.1,32.9z"/>
<path class="st0" d="M117.4,22.8L117.4,22.8c0.5,0,0.9-0.2,1.3-0.6c0.4-0.4,0.6-0.7,0.6-1.3c0-0.6-0.2-0.9-0.6-1.3s-0.7-0.6-1.3-0.6
	c-0.5,0-0.9,0.2-1.3,0.6c-0.4,0.4-0.6,0.7-0.6,1.3l0,0C115.7,22.1,116.4,22.8,117.4,22.8z M117.4,21C117.5,21,117.5,21.1,117.4,21
	L117.4,21C117.4,21.1,117.4,21,117.4,21z"/>
<path class="st0" d="M121.4,32.8c0.2,0.1,0.3,0.1,0.5,0.1c0.1,0,0.3,0,0.4-0.1c0.3-0.1,0.5-0.4,0.6-0.6c0.3-1.1,2.9-10.6,1.5-14.1
	c-1.5-3.8-5.8-5.6-9.6-4.1c-3.8,1.5-5.6,5.8-4.1,9.6C111.9,27.1,120.4,32.2,121.4,32.8z M115.3,15.7c0.6-0.3,1.4-0.4,2-0.4
	c2.2,0,4.3,1.3,5.2,3.5c0.8,2.2-0.4,8.4-1.2,11.7c-3-1.8-8.1-5.5-9.1-7.7C111.1,20,112.5,16.8,115.3,15.7z"/>
<path class="st0" d="M143,56.4c0.1,0.4,0.5,0.6,0.9,0.6c0.1,0,0.2,0,0.3,0c0.8-0.3,1.8-0.6,2.6-1c0.5-0.2,0.6-0.7,0.5-1.2
	s-0.7-0.6-1.2-0.5c-0.8,0.4-1.7,0.6-2.4,0.9C143.1,55.4,142.9,55.9,143,56.4z"/>
<path class="st0" d="M140.3,55.9c-0.8,0.1-1.7,0.1-2.5,0.1c-0.6,0-0.9,0.4-1,0.8c0,0.6,0.4,0.9,0.8,1c0.4,0,0.7,0,1.1,0
	c0.6,0,1.2,0,1.8-0.1c0.5-0.1,0.8-0.5,0.8-1C141.3,56.3,140.8,55.9,140.3,55.9z"/>
<path class="st0" d="M114.9,40.1c-0.9-0.5-1.8-0.8-2.7-1.1c-0.5-0.1-1,0.2-1.1,0.6s0.2,1,0.6,1.1c0.7,0.2,1.5,0.5,2.3,0.9
	c0.1,0.1,0.3,0.1,0.5,0.1c0.4,0,0.6-0.2,0.8-0.5C115.4,40.9,115.3,40.4,114.9,40.1z"/>
<path class="st0" d="M134.4,55.3c-0.6-0.2-1-0.4-1.6-0.6c-0.3-0.1-0.6-0.3-0.8-0.4c-0.5-0.3-1-0.1-1.3,0.4s-0.1,1,0.4,1.3
	c0.3,0.2,0.6,0.3,0.9,0.5c0.6,0.3,1.1,0.5,1.8,0.6c0.1,0,0.2,0,0.3,0c0.4,0,0.7-0.3,0.9-0.6C135.2,56,134.9,55.5,134.4,55.3z"/>
<path class="st0" d="M127.2,50.7c-0.4-0.3-0.9-0.3-1.3,0.1c-0.4,0.4-0.3,0.9,0.1,1.3c0.7,0.6,1.5,1.2,2.1,1.8
	c0.2,0.1,0.4,0.2,0.6,0.2c0.3,0,0.6-0.1,0.7-0.4c0.3-0.4,0.3-1-0.2-1.3C128.6,51.9,128,51.4,127.2,50.7z"/>
<path class="st0" d="M118,42.2c-0.4-0.3-1-0.3-1.3,0.2c-0.3,0.4-0.3,1,0.2,1.3c0.6,0.5,1.3,1,2,1.7c0.2,0.2,0.4,0.3,0.6,0.3
	s0.5-0.1,0.6-0.3c0.4-0.4,0.3-0.9-0.1-1.3C119.3,43.2,118.6,42.7,118,42.2z"/>
<path class="st0" d="M158.2,19.4c-0.5-0.2-1,0.1-1.2,0.6c-0.2,0.5,0.1,1,0.6,1.2l1.2,0.5l-5.8,2.6c-0.1,0-0.2-0.1-0.2-0.1
	c-0.5-0.2-0.9-0.2-1.4,0s-0.7,0.6-0.9,1l0,0c0,0.1-0.1,0.2-0.1,0.4l-8.6,3.7c-0.5,0.2-0.6,0.7-0.5,1.2c0.2,0.4,0.5,0.6,0.8,0.6
	c0.1,0,0.3,0,0.4-0.1l8.5-3.8c0.1,0.1,0.3,0.2,0.5,0.3c0.2,0.1,0.5,0.1,0.6,0.1c0.7,0,1.4-0.5,1.7-1.1c0.1-0.2,0.1-0.4,0.1-0.6
	l6-2.7l-0.5,1.5c-0.1,0.5,0.2,1,0.6,1.1c0.5,0.1,1-0.2,1.1-0.6l0.9-3.3c0.1-0.4,0-0.7-0.3-0.9c-0.2-0.1-0.4-0.2-0.6-0.2L158.2,19.4z
	"/>
<rect x="62.4" y="87.1" class="st1" width="161.8" height="27.2"/>
<text transform="matrix(1 0 0 1 62.4052 98.0787)" class="st0 st2 st3">Destination Outdoor</text>
</svg>
