<?xml version="1.0" encoding="utf-8"?>
<!-- Generator: Adobe Illustrator 26.0.0, SVG Export Plug-In . SVG Version: 6.00 Build 0)  -->
<svg version="1.1" id="Layer_1" xmlns="http://www.w3.org/2000/svg" xmlns:xlink="http://www.w3.org/1999/xlink" x="0px" y="0px"
	 viewBox="0 0 200 200" style="enable-background:new 0 0 200 200;" xml:space="preserve">
<style type="text/css">
	.st0{fill:#FFFFFF;}
	.st1{fill:none;}
	.st2{enable-background:new    ;}
	.st3{font-family:'Optima-ExtraBlack';}
	.st4{font-size:21px;}
</style>
<path class="st0" d="M58.3,61.5c-7.5-3.1-15.8-0.3-20.3,6l-5.3-13.1c-0.1-0.2-0.2-0.3-0.4-0.4c-0.2-0.1-0.4-0.1-0.7,0l-31,12.4
	c-0.2,0.1-0.3,0.2-0.4,0.4c-0.1,0.2-0.1,0.4,0,0.7l23.5,58.5c0.2,0.3,0.4,0.6,0.8,0.6c0.1,0,0.2,0,0.3-0.1l31-12.5
	c0.2-0.1,0.3-0.2,0.4-0.4c0.1-0.2,0.1-0.4,0-0.7l-7.6-18.9c1.1,0.2,2.2,0.3,3.2,0.3c6.7,0,12.9-3.9,15.7-10.5
	c1.7-4.2,1.7-8.7,0-12.9C65.7,66.5,62.4,63.2,58.3,61.5z M31.4,55.8l5.5,13.6c-0.2,0.4-0.4,0.9-0.7,1.3c-1.6,3.7-1.7,7.6-0.6,11.1
	c-2.3,1-10.3,5-10,14.3c0,0.2,0,0.4,0,0.7l-0.6-0.6c-0.3-0.3-0.9-0.3-1.2,0c-0.3,0.3-0.3,0.9,0,1.2l1.7,1.7
	c-0.8,6.1-4.1,10.5-5.8,12.1L11.5,91c0.1,0,0.2-0.1,0.2-0.1c0.4-0.1,0.8-0.6,0.7-1c-0.1-0.4-0.6-0.8-1-0.7c-0.2,0-0.3,0.1-0.6,0.2
	L2.1,67.6L31.4,55.8z M46.5,93.2l3.5,8.6c-0.2,0.1-0.2,0.2-0.4,0.3c-0.4,0.2-0.6,0.8-0.2,1.2c0.2,0.2,0.4,0.4,0.7,0.4s0.3,0,0.4-0.2
	c0.1-0.1,0.2-0.1,0.2-0.2l3.7,9.1L25,124.3l-4.6-11.3c1.7-1.7,7.1-7.7,6.9-16.9C27.1,88,34,84.4,36.2,83.5c1.7,4.1,4.9,7.6,9.2,9.4
	C45.8,93,46.2,93.1,46.5,93.2L46.5,93.2z M65.9,83c-3.1,7.7-12,11.5-19.8,8.2c-7.7-3.1-11.5-12-8.2-19.8c2.5-5.8,8-9.5,14-9.5
	c1.9,0,3.9,0.3,5.8,1.1C65.3,66.4,69.1,75.3,65.9,83z"/>
<path class="st0" d="M57.1,64.5c-3.5-1.3-7.2-1.3-10.6,0c-3.5,1.4-6.1,4.1-7.5,7.5c-2.9,7,0.6,15,7.6,18.1c1.7,0.7,3.6,1,5.2,1
	c1.8,0,3.6-0.3,5.3-1c3.5-1.4,6.1-4.1,7.5-7.5C67.4,75.4,64.1,67.4,57.1,64.5z M63,81.7c-1.2,3-3.6,5.3-6.5,6.6
	c-3,1.2-6.2,1.3-9.2,0c-6.1-2.6-9.1-9.6-6.6-15.8C42.6,67.8,47.2,65,52,65c1.6,0,3.1,0.2,4.6,0.9C62.6,68.6,65.5,75.6,63,81.7z"/>
<path class="st0" d="M58.4,79.7c-0.2,0.4,0,0.9,0.4,1.1l2.2,0.9c0.1,0.1,0.2,0.1,0.3,0.1c0.3,0,0.7-0.2,0.8-0.6
	c0.2-0.4,0-0.9-0.4-1.1l-2.2-0.9C59.1,79.2,58.5,79.3,58.4,79.7z"/>
<path class="st0" d="M44.6,74.9c0.3,0,0.7-0.2,0.8-0.6c0.2-0.4,0-0.9-0.4-1.1l-2.2-0.9c-0.4-0.2-0.9,0-1.1,0.4s0,0.9,0.4,1.1
	l2.2,0.9C44.4,74.9,44.5,74.9,44.6,74.9z"/>
<path class="st0" d="M54.8,70.7c0.1,0.1,0.2,0.1,0.3,0.1c0.3,0,0.7-0.2,0.8-0.6l0.9-2.2c0.2-0.4,0-0.9-0.4-1.1
	c-0.4-0.2-0.9,0-1.1,0.4l-0.9,2.2C54.1,70,54.4,70.5,54.8,70.7z"/>
<path class="st0" d="M49.5,83.7c-0.4-0.2-0.9,0-1.1,0.4l-0.9,2.2c-0.2,0.4,0,0.9,0.4,1.1c0.1,0.1,0.2,0.1,0.3,0.1
	c0.3,0,0.7-0.2,0.8-0.6l0.9-2.2C50.1,84.4,49.9,83.9,49.5,83.7z"/>
<path class="st0" d="M20.1,74.4L20.1,74.4c0.4,0,0.9-0.2,1.2-0.6c0.3-0.3,0.6-0.7,0.6-1.2c0-0.6-0.2-0.9-0.6-1.2
	c-0.3-0.3-0.7-0.6-1.2-0.6c-0.4,0-0.9,0.2-1.2,0.6c-0.3,0.3-0.6,0.7-0.6,1.2l0,0C18.4,73.7,19.2,74.4,20.1,74.4z M20.1,72.6
	C20.2,72.6,20.2,72.7,20.1,72.6L20.1,72.6C20.1,72.7,20.1,72.6,20.1,72.6z"/>
<path class="st0" d="M23.8,83.6c0.2,0.1,0.2,0.1,0.4,0.1c0.1,0,0.2,0,0.3-0.1c0.2-0.1,0.4-0.3,0.6-0.6c0.2-1,2.7-9.8,1.3-13.1
	c-1.3-3.6-5.3-5.2-8.9-3.8c-3.6,1.3-5.2,5.3-3.8,8.9C15,78.3,22.9,83.1,23.8,83.6z M18.1,67.8c0.6-0.2,1.3-0.3,1.9-0.3
	c2,0,3.9,1.2,4.8,3.2c0.8,2-0.3,7.8-1.1,10.9c-2.8-1.7-7.6-5-8.4-7.1C14.2,71.8,15.4,68.8,18.1,67.8z"/>
<path class="st0" d="M43.8,105.5c0.1,0.3,0.4,0.6,0.9,0.6c0.1,0,0.2,0,0.2,0c0.8-0.2,1.7-0.6,2.5-0.9c0.4-0.2,0.6-0.7,0.4-1.1
	c-0.2-0.4-0.7-0.6-1.1-0.4c-0.8,0.3-1.6,0.6-2.2,0.9C43.9,104.6,43.7,105,43.8,105.5z"/>
<path class="st0" d="M41.3,105c-0.8,0.1-1.6,0.1-2.3,0.1c-0.6,0-0.9,0.3-0.9,0.8c0,0.6,0.3,0.9,0.8,0.9c0.3,0,0.7,0,1,0
	c0.6,0,1.1,0,1.7-0.1c0.4-0.1,0.8-0.4,0.8-0.9C42.1,105.4,41.8,105,41.3,105z"/>
<path class="st0" d="M35.9,104.6c-0.6-0.2-0.9-0.3-1.4-0.6c-0.2-0.1-0.6-0.2-0.8-0.3c-0.4-0.2-0.9-0.1-1.2,0.3
	c-0.2,0.4-0.1,0.9,0.3,1.2c0.2,0.2,0.6,0.2,0.9,0.4c0.6,0.2,1,0.4,1.7,0.6c0.1,0,0.2,0,0.2,0c0.3,0,0.7-0.2,0.9-0.6
	C36.6,105.1,36.2,104.7,35.9,104.6z"/>
<path class="st0" d="M29.2,100.2c-0.3-0.2-0.9-0.2-1.2,0.1c-0.3,0.3-0.2,0.9,0.1,1.2c0.7,0.6,1.3,1.1,2,1.7c0.2,0.1,0.3,0.2,0.6,0.2
	c0.2,0,0.6-0.1,0.7-0.3c0.2-0.3,0.2-0.9-0.2-1.2C30.4,101.4,29.9,100.9,29.2,100.2z"/>
<path class="st0" d="M20.6,92.3c-0.3-0.2-0.9-0.2-1.2,0.2c-0.2,0.3-0.2,0.9,0.2,1.2c0.6,0.4,1.2,0.9,1.9,1.6
	c0.2,0.2,0.3,0.2,0.6,0.2c0.2,0,0.4-0.1,0.6-0.2c0.3-0.3,0.2-0.9-0.1-1.2C21.8,93.3,21.2,92.8,20.6,92.3z"/>
<path class="st0" d="M57.9,71.2c-0.4-0.2-0.9,0.1-1.1,0.6s0.1,0.9,0.6,1.1l1.1,0.4l-5.3,2.5c-0.1,0-0.2-0.1-0.2-0.1
	c-0.4-0.2-0.9-0.2-1.3,0s-0.7,0.6-0.9,0.9l0,0c0,0.1-0.1,0.2-0.1,0.3l-8,3.5C42,80.5,41.9,81,42,81.4c0.2,0.3,0.4,0.6,0.8,0.6
	c0.1,0,0.2,0,0.3-0.1l7.9-3.6c0.1,0.1,0.2,0.2,0.4,0.2c0.2,0.1,0.4,0.1,0.6,0.1c0.7,0,1.3-0.4,1.6-1c0.2-0.1,0.2-0.3,0.2-0.6
	l5.6-2.5L59,75.9c-0.1,0.4,0.2,0.9,0.6,1c0.4,0.1,0.9-0.2,1-0.6l0.9-3.1c0.1-0.3,0-0.7-0.2-0.9c-0.2-0.1-0.3-0.2-0.6-0.2L57.9,71.2z
	"/>
<rect x="77.2" y="74.8" class="st1" width="110.5" height="18.6"/>
<text transform="matrix(1 0 0 1 75.9453 89.8332)" class="st2"><tspan x="0" y="0" class="st0 st3 st4">Destination </tspan><tspan x="0" y="25.2" class="st0 st3 st4">Outdoor</tspan></text>
</svg>
