<?xml version="1.0" encoding="utf-8"?>
<!-- Generator: Adobe Illustrator 26.0.0, SVG Export Plug-In . SVG Version: 6.00 Build 0)  -->
<svg version="1.1" id="Layer_1" xmlns="http://www.w3.org/2000/svg" xmlns:xlink="http://www.w3.org/1999/xlink" x="0px" y="0px"
	 viewBox="0 0 100 125" style="enable-background:new 0 0 100 125;" xml:space="preserve">
<style type="text/css">
	.st0{fill:#FFFFFF;}
	.st1{fill:none;}
	.st2{font-family:'Optima-ExtraBlack';}
	.st3{font-size:10px;}
</style>
<path class="st0" d="M11.8,47.9c-2.7,6.8-0.1,14.3,5.6,18.3L5.5,71.1c-0.2,0.1-0.3,0.2-0.4,0.4s-0.1,0.4,0,0.6l11.4,27.8
	c0.1,0.2,0.2,0.3,0.4,0.4c0.2,0.1,0.4,0.1,0.6,0l52.5-21.8c0.3-0.2,0.5-0.4,0.5-0.7c0-0.1,0-0.2-0.1-0.3L58.9,49.7
	c-0.1-0.2-0.2-0.3-0.4-0.4c-0.2-0.1-0.4-0.1-0.6,0l-17,7.1c0.2-1,0.3-2,0.3-2.9c-0.1-6-3.7-11.6-9.6-14c-3.8-1.5-7.9-1.5-11.7,0.1
	C16.2,41.2,13.3,44.2,11.8,47.9z M6.8,72.3l12.2-5.1c0.4,0.2,0.9,0.4,1.2,0.6c3.3,1.4,6.8,1.4,10.1,0.4c1,2.1,4.7,9.2,13,8.9
	c0.2,0,0.4,0,0.6,0l-0.5,0.5c-0.3,0.3-0.3,0.8,0,1.1c0.3,0.3,0.8,0.3,1.1,0l1.5-1.5c5.5,0.6,9.5,3.6,11,5.1l-18.2,7.6
	c0-0.1-0.1-0.2-0.1-0.2c-0.1-0.4-0.5-0.7-0.9-0.6c-0.4,0.1-0.7,0.5-0.6,0.9c0,0.2,0.1,0.3,0.2,0.5l-19.6,8.1L6.8,72.3z M40.5,58.3
	l7.7-3.2c0.1,0.2,0.2,0.2,0.3,0.4c0.2,0.4,0.7,0.5,1.1,0.2c0.2-0.2,0.4-0.4,0.4-0.6c0-0.2,0-0.3-0.2-0.4c-0.1-0.1-0.1-0.2-0.2-0.2
	l8.2-3.4l10.9,26.2l-10.2,4.2c-1.5-1.5-7-6.3-15.4-6c-7.3,0.2-10.6-5.9-11.5-7.9c3.7-1.5,6.8-4.5,8.3-8.4
	C40.3,58.9,40.3,58.6,40.5,58.3L40.5,58.3z M31,40.9c7,2.8,10.5,10.8,7.6,17.8c-2.8,7-10.8,10.5-17.8,7.6c-5.3-2.1-8.6-7.2-8.6-12.6
	c0-1.7,0.3-3.5,0.9-5.2C16,41.6,24,38.1,31,40.9z"/>
<path class="st0" d="M14.4,49c-1.2,3.1-1.2,6.5,0.1,9.5c1.3,3.1,3.8,5.4,6.8,6.7c6.4,2.6,13.6-0.6,16.2-7c0.6-1.6,0.9-3.2,0.9-4.7
	c0-1.6-0.3-3.2-1-4.8c-1.3-3.1-3.8-5.4-6.8-6.7C24.2,39.5,17,42.6,14.4,49z M30,43.5c2.7,1.1,4.8,3.1,6,5.8c1.1,2.7,1.2,5.6,0.1,8.4
	c-2.3,5.6-8.6,8.3-14.2,6.1c-4.2-1.7-6.8-5.7-6.8-10.1c0-1.4,0.2-2.8,0.8-4.1C18.1,44,24.4,41.2,30,43.5z"/>
<path class="st0" d="M28.2,47.7c0.4,0.2,0.9,0,1-0.4l0.8-2c0.1-0.1,0.1-0.2,0.1-0.3c0-0.3-0.2-0.6-0.5-0.7c-0.4-0.2-0.9,0-1,0.4
	l-0.8,2C27.7,47.1,27.8,47.5,28.2,47.7z"/>
<path class="st0" d="M24,60.2c0-0.3-0.2-0.6-0.5-0.7c-0.4-0.2-0.9,0-1,0.4l-0.8,2c-0.2,0.4,0,0.9,0.4,1s0.9,0,1-0.4l0.8-2
	C24,60.4,24,60.3,24,60.2z"/>
<path class="st0" d="M20.1,51c0.1-0.1,0.1-0.2,0.1-0.3c0-0.3-0.2-0.6-0.5-0.7l-2-0.8c-0.4-0.2-0.9,0-1,0.4c-0.2,0.4,0,0.9,0.4,1
	l2,0.8C19.5,51.6,19.9,51.4,20.1,51z"/>
<path class="st0" d="M31.9,55.7c-0.2,0.4,0,0.9,0.4,1l2,0.8c0.4,0.2,0.9,0,1-0.4c0.1-0.1,0.1-0.2,0.1-0.3c0-0.3-0.2-0.6-0.5-0.7
	l-2-0.8C32.5,55.1,32,55.3,31.9,55.7z"/>
<path class="st0" d="M23.7,82.3L23.7,82.3c0-0.4-0.2-0.8-0.5-1.1s-0.6-0.5-1.1-0.5c-0.5,0-0.8,0.2-1.1,0.5c-0.3,0.3-0.5,0.6-0.5,1.1
	c0,0.4,0.2,0.8,0.5,1.1c0.3,0.3,0.6,0.5,1.1,0.5l0,0C23.1,83.8,23.7,83.1,23.7,82.3z M22.2,82.3C22.2,82.2,22.3,82.2,22.2,82.3
	L22.2,82.3C22.3,82.3,22.2,82.3,22.2,82.3z"/>
<path class="st0" d="M32.1,78.9c0.1-0.2,0.1-0.2,0.1-0.4c0-0.1,0-0.2-0.1-0.3c-0.1-0.2-0.3-0.4-0.5-0.5c-0.9-0.2-8.9-2.3-11.8-1.1
	c-3.2,1.3-4.7,4.9-3.3,8.1c1.3,3.2,4.9,4.7,8.1,3.3C27.3,86.9,31.6,79.7,32.1,78.9z M17.8,84.1c-0.2-0.5-0.3-1.2-0.3-1.7
	c0-1.9,1-3.6,2.9-4.4c1.8-0.7,7,0.2,9.8,0.9c-1.5,2.5-4.5,6.9-6.3,7.6C21.5,87.7,18.8,86.5,17.8,84.1z"/>
<path class="st0" d="M51.6,60.6c0.3-0.1,0.5-0.4,0.5-0.8c0-0.1,0-0.2,0-0.2c-0.2-0.7-0.5-1.5-0.9-2.2c-0.2-0.4-0.6-0.5-1-0.4
	s-0.5,0.6-0.4,1c0.3,0.7,0.6,1.4,0.8,2C50.8,60.5,51.2,60.7,51.6,60.6z"/>
<path class="st0" d="M51.2,62.9c0.1,0.7,0.1,1.4,0.1,2.1c0,0.5,0.3,0.8,0.7,0.8c0.5,0,0.8-0.3,0.8-0.7c0-0.3,0-0.6,0-0.9
	c0-0.5,0-1-0.1-1.5c-0.1-0.4-0.4-0.7-0.9-0.7C51.5,62,51.2,62.4,51.2,62.9z"/>
<path class="st0" d="M38.2,84.3c-0.4,0.8-0.7,1.6-0.9,2.3c-0.1,0.4,0.2,0.8,0.6,0.9c0.4,0.1,0.8-0.2,0.9-0.6
	c0.1-0.6,0.4-1.2,0.8-1.9c0.1-0.1,0.1-0.2,0.1-0.4c0-0.3-0.2-0.5-0.4-0.7C38.9,83.8,38.4,83.9,38.2,84.3z"/>
<path class="st0" d="M50.8,67.8c-0.1,0.5-0.3,0.9-0.5,1.3c-0.1,0.2-0.2,0.5-0.3,0.7c-0.2,0.4-0.1,0.9,0.3,1.1s0.9,0.1,1.1-0.3
	c0.2-0.2,0.2-0.5,0.4-0.8c0.2-0.5,0.4-0.9,0.5-1.5c0-0.1,0-0.2,0-0.2c0-0.3-0.2-0.6-0.5-0.8C51.3,67.1,50.9,67.4,50.8,67.8z"/>
<path class="st0" d="M47,73.8c-0.2,0.3-0.2,0.8,0.1,1.1c0.3,0.3,0.8,0.2,1.1-0.1c0.5-0.6,1-1.2,1.4-1.8c0.1-0.2,0.2-0.3,0.1-0.5
	c0-0.2-0.1-0.5-0.3-0.6c-0.3-0.2-0.9-0.2-1.1,0.2C48,72.7,47.5,73.2,47,73.8z"/>
<path class="st0" d="M40,81.7c-0.2,0.3-0.2,0.9,0.2,1.1c0.3,0.2,0.9,0.2,1.1-0.2c0.4-0.5,0.8-1.1,1.4-1.7c0.2-0.2,0.2-0.3,0.2-0.5
	s-0.1-0.4-0.2-0.5c-0.3-0.3-0.8-0.2-1.1,0.1C40.8,80.6,40.4,81.1,40,81.7z"/>
<path class="st0" d="M20.5,48.2c-0.2,0.4,0.1,0.8,0.5,1c0.4,0.2,0.8-0.1,1-0.5l0.4-1l2.2,4.8c0,0.1-0.1,0.2-0.1,0.2
	c-0.2,0.4-0.1,0.8,0,1.2s0.5,0.6,0.9,0.8l0,0c0.1,0,0.2,0.1,0.3,0.1l3.2,7.2c0.2,0.4,0.6,0.5,1,0.4c0.3-0.2,0.5-0.4,0.5-0.7
	c0-0.1,0-0.2-0.1-0.3L27,54.2c0.1-0.1,0.2-0.2,0.2-0.4c0.1-0.2,0.1-0.4,0.1-0.5c0-0.6-0.4-1.2-0.9-1.4c-0.2-0.1-0.3-0.1-0.5-0.1
	l-2.3-5l1.2,0.4c0.4,0.1,0.8-0.2,0.9-0.6c0.1-0.4-0.2-0.8-0.6-0.9L22.4,45c-0.3-0.1-0.6,0-0.8,0.2c-0.1,0.2-0.2,0.3-0.1,0.5
	L20.5,48.2z"/>
<rect x="81.7" y="6" transform="matrix(0.9999 -1.118732e-02 1.118732e-02 0.9999 -0.6834 1.0224)" class="st1" width="18.7" height="111.1"/>
<text transform="matrix(-1.118732e-02 -0.9999 0.9999 -1.118732e-02 89.9363 117.1664)" class="st0 st2 st3">Destination Outdoor</text>
</svg>
