<?xml version="1.0" encoding="utf-8"?>
<!-- Generator: Adobe Illustrator 26.0.0, SVG Export Plug-In . SVG Version: 6.00 Build 0)  -->
<svg version="1.1" id="Layer_1" xmlns="http://www.w3.org/2000/svg" xmlns:xlink="http://www.w3.org/1999/xlink" x="0px" y="0px"
	 viewBox="0 0 100 125" style="enable-background:new 0 0 100 125;" xml:space="preserve">
<style type="text/css">
	.st0{fill:#FFFFFF;}
	.st1{fill:none;}
	.st2{font-family:'Optima-ExtraBlack';}
	.st3{font-size:9.231px;}
</style>
<path class="st0" d="M66,27c-6.7-2.8-14.2-0.3-18.2,5.4L43,20.6c-0.1-0.2-0.2-0.3-0.4-0.4s-0.4-0.1-0.6,0L14.2,31.3
	c-0.2,0.1-0.3,0.2-0.4,0.4s-0.1,0.4,0,0.6l21.1,52.5c0.2,0.3,0.4,0.5,0.7,0.5c0.1,0,0.2,0,0.3-0.1L63.7,74c0.2-0.1,0.3-0.2,0.4-0.4
	c0.1-0.2,0.1-0.4,0-0.6l-6.8-17c1,0.2,2,0.3,2.9,0.3c6,0,11.6-3.5,14.1-9.4c1.5-3.8,1.5-7.8,0-11.6C72.6,31.5,69.7,28.6,66,27z
	 M41.9,21.9l4.9,12.2c-0.2,0.4-0.4,0.8-0.6,1.2c-1.4,3.3-1.5,6.8-0.5,10c-2.1,0.9-9.2,4.5-9,12.8c0,0.2,0,0.4,0,0.6l-0.5-0.5
	c-0.3-0.3-0.8-0.3-1.1,0c-0.3,0.3-0.3,0.8,0,1.1l1.5,1.5c-0.7,5.5-3.7,9.4-5.2,10.9L24,53.5c0.1,0,0.2-0.1,0.2-0.1
	c0.4-0.1,0.7-0.5,0.6-0.9c-0.1-0.4-0.5-0.7-0.9-0.6c-0.2,0-0.3,0.1-0.5,0.2l-7.8-19.6L41.9,21.9z M55.4,55.5l3.1,7.7
	c-0.2,0.1-0.2,0.2-0.4,0.3c-0.4,0.2-0.5,0.7-0.2,1.1c0.2,0.2,0.4,0.4,0.6,0.4c0.2,0,0.3,0,0.4-0.2c0.1-0.1,0.2-0.1,0.2-0.2l3.3,8.2
	L36.1,83.4L32,73.3c1.5-1.5,6.4-6.9,6.2-15.2c-0.2-7.3,6-10.5,8-11.3c1.5,3.7,4.4,6.8,8.3,8.4C54.8,55.3,55.1,55.4,55.4,55.5
	L55.4,55.5z M72.8,46.3c-2.8,6.9-10.8,10.3-17.8,7.4c-6.9-2.8-10.3-10.8-7.4-17.8c2.2-5.2,7.2-8.5,12.6-8.5c1.7,0,3.5,0.3,5.2,1
	C72.3,31.4,75.7,39.4,72.8,46.3z"/>
<path class="st0" d="M64.9,29.7c-3.1-1.2-6.5-1.2-9.5,0c-3.1,1.3-5.5,3.7-6.7,6.7c-2.6,6.3,0.5,13.5,6.8,16.2
	c1.5,0.6,3.2,0.9,4.7,0.9c1.6,0,3.2-0.3,4.8-0.9c3.1-1.3,5.5-3.7,6.7-6.7C74.2,39.5,71.2,32.3,64.9,29.7z M70.2,45.2
	c-1.1,2.7-3.2,4.8-5.8,5.9c-2.7,1.1-5.6,1.2-8.3,0c-5.5-2.3-8.2-8.6-5.9-14.2c1.7-4.2,5.8-6.7,10.1-6.7c1.4,0,2.8,0.2,4.1,0.8
	C69.9,33.4,72.5,39.7,70.2,45.2z"/>
<path class="st0" d="M66.1,43.4c-0.2,0.4,0,0.8,0.4,1l2,0.8c0.1,0.1,0.2,0.1,0.3,0.1c0.3,0,0.6-0.2,0.7-0.5c0.2-0.4,0-0.8-0.4-1
	l-2-0.8C66.7,42.9,66.2,43,66.1,43.4z"/>
<path class="st0" d="M53.7,39.1c0.3,0,0.6-0.2,0.7-0.5c0.2-0.4,0-0.8-0.4-1l-2-0.8c-0.4-0.2-0.8,0-1,0.4s0,0.8,0.4,1l2,0.8
	C53.5,39.1,53.6,39.1,53.7,39.1z"/>
<path class="st0" d="M62.9,35.3c0.1,0.1,0.2,0.1,0.3,0.1c0.3,0,0.6-0.2,0.7-0.5l0.8-2c0.2-0.4,0-0.8-0.4-1c-0.4-0.2-0.8,0-1,0.4
	l-0.8,2C62.2,34.7,62.5,35.1,62.9,35.3z"/>
<path class="st0" d="M58.1,47c-0.4-0.2-0.8,0-1,0.4l-0.8,2c-0.2,0.4,0,0.8,0.4,1c0.1,0.1,0.2,0.1,0.3,0.1c0.3,0,0.6-0.2,0.7-0.5
	l0.8-2C58.6,47.6,58.5,47.1,58.1,47z"/>
<path class="st0" d="M31.7,38.6L31.7,38.6c0.4,0,0.8-0.2,1.1-0.5c0.3-0.3,0.5-0.6,0.5-1.1c0-0.5-0.2-0.8-0.5-1.1
	c-0.3-0.3-0.6-0.5-1.1-0.5c-0.4,0-0.8,0.2-1.1,0.5c-0.3,0.3-0.5,0.6-0.5,1.1l0,0C30.2,38,30.9,38.6,31.7,38.6z M31.7,37
	C31.8,37,31.8,37.1,31.7,37L31.7,37C31.7,37.1,31.7,37,31.7,37z"/>
<path class="st0" d="M35,46.9c0.2,0.1,0.2,0.1,0.4,0.1c0.1,0,0.2,0,0.3-0.1c0.2-0.1,0.4-0.3,0.5-0.5c0.2-0.9,2.4-8.8,1.2-11.8
	c-1.2-3.2-4.8-4.7-8-3.4c-3.2,1.2-4.7,4.8-3.4,8C27.1,42.1,34.2,46.4,35,46.9z M29.9,32.7c0.5-0.2,1.2-0.3,1.7-0.3
	c1.8,0,3.5,1.1,4.3,2.9c0.7,1.8-0.3,7-1,9.8c-2.5-1.5-6.8-4.5-7.5-6.4C26.4,36.3,27.5,33.6,29.9,32.7z"/>
<path class="st0" d="M53,66.5c0.1,0.3,0.4,0.5,0.8,0.5c0.1,0,0.2,0,0.2,0c0.7-0.2,1.5-0.5,2.2-0.8c0.4-0.2,0.5-0.6,0.4-1
	c-0.2-0.4-0.6-0.5-1-0.4c-0.7,0.3-1.4,0.5-2,0.8C53.1,65.7,52.9,66.1,53,66.5z"/>
<path class="st0" d="M50.7,66.1c-0.7,0.1-1.4,0.1-2.1,0.1c-0.5,0-0.8,0.3-0.8,0.7c0,0.5,0.3,0.8,0.7,0.8c0.3,0,0.6,0,0.9,0
	c0.5,0,1,0,1.5-0.1c0.4-0.1,0.7-0.4,0.7-0.8C51.5,66.4,51.2,66.1,50.7,66.1z"/>
<path class="st0" d="M29.5,53c-0.8-0.4-1.5-0.7-2.2-0.9c-0.4-0.1-0.8,0.2-0.9,0.5s0.2,0.8,0.5,0.9c0.6,0.2,1.2,0.4,1.9,0.8
	c0.1,0.1,0.2,0.1,0.4,0.1c0.3,0,0.5-0.2,0.7-0.4C30,53.7,29.9,53.2,29.5,53z"/>
<path class="st0" d="M45.9,65.7c-0.5-0.2-0.8-0.3-1.3-0.5c-0.2-0.1-0.5-0.2-0.7-0.3c-0.4-0.2-0.8-0.1-1.1,0.3
	c-0.2,0.4-0.1,0.8,0.3,1.1c0.2,0.2,0.5,0.2,0.8,0.4c0.5,0.2,0.9,0.4,1.5,0.5c0.1,0,0.2,0,0.2,0c0.3,0,0.6-0.2,0.8-0.5
	C46.5,66.2,46.2,65.8,45.9,65.7z"/>
<path class="st0" d="M39.9,61.8c-0.3-0.2-0.8-0.2-1.1,0.1c-0.3,0.3-0.2,0.8,0.1,1.1c0.6,0.5,1.2,1,1.8,1.5c0.2,0.1,0.3,0.2,0.5,0.2
	c0.2,0,0.5-0.1,0.6-0.3c0.2-0.3,0.2-0.8-0.2-1.1C41,62.8,40.5,62.4,39.9,61.8z"/>
<path class="st0" d="M32.2,54.7c-0.3-0.2-0.8-0.2-1.1,0.2c-0.2,0.3-0.2,0.8,0.2,1.1c0.5,0.4,1.1,0.8,1.7,1.4
	c0.2,0.2,0.3,0.2,0.5,0.2s0.4-0.1,0.5-0.2c0.3-0.3,0.2-0.8-0.1-1.1C33.2,55.6,32.7,55.1,32.2,54.7z"/>
<path class="st0" d="M65.6,35.7c-0.4-0.2-0.8,0.1-1,0.5c-0.2,0.4,0.1,0.8,0.5,1l1,0.4l-4.8,2.2c-0.1,0-0.2-0.1-0.2-0.1
	c-0.4-0.2-0.8-0.2-1.2,0s-0.6,0.5-0.8,0.8l0,0c0,0.1-0.1,0.2-0.1,0.3l-7.2,3.1c-0.4,0.2-0.5,0.6-0.4,1c0.2,0.3,0.4,0.5,0.7,0.5
	c0.1,0,0.2,0,0.3-0.1l7.1-3.2c0.1,0.1,0.2,0.2,0.4,0.2c0.2,0.1,0.4,0.1,0.5,0.1c0.6,0,1.2-0.4,1.4-0.9C62,41.4,62,41.2,62,41l5-2.2
	L66.6,40c-0.1,0.4,0.2,0.8,0.5,0.9c0.4,0.1,0.8-0.2,0.9-0.5l0.8-2.8c0.1-0.3,0-0.6-0.2-0.8c-0.2-0.1-0.3-0.2-0.5-0.2L65.6,35.7z"/>
<rect y="96.5" class="st1" width="110.5" height="18.6"/>
<text transform="matrix(1 0 0 1 1.983643e-04 103.5068)" class="st0 st2 st3">Destination Outdoor</text>
</svg>
