<?xml version="1.0" encoding="utf-8"?>
<!-- Generator: Adobe Illustrator 25.4.1, SVG Export Plug-In . SVG Version: 6.00 Build 0)  -->
<svg version="1.1" id="Layer_1" xmlns="http://www.w3.org/2000/svg" xmlns:xlink="http://www.w3.org/1999/xlink" x="0px" y="0px"
	 viewBox="0 0 100 125" style="enable-background:new 0 0 100 125;" xml:space="preserve">
<path d="M77.4,16.1c-8.7-3.6-18.5-0.4-23.7,7L47.5,7.7c-0.1-0.2-0.3-0.4-0.5-0.5s-0.5-0.1-0.8,0L10.1,21.6c-0.2,0.1-0.4,0.3-0.5,0.5
	s-0.1,0.5,0,0.8L37,91.1c0.2,0.4,0.5,0.6,0.9,0.6c0.1,0,0.3,0,0.4-0.1l36.1-14.5c0.2-0.1,0.4-0.3,0.5-0.5s0.1-0.5,0-0.8L66,53.7
	c1.3,0.3,2.6,0.4,3.8,0.4c7.8,0,15.1-4.6,18.3-12.2c2-4.9,2-10.2,0-15.1C86,21.9,82.2,18.1,77.4,16.1z M46,9.4l6.4,15.9
	c-0.3,0.5-0.5,1.1-0.8,1.6c-1.8,4.3-1.9,8.8-0.7,13c-2.7,1.2-12,5.9-11.7,16.7c0,0.3,0,0.5,0,0.8l-0.7-0.7c-0.4-0.4-1-0.4-1.4,0
	s-0.4,1,0,1.4L39,60c-0.9,7.1-4.8,12.2-6.7,14.2l-9.5-23.7c0.1,0,0.2-0.1,0.3-0.1c0.5-0.1,0.9-0.6,0.8-1.2c-0.1-0.5-0.6-0.9-1.2-0.8
	c-0.2,0-0.4,0.1-0.7,0.2L11.8,23.1L46,9.4z M63.6,53.1l4,10c-0.2,0.1-0.3,0.2-0.5,0.4c-0.5,0.3-0.6,0.9-0.3,1.4
	c0.2,0.3,0.5,0.5,0.8,0.5c0.2,0,0.4,0,0.5-0.2c0.1-0.1,0.2-0.1,0.2-0.2l4.3,10.7L38.5,89.4l-5.3-13.2c1.9-1.9,8.3-9,8-19.8
	C41,46.9,49,42.8,51.6,41.7c1.9,4.8,5.7,8.8,10.8,10.9C62.8,52.8,63.2,52.9,63.6,53.1L63.6,53.1z M86.2,41.1
	c-3.7,9-14.1,13.4-23.1,9.6c-9-3.7-13.4-14.1-9.6-23.1c2.8-6.8,9.4-11,16.4-11c2.2,0,4.5,0.4,6.7,1.3C85.6,21.7,90,32.1,86.2,41.1z"
	/>
<path d="M76,19.5c-4-1.6-8.4-1.6-12.3,0c-4,1.7-7.1,4.8-8.7,8.7c-3.4,8.2,0.6,17.6,8.8,21c2,0.8,4.1,1.2,6.1,1.2
	c2.1,0,4.2-0.4,6.2-1.2c4-1.7,7.1-4.8,8.7-8.7C88.1,32.3,84.2,22.9,76,19.5z M82.9,39.7c-1.4,3.5-4.1,6.2-7.6,7.7
	c-3.5,1.4-7.3,1.5-10.8,0c-7.2-3-10.6-11.2-7.7-18.4c2.2-5.4,7.5-8.7,13.1-8.7c1.8,0,3.6,0.3,5.3,1.1C82.4,24.3,85.9,32.6,82.9,39.7
	z"/>
<path d="M77.5,37.4c-0.2,0.5,0,1.1,0.5,1.3l2.6,1.1c0.1,0.1,0.3,0.1,0.4,0.1c0.4,0,0.8-0.2,0.9-0.6c0.2-0.5,0-1.1-0.5-1.3l-2.6-1.1
	C78.3,36.7,77.7,36.9,77.5,37.4z"/>
<path d="M61.4,31.8c0.4,0,0.8-0.2,0.9-0.6c0.2-0.5,0-1.1-0.5-1.3l-2.6-1.1c-0.5-0.2-1.1,0-1.3,0.5s0,1.1,0.5,1.3l2.6,1.1
	C61.1,31.8,61.3,31.8,61.4,31.8z"/>
<path d="M73.3,26.8c0.1,0.1,0.3,0.1,0.4,0.1c0.4,0,0.8-0.2,0.9-0.6l1.1-2.6c0.2-0.5,0-1.1-0.5-1.3c-0.5-0.2-1.1,0-1.3,0.5l-1.1,2.6
	C72.5,26,72.8,26.6,73.3,26.8z"/>
<path d="M67.1,42c-0.5-0.2-1.1,0-1.3,0.5l-1.1,2.6c-0.2,0.5,0,1.1,0.5,1.3c0.1,0.1,0.3,0.1,0.4,0.1c0.4,0,0.8-0.2,0.9-0.6l1.1-2.6
	C67.8,42.8,67.6,42.2,67.1,42z"/>
<path d="M32.8,31.1L32.8,31.1c0.5,0,1-0.2,1.4-0.6s0.6-0.8,0.6-1.4s-0.2-1-0.6-1.4s-0.8-0.6-1.4-0.6c-0.5,0-1,0.2-1.4,0.6
	s-0.6,0.8-0.6,1.4l0,0C30.9,30.3,31.7,31.1,32.8,31.1z M32.8,29.1C32.9,29.1,32.9,29.2,32.8,29.1L32.8,29.1
	C32.8,29.2,32.8,29.1,32.8,29.1z"/>
<path d="M37.1,41.9c0.2,0.1,0.3,0.1,0.5,0.1c0.1,0,0.3,0,0.4-0.1c0.3-0.1,0.5-0.4,0.6-0.7c0.3-1.2,3.1-11.5,1.6-15.3
	c-1.6-4.1-6.3-6.1-10.4-4.4c-4.1,1.6-6.1,6.3-4.4,10.4C26.8,35.7,36,41.3,37.1,41.9z M30.5,23.4c0.7-0.3,1.5-0.4,2.2-0.4
	c2.4,0,4.6,1.4,5.6,3.8c0.9,2.4-0.4,9.1-1.3,12.7c-3.2-2-8.8-5.9-9.8-8.3C25.9,28.1,27.4,24.6,30.5,23.4z"/>
<path d="M60.5,67.4c0.1,0.4,0.5,0.7,1,0.7c0.1,0,0.2,0,0.3,0c0.9-0.3,1.9-0.6,2.8-1.1c0.5-0.2,0.7-0.8,0.5-1.3s-0.8-0.7-1.3-0.5
	c-0.9,0.4-1.8,0.7-2.6,1C60.6,66.4,60.3,66.9,60.5,67.4z"/>
<path d="M57.5,66.9C56.6,67,55.7,67,54.8,67c-0.6,0-1,0.4-1.1,0.9c0,0.6,0.4,1,0.9,1.1c0.4,0,0.8,0,1.2,0c0.6,0,1.3,0,1.9-0.1
	c0.5-0.1,0.9-0.5,0.9-1.1C58.6,67.3,58.1,66.9,57.5,66.9z"/>
<path d="M30,49.8c-1-0.5-2-0.9-2.9-1.2c-0.5-0.1-1.1,0.2-1.2,0.7s0.2,1.1,0.7,1.2c0.8,0.2,1.6,0.5,2.5,1c0.1,0.1,0.3,0.1,0.5,0.1
	c0.4,0,0.7-0.2,0.9-0.5C30.6,50.7,30.5,50.1,30,49.8z"/>
<path d="M51.2,66.3c-0.6-0.2-1.1-0.4-1.7-0.7c-0.3-0.1-0.6-0.3-0.9-0.4c-0.5-0.3-1.1-0.1-1.4,0.4c-0.3,0.5-0.1,1.1,0.4,1.4
	c0.3,0.2,0.6,0.3,1,0.5c0.6,0.3,1.2,0.5,1.9,0.7c0.1,0,0.2,0,0.3,0c0.4,0,0.8-0.3,1-0.7C52,67,51.7,66.5,51.2,66.3z"/>
<path d="M43.4,61.3C43,61,42.4,61,42,61.4s-0.3,1,0.1,1.4c0.8,0.7,1.6,1.3,2.3,1.9c0.2,0.1,0.4,0.2,0.6,0.2c0.3,0,0.6-0.1,0.8-0.4
	c0.3-0.4,0.3-1.1-0.2-1.4C44.9,62.6,44.2,62,43.4,61.3z"/>
<path d="M33.4,52.1c-0.4-0.3-1.1-0.3-1.4,0.2c-0.3,0.4-0.3,1.1,0.2,1.4c0.7,0.5,1.4,1.1,2.2,1.8c0.2,0.2,0.4,0.3,0.7,0.3
	s0.5-0.1,0.7-0.3c0.4-0.4,0.3-1-0.1-1.4C34.8,53.2,34.1,52.6,33.4,52.1z"/>
<path d="M76.9,27.4c-0.5-0.2-1.1,0.1-1.3,0.6c-0.2,0.5,0.1,1.1,0.6,1.3l1.3,0.5l-6.3,2.8c-0.1,0-0.2-0.1-0.2-0.1
	c-0.5-0.2-1-0.2-1.5,0s-0.8,0.6-1,1.1l0,0c0,0.1-0.1,0.2-0.1,0.4l-9.3,4c-0.5,0.2-0.7,0.8-0.5,1.3c0.2,0.4,0.5,0.6,0.9,0.6
	c0.1,0,0.3,0,0.4-0.1l9.2-4.1c0.1,0.1,0.3,0.2,0.5,0.3s0.5,0.1,0.7,0.1c0.8,0,1.5-0.5,1.8-1.2c0.1-0.2,0.1-0.4,0.1-0.6l6.5-2.9
	L78.2,33c-0.1,0.5,0.2,1.1,0.7,1.2c0.5,0.1,1.1-0.2,1.2-0.7l1-3.6c0.1-0.4,0-0.8-0.3-1c-0.2-0.1-0.4-0.2-0.6-0.2L76.9,27.4z"/>
</svg>
