<?xml version="1.0" encoding="utf-8"?>
<!-- Generator: Adobe Illustrator 25.4.1, SVG Export Plug-In . SVG Version: 6.00 Build 0)  -->
<svg version="1.1" xmlns="http://www.w3.org/2000/svg" xmlns:xlink="http://www.w3.org/1999/xlink" x="0px" y="0px"
	 viewBox="0 0 100 125" style="enable-background:new 0 0 100 125;" xml:space="preserve">
<g id="Layer_2">
</g>
<g id="Layer_1">
	<path d="M97.2,52.6c-2.2-7.7-9.2-13-17.2-13H25.4l-6.5-8.4c-0.5-0.7-1.3-1-2.1-1H5.3l0,0c-0.8,0-1.6,0.4-2.1,1
		c-0.5,0.7-0.7,1.5-0.5,2.3L7,50.9c1.8,7.5,8.5,12.7,16.2,12.7h17.5c1.2,3.7,4.6,6.5,8.7,6.5H62c2.4,0,4.3-1.9,4.3-4.3v-2.2h22.8
		c2.7,0,5.2-1.2,6.8-3.4C97.4,57.9,97.9,55.2,97.2,52.6z M60.8,64.6H49.2c-2.1,0-3.8-1.7-3.8-3.8s1.7-3.8,3.8-3.8h11.5L60.8,64.6
		L60.8,64.6z M91.5,56.8c-0.6,0.8-1.5,1.3-2.5,1.3H66.2v-2.2c0-2.4-1.9-4.3-4.3-4.3H49.2c-4.1,0-7.5,2.7-8.7,6.5H23.1
		c-5.2,0-9.7-3.5-11-8.6l-3.5-14h6.7l6.6,8.4c0.5,0.7,1.3,1,2.1,1h56c5.6,0,10.5,3.7,12,9.1C92.3,55,92.1,56,91.5,56.8z"/>
</g>
</svg>
