<?xml version="1.0" encoding="utf-8"?>
<!-- Generator: Adobe Illustrator 25.4.1, SVG Export Plug-In . SVG Version: 6.00 Build 0)  -->
<svg version="1.1" id="Layer_1" xmlns="http://www.w3.org/2000/svg" xmlns:xlink="http://www.w3.org/1999/xlink" x="0px" y="0px"
	 viewBox="0 0 60 75" style="enable-background:new 0 0 60 75;" xml:space="preserve">
<path d="M5.7,34.7v16.8c0,0.5,0.4,1,1,1h8c0.5,0,1-0.4,1-1v-0.9l20.2,1.9c0,0,0.1,0,0.1,0c0.1,0,0.3,0,0.4-0.1l16.2-7.6
	c1.4-0.6,2.1-2.2,1.7-3.6c-0.2-0.8-0.8-1.6-1.6-2c-0.8-0.4-1.7-0.5-2.5-0.2l-11.5,4c0-0.1,0-0.2,0-0.3c0-1.8-1.5-3.3-3.3-3.3h-2.5
	c-1.9,0-3.8-0.6-5.4-1.7c-1.9-1.3-4.2-2-6.5-2h-5.3v-0.9c0-0.5-0.4-1-1-1h-8C6.1,33.7,5.7,34.2,5.7,34.7z M15.6,37.6h5.3
	c1.9,0,3.8,0.6,5.4,1.7c1.9,1.3,4.2,2,6.5,2h2.5c0.8,0,1.4,0.6,1.4,1.4c0,0.6-0.3,1-0.8,1.3L35.6,44c-0.1,0-0.2,0-0.3,0h-8.5
	c-0.5,0-1,0.4-1,1c0,0.5,0.4,1,1,1h8.5c0.3,0,0.5,0,0.8-0.1c0,0,0,0,0.1,0l0.3-0.1c0.1,0,0.1,0,0.2-0.1l14.1-4.9
	c0.3-0.1,0.7-0.1,1,0.1c0.3,0.2,0.5,0.4,0.6,0.8c0.1,0.6-0.1,1.1-0.6,1.4l-16,7.5l-20.1-1.9V37.6z M7.6,35.7h6v14.9h-6V35.7z"/>
<path d="M38.5,7.5c-7.5,0-13.6,6.1-13.6,13.6S31,34.7,38.5,34.7c7.5,0,13.6-6.1,13.6-13.6S46,7.5,38.5,7.5z M38.5,32.8
	c-6.4,0-11.7-5.2-11.7-11.7S32.1,9.4,38.5,9.4c6.4,0,11.7,5.2,11.7,11.7S44.9,32.8,38.5,32.8z"/>
<path d="M38.6,12.5c-1.4,0-2.7,0.5-3.7,1.5c-1,1-1.5,2.3-1.5,3.7c0,0.5,0.4,1,1,1s1-0.4,1-1c0-0.9,0.3-1.7,1-2.3
	c0.6-0.6,1.4-1,2.3-0.9c1.7,0,3.2,1.5,3.2,3.2c0,1.3-0.8,2.5-2,3c-1.3,0.5-2.2,1.9-2.2,3.4v1.6c0,0.5,0.4,1,1,1c0.5,0,1-0.4,1-1
	v-1.6c0-0.7,0.4-1.3,1-1.6c2-0.8,3.2-2.7,3.2-4.9C43.7,14.9,41.4,12.6,38.6,12.5z"/>
<path d="M38.3,27.8c-0.1,0-0.1,0-0.2,0.1c-0.1,0-0.1,0-0.2,0.1c-0.1,0-0.1,0.1-0.1,0.1c-0.2,0.2-0.3,0.4-0.3,0.7
	c0,0.1,0,0.3,0.1,0.4c0,0.1,0.1,0.2,0.2,0.3c0,0,0.1,0.1,0.1,0.1c0,0,0.1,0.1,0.2,0.1c0.1,0,0.1,0,0.2,0c0.1,0,0.1,0,0.2,0
	c0.3,0,0.5-0.1,0.7-0.3c0.1-0.1,0.2-0.2,0.2-0.3c0-0.1,0.1-0.2,0.1-0.4c0-0.3-0.1-0.5-0.3-0.7C39,27.8,38.6,27.7,38.3,27.8z"/>
</svg>
