<?xml version="1.0" encoding="utf-8"?>
<!-- Generator: Adobe Illustrator 25.4.1, SVG Export Plug-In . SVG Version: 6.00 Build 0)  -->
<svg version="1.1" id="Layer_1" xmlns="http://www.w3.org/2000/svg" xmlns:xlink="http://www.w3.org/1999/xlink" x="0px" y="0px"
	 viewBox="0 0 10 12.5" style="enable-background:new 0 0 10 12.5;" xml:space="preserve">
<g>
	<path d="M6.2,3.2V1.2c0.1,0,0.1-0.1,0.1-0.2V0.7c0-0.1-0.1-0.2-0.2-0.2H3.8c-0.1,0-0.2,0.1-0.2,0.2v0.4c0,0.1,0.1,0.1,0.1,0.2v1.9
		c-0.6,0-1.1,0.5-1.1,1.1v3.5c0,0.5,0.3,0.9,0.8,1v0.2c0,0.2,0.2,0.4,0.4,0.4c0.2,0,0.4-0.2,0.4-0.4V8.9h1.5v0.1
		c0,0.2,0.2,0.4,0.4,0.4s0.4-0.2,0.4-0.4V8.8c0.4-0.1,0.8-0.6,0.8-1V4.3C7.3,3.7,6.8,3.2,6.2,3.2z M5.9,1.2v1.9H4.1V1.2H5.9z
		 M3.9,0.8h2.1v0.1H3.9V0.8z M7,7.8c0,0.3-0.2,0.6-0.5,0.7c-0.1,0-0.2,0.1-0.3,0.1h0c0,0,0,0,0,0c0,0,0,0,0,0H5.8H4.2H3.9
		c0,0,0,0,0,0c0,0,0,0,0,0h0c-0.1,0-0.2,0-0.3-0.1C3.2,8.4,3,8.1,3,7.8V4.3c0-0.4,0.4-0.8,0.8-0.8h2.4C6.7,3.5,7,3.8,7,4.3V7.8z"/>
	<path d="M6.2,3.7H3.8c-0.3,0-0.5,0.2-0.5,0.5v2.8h0.3V4.1C3.6,4,3.7,4,3.8,4h2.5C6.3,4,6.4,4,6.4,4.1v2.8h0.3V4.1
		C6.7,3.9,6.5,3.7,6.2,3.7z"/>
	<path d="M4.2,7.7h1.5V6.5H4.2V7.7z M4.6,6.8h0.9v0.6H4.6V6.8z"/>
</g>
</svg>
