<?xml version="1.0" encoding="utf-8"?>
<!-- Generator: Adobe Illustrator 25.4.1, SVG Export Plug-In . SVG Version: 6.00 Build 0)  -->
<svg version="1.1" id="Layer_1" xmlns="http://www.w3.org/2000/svg" xmlns:xlink="http://www.w3.org/1999/xlink" x="0px" y="0px"
	 viewBox="0 0 62 77.5" style="enable-background:new 0 0 62 77.5;" xml:space="preserve">
<g>
	<path d="M62,13c0-7.2-5.8-13-13-13S36,5.8,36,13c0,1,0.1,2,0.4,3H29c-1.6,0-3.1,0.8-4,2c-0.9-1.2-2.4-2-4-2H4v4H0v38h21
		c0,2.2,1.8,4,4,4s4-1.8,4-4h21V35.8c1.2-0.3,2.2-1.3,2.5-2.5l2.5-8.9C59.2,22.3,62,18,62,13z M29,18h8c1.2,2.8,3.3,5.1,6,6.5l1,3.6
		V52H29.8c-1.3,0-2.7,0.4-3.8,1V21C26,19.3,27.3,18,29,18z M48,33.7c-0.3-0.2-0.5-0.5-0.6-0.9l-2.1-7.3c0.9,0.3,1.8,0.4,2.7,0.5
		V33.7z M6,18h15c1.7,0,3,1.3,3,3v32c-1.2-0.7-2.5-1-3.8-1H6V18z M27,56v2c0,1.1-0.9,2-2,2s-2-0.9-2-2v-2H2V22h2v32h16.2
		c1.5,0,3,0.6,4.1,1.7l0.7,0.7l0.7-0.7c1.1-1.1,2.6-1.7,4.1-1.7H46V34.4c0.5,0.7,1.2,1.2,2,1.4V56H27z M50.6,32.8
		c-0.1,0.3-0.3,0.6-0.6,0.9v-7.7c0.9-0.1,1.8-0.2,2.7-0.5L50.6,32.8z M49,24c-6.1,0-11-4.9-11-11S42.9,2,49,2s11,4.9,11,11
		S55.1,24,49,24z"/>
	<path d="M49,4c-5,0-9,4-9,9s4,9,9,9s9-4,9-9S54,4,49,4z M49,20c-3.9,0-7-3.1-7-7s3.1-7,7-7s7,3.1,7,7S52.9,20,49,20z"/>
	<path d="M32,36h10V26h-4v-6H28v10h4V36z M40,28v6h-6v-4h4v-2H40z M30,22h6v6h-6V22z"/>
	<rect x="28" y="40" width="2" height="2"/>
	<rect x="32" y="40" width="10" height="2"/>
	<rect x="28" y="44" width="14" height="2"/>
	<rect x="28" y="48" width="14" height="2"/>
	<path d="M19.2,21.7C19,20.7,18,20,17,20s-2,0.7-2.2,1.7L14,24.2c-0.3-0.1-0.5-0.2-0.8-0.2h-0.3c-0.9,0-1.7,0.5-2.1,1.3L7.4,32h15
		L19.2,21.7z M10.6,30l1.9-3.8c0.1-0.1,0.2-0.2,0.3-0.2h0.3c0.1,0,0.2,0.1,0.3,0.2l1.9,3.8H10.6z M15.6,25.9l1.1-3.7
		c0.1-0.3,0.6-0.3,0.7,0l2.3,7.8h-2L15.6,25.9z"/>
	<path d="M22,40h-8v10h8V40z M20,48h-4v-6h4V48z"/>
	<rect x="8" y="48" width="4" height="2"/>
	<rect x="8" y="44" width="4" height="2"/>
	<rect x="8" y="40" width="4" height="2"/>
	<rect x="8" y="36" width="14" height="2"/>
</g>
</svg>
