<?xml version="1.0" encoding="utf-8"?>
<!-- Generator: Adobe Illustrator 26.0.0, SVG Export Plug-In . SVG Version: 6.00 Build 0)  -->
<svg version="1.1" id="Layer_1" xmlns="http://www.w3.org/2000/svg" xmlns:xlink="http://www.w3.org/1999/xlink" x="0px" y="0px"
	 viewBox="0 0 100 125" style="enable-background:new 0 0 100 125;" xml:space="preserve">
<style type="text/css">
	.st0{fill:#FFFFFF;}
</style>
<g>
	<path class="st0" d="M12,43.1c-0.8-0.4-1.7-0.8-2.4-1c-0.4-0.1-0.9,0.2-1,0.6c-0.1,0.4,0.2,0.9,0.6,1c0.7,0.2,1.3,0.4,2.1,0.9
		c0.1,0.1,0.3,0.1,0.4,0.1c0.3,0,0.6-0.2,0.8-0.4C12.5,43.8,12.5,43.3,12,43.1z"/>
	<g>
		<path class="st0" d="M68.5,22.3c-7.3-3.1-15.4-0.3-19.8,6l-5.2-13.2c-0.1-0.2-0.3-0.3-0.4-0.4c-0.2-0.1-0.4-0.1-0.7,0L12.3,27
			c-0.2,0.1-0.3,0.3-0.4,0.4c-0.1,0.2-0.1,0.4,0,0.7l22.9,58.5c0.2,0.3,0.4,0.5,0.8,0.5c0.1,0,0.3,0,0.3-0.1L66,74.6
			c0.2-0.1,0.3-0.3,0.4-0.4s0.1-0.4,0-0.7l-7.4-19c1.1,0.3,2.2,0.3,3.2,0.3c6.5,0,12.6-3.9,15.3-10.5c1.7-4.2,1.7-8.7,0-13
			C75.7,27.3,72.5,24,68.5,22.3z M42.3,16.5l5.3,13.6c-0.3,0.4-0.4,0.9-0.7,1.4c-1.5,3.7-1.6,7.5-0.6,11.1c-2.3,1-10,5.1-9.8,14.3
			c0,0.3,0,0.4,0,0.7l-0.6-0.6c-0.3-0.3-0.8-0.3-1.2,0s-0.3,0.9,0,1.2l1.6,1.6c-0.8,6.1-4,10.5-5.6,12.2l-7.9-20.3
			c0.1,0,0.2-0.1,0.3-0.1c0.4-0.1,0.8-0.5,0.7-1c-0.1-0.4-0.5-0.8-1-0.7c-0.2,0-0.3,0.1-0.6,0.2l-8.5-21.9L42.3,16.5z M57,54
			l3.3,8.6c-0.2,0.1-0.3,0.2-0.4,0.3c-0.4,0.3-0.5,0.8-0.3,1.2c0.2,0.3,0.4,0.4,0.7,0.4c0.2,0,0.3,0,0.4-0.2
			c0.1-0.1,0.2-0.1,0.2-0.2l3.6,9.2L36.1,85.2l-4.4-11.3c1.6-1.6,6.9-7.7,6.7-17c-0.2-8.1,6.5-11.7,8.7-12.6c1.6,4.1,4.8,7.5,9,9.3
			C56.3,53.8,56.7,53.8,57,54L57,54z M75.9,43.7c-3.1,7.7-11.8,11.5-19.3,8.2c-7.5-3.2-11.2-12.1-8-19.8c2.3-5.8,7.8-9.4,13.7-9.4
			c1.8,0,3.8,0.3,5.6,1.1C75.4,27.1,79,36,75.9,43.7z"/>
		<path class="st0" d="M67.4,25.2c-3.3-1.4-7-1.4-10.3,0c-3.3,1.5-5.9,4.1-7.3,7.5c-2.8,7,0.5,15.1,7.3,18c1.7,0.7,3.4,1,5.1,1
			c1.8,0,3.5-0.3,5.2-1c3.3-1.5,5.9-4.1,7.3-7.5C77.5,36.2,74.2,28.1,67.4,25.2z M73.1,42.5c-1.2,3-3.4,5.3-6.3,6.6
			c-2.9,1.2-6.1,1.3-9,0c-6-2.6-8.9-9.6-6.4-15.8c1.8-4.6,6.3-7.5,10.9-7.5c1.5,0,3,0.3,4.4,0.9C72.7,29.3,75.6,36.4,73.1,42.5z"/>
		<path class="st0" d="M68.6,40.6c-0.2,0.4,0,0.9,0.4,1.1l2.2,0.9c0.1,0.1,0.3,0.1,0.3,0.1c0.3,0,0.7-0.2,0.8-0.5
			c0.2-0.4,0-0.9-0.4-1.1l-2.2-0.9C69.3,40,68.8,40.1,68.6,40.6z"/>
		<path class="st0" d="M55.2,35.8c0.3,0,0.7-0.2,0.8-0.5c0.2-0.4,0-0.9-0.4-1.1l-2.2-0.9c-0.4-0.2-0.9,0-1.1,0.4
			c-0.2,0.4,0,0.9,0.4,1.1l2.2,0.9C54.9,35.8,55.1,35.8,55.2,35.8z"/>
		<path class="st0" d="M65.1,31.5c0.1,0.1,0.3,0.1,0.3,0.1c0.3,0,0.7-0.2,0.8-0.5l0.9-2.2c0.2-0.4,0-0.9-0.4-1.1
			c-0.4-0.2-0.9,0-1.1,0.4l-0.9,2.2C64.4,30.8,64.7,31.3,65.1,31.5z"/>
		<path class="st0" d="M59.9,44.5c-0.4-0.2-0.9,0-1.1,0.4l-0.9,2.2c-0.2,0.4,0,0.9,0.4,1.1c0.1,0.1,0.3,0.1,0.3,0.1
			c0.3,0,0.7-0.2,0.8-0.5l0.9-2.2C60.5,45.2,60.3,44.7,59.9,44.5z"/>
		<path class="st0" d="M31.3,35.2L31.3,35.2c0.4,0,0.8-0.2,1.2-0.5c0.3-0.3,0.5-0.7,0.5-1.2s-0.2-0.9-0.5-1.2
			c-0.3-0.3-0.7-0.5-1.2-0.5c-0.4,0-0.8,0.2-1.2,0.5c-0.3,0.3-0.5,0.7-0.5,1.2l0,0C29.7,34.5,30.4,35.2,31.3,35.2z M31.3,33.4
			C31.4,33.4,31.4,33.5,31.3,33.4L31.3,33.4C31.3,33.5,31.3,33.4,31.3,33.4z"/>
		<path class="st0" d="M34.9,44.4c0.2,0.1,0.3,0.1,0.4,0.1c0.1,0,0.3,0,0.3-0.1c0.3-0.1,0.4-0.3,0.5-0.6c0.3-1,2.6-9.9,1.3-13.1
			c-1.3-3.5-5.3-5.2-8.7-3.8c-3.4,1.4-5.1,5.4-3.7,8.9C26.3,39.1,34,43.9,34.9,44.4z M29.4,28.5c0.6-0.3,1.3-0.3,1.8-0.3
			c2,0,3.8,1.2,4.7,3.3c0.8,2.1-0.3,7.8-1.1,10.9c-2.7-1.7-7.3-5.1-8.2-7.1C25.5,32.6,26.8,29.6,29.4,28.5z"/>
		<path class="st0" d="M54.4,66.3c0.1,0.3,0.4,0.6,0.8,0.6c0.1,0,0.2,0,0.3,0c0.8-0.3,1.6-0.5,2.3-0.9c0.4-0.2,0.6-0.7,0.4-1.1
			c-0.2-0.4-0.7-0.6-1.1-0.4c-0.8,0.3-1.5,0.6-2.2,0.9C54.5,65.4,54.3,65.9,54.4,66.3z"/>
		<path class="st0" d="M51.9,65.9c-0.8,0.1-1.5,0.1-2.3,0.1c-0.5,0-0.8,0.3-0.9,0.8c0,0.5,0.3,0.9,0.8,0.9c0.3,0,0.7,0,1,0
			c0.5,0,1.1,0,1.6-0.1c0.4-0.1,0.8-0.4,0.8-0.9C52.8,66.2,52.4,65.9,51.9,65.9z"/>
		<path class="st0" d="M46.7,65.3c-0.5-0.2-0.9-0.3-1.4-0.6c-0.3-0.1-0.5-0.3-0.8-0.3c-0.4-0.3-0.9-0.1-1.2,0.3s-0.1,0.9,0.3,1.2
			c0.3,0.2,0.5,0.3,0.8,0.4c0.5,0.3,1,0.4,1.6,0.6c0.1,0,0.2,0,0.3,0c0.3,0,0.7-0.3,0.8-0.6C47.3,65.9,47.1,65.5,46.7,65.3z"/>
		<path class="st0" d="M40.1,61.1c-0.3-0.3-0.8-0.3-1.2,0.1s-0.3,0.9,0.1,1.2c0.7,0.6,1.3,1.1,1.9,1.6c0.2,0.1,0.3,0.2,0.5,0.2
			c0.3,0,0.5-0.1,0.7-0.3c0.3-0.3,0.3-0.9-0.2-1.2C41.4,62.2,40.8,61.7,40.1,61.1z"/>
		<path class="st0" d="M31.8,53.2c-0.3-0.3-0.9-0.3-1.2,0.2c-0.3,0.3-0.3,0.9,0.2,1.2c0.6,0.4,1.2,0.9,1.8,1.5
			c0.2,0.2,0.3,0.3,0.6,0.3s0.4-0.1,0.6-0.3c0.3-0.3,0.3-0.9-0.1-1.2C33,54.1,32.4,53.6,31.8,53.2z"/>
		<path class="st0" d="M68.1,32c-0.4-0.2-0.9,0.1-1.1,0.5s0.1,0.9,0.5,1.1l1.1,0.4l-5.3,2.4c-0.1,0-0.2-0.1-0.2-0.1
			c-0.4-0.2-0.8-0.2-1.3,0c-0.4,0.2-0.7,0.5-0.8,0.9l0,0c0,0.1-0.1,0.2-0.1,0.3l-7.8,3.4c-0.4,0.2-0.6,0.7-0.4,1.1
			c0.2,0.3,0.4,0.5,0.8,0.5c0.1,0,0.3,0,0.3-0.1l7.7-3.5c0.1,0.1,0.3,0.2,0.4,0.3c0.2,0.1,0.4,0.1,0.6,0.1c0.7,0,1.3-0.4,1.5-1
			c0.1-0.2,0.1-0.3,0.1-0.5l5.4-2.5l-0.4,1.4c-0.1,0.4,0.2,0.9,0.6,1c0.4,0.1,0.9-0.2,1-0.6l0.8-3.1c0.1-0.3,0-0.7-0.3-0.9
			c-0.2-0.1-0.3-0.2-0.5-0.2L68.1,32z"/>
	</g>
	<g>
		<path class="st0" d="M5,94.7c0-0.6,0-1.1,0-1.5c0-0.4,0-0.9-0.1-1.3c0.1,0,0.2,0,0.4,0c0.1,0,0.3,0,0.5,0c0.2,0,0.5,0,0.7,0
			c0.3,0,0.6,0,1.1,0c0.6,0,1.1,0.1,1.6,0.2s0.9,0.3,1.2,0.5c0.3,0.3,0.6,0.6,0.8,1c0.2,0.4,0.3,1,0.3,1.6c0,0.6-0.1,1.1-0.3,1.5
			s-0.4,0.9-0.8,1.2c-0.3,0.3-0.7,0.6-1.1,0.7C8.8,98.9,8.4,99,7.9,99c-0.5,0-0.9,0-1.3,0c-0.4,0-0.7,0-0.9,0c-0.2,0-0.3,0-0.5,0
			s-0.3,0-0.4,0c0-0.4,0-0.9,0.1-1.3c0-0.4,0-0.9,0-1.5V94.7z M6.4,96.9v0.6c0,0.2,0,0.4,0,0.5c0,0.2,0,0.3,0,0.3c0.1,0,0.2,0,0.4,0
			c0.1,0,0.3,0,0.5,0c0.8,0,1.4-0.3,1.8-0.8c0.4-0.5,0.7-1.3,0.7-2.4c0-0.4-0.1-0.8-0.2-1.1s-0.3-0.6-0.5-0.9s-0.4-0.4-0.7-0.5
			c-0.3-0.1-0.6-0.2-0.9-0.2c-0.2,0-0.4,0-0.6,0c-0.2,0-0.3,0-0.5,0c0,0,0,0.2,0,0.3c0,0.2,0,0.3,0,0.6V94v0.5v1.8V96.9z"/>
		<path class="st0" d="M13.7,96.5c0,0.3,0,0.5,0.1,0.8s0.1,0.4,0.2,0.6c0.1,0.2,0.2,0.3,0.4,0.4c0.2,0.1,0.4,0.1,0.6,0.1
			c0.5,0,0.9-0.2,1.2-0.5l0.1,0.1l-0.2,0.6c-0.2,0.1-0.4,0.2-0.6,0.3c-0.2,0.1-0.5,0.1-0.9,0.1c-0.3,0-0.6,0-0.9-0.1
			s-0.6-0.2-0.8-0.5c-0.2-0.2-0.4-0.5-0.5-0.8c-0.1-0.3-0.2-0.7-0.2-1.2c0-0.4,0.1-0.8,0.2-1.2c0.1-0.3,0.3-0.6,0.5-0.8
			s0.5-0.4,0.7-0.5c0.3-0.1,0.6-0.2,0.9-0.2c0.7,0,1.2,0.2,1.5,0.6c0.4,0.4,0.5,1,0.5,1.7v0.2c0,0.1,0,0.1,0,0.1H13.7z M15.2,96
			c0-0.5-0.1-0.9-0.2-1.2s-0.3-0.5-0.6-0.5c-0.1,0-0.3,0.1-0.4,0.2c-0.1,0.1-0.2,0.2-0.2,0.4c-0.1,0.2-0.1,0.3-0.1,0.5
			c0,0.2,0,0.4-0.1,0.6H15.2z"/>
		<path class="st0" d="M17.7,98c0.1,0.1,0.1,0.2,0.2,0.3c0.1,0.1,0.2,0.1,0.3,0.2c0.1,0,0.3,0.1,0.5,0.1c0.2,0,0.4-0.1,0.5-0.2
			c0.1-0.1,0.2-0.3,0.2-0.4c0-0.2-0.1-0.3-0.2-0.4c-0.1-0.1-0.3-0.2-0.4-0.3c-0.2-0.1-0.4-0.2-0.6-0.2c-0.2-0.1-0.4-0.2-0.6-0.3
			c-0.2-0.1-0.3-0.3-0.4-0.5c-0.1-0.2-0.2-0.4-0.2-0.7c0-0.3,0.1-0.5,0.2-0.7c0.1-0.2,0.2-0.4,0.4-0.5s0.4-0.2,0.6-0.3
			c0.2-0.1,0.4-0.1,0.6-0.1c0.3,0,0.5,0,0.7,0.1s0.4,0.2,0.7,0.4c-0.1,0.1-0.1,0.3-0.1,0.4c0,0.2-0.1,0.3-0.1,0.5h-0.3
			c0-0.1-0.1-0.2-0.1-0.3s-0.1-0.2-0.2-0.3c-0.1-0.1-0.2-0.2-0.3-0.2s-0.3-0.1-0.4-0.1c-0.2,0-0.4,0.1-0.5,0.2s-0.2,0.3-0.2,0.4
			c0,0.2,0.1,0.3,0.2,0.4c0.1,0.1,0.3,0.2,0.4,0.3s0.4,0.2,0.6,0.2c0.2,0.1,0.4,0.2,0.6,0.3s0.3,0.3,0.4,0.5
			c0.1,0.2,0.2,0.4,0.2,0.7c0,0.3-0.1,0.6-0.2,0.8c-0.1,0.2-0.3,0.4-0.4,0.5c-0.2,0.1-0.4,0.2-0.6,0.3s-0.5,0.1-0.7,0.1
			c-0.3,0-0.6,0-0.8-0.1s-0.4-0.2-0.6-0.3c0.1-0.3,0.1-0.7,0.2-1h0.3C17.6,97.8,17.7,97.9,17.7,98z"/>
		<path class="st0" d="M23.9,94.3c0,0.1,0,0.2,0,0.3l-0.9,0c0,0.2,0,0.3,0,0.5s0,0.4,0,0.6c0,0.2,0,0.4,0,0.6c0,0.2,0,0.4,0,0.5
			c0,0.4,0,0.6,0,0.9s0,0.4,0.1,0.5c0,0.1,0.1,0.2,0.2,0.2c0.1,0,0.2,0.1,0.3,0.1c0.1,0,0.2,0,0.3,0c0.1,0,0.1,0,0.2-0.1v0.4
			c-0.1,0.1-0.3,0.1-0.5,0.2c-0.2,0-0.4,0.1-0.6,0.1c-0.8,0-1.3-0.5-1.3-1.6c0-0.2,0-0.4,0-0.7c0-0.3,0-0.5,0-0.8c0-0.3,0-0.5,0-0.8
			c0-0.3,0-0.5,0-0.7l-0.7,0c0-0.1,0-0.2,0-0.3c0-0.1,0-0.2,0-0.3l0.7,0c0-0.2,0-0.4,0-0.6c0-0.2,0-0.4,0-0.7
			c0.2-0.1,0.5-0.2,0.7-0.3c0.2-0.1,0.5-0.2,0.7-0.3l0.1,0.1c0,0.1,0,0.2,0,0.4c0,0.1,0,0.3,0,0.5c0,0.2,0,0.3,0,0.5
			c0,0.2,0,0.3,0,0.5l0.9,0C23.9,94.2,23.9,94.3,23.9,94.3z"/>
		<path class="st0" d="M24.7,92.1c0-0.2,0.1-0.4,0.2-0.6c0.2-0.2,0.3-0.2,0.6-0.2c0.2,0,0.4,0.1,0.6,0.2c0.2,0.2,0.2,0.3,0.2,0.6
			s-0.1,0.4-0.2,0.6c-0.2,0.2-0.3,0.2-0.6,0.2c-0.2,0-0.4-0.1-0.6-0.2C24.8,92.5,24.7,92.3,24.7,92.1z M24.8,96.3c0-0.4,0-0.8,0-1.2
			c0-0.4,0-0.7-0.1-1.1c0.1,0,0.2,0,0.3,0c0.1,0,0.3,0,0.4,0c0.3,0,0.6,0,0.8-0.1c0,0.4-0.1,0.7-0.1,1.1s0,0.8,0,1.2v0.4
			c0,0.4,0,0.8,0,1.2s0,0.7,0.1,1.1c-0.1,0-0.2,0-0.3,0c-0.1,0-0.3,0-0.4,0c-0.2,0-0.3,0-0.4,0s-0.2,0-0.3,0c0-0.3,0.1-0.7,0.1-1.1
			c0-0.4,0-0.8,0-1.2V96.3z"/>
		<path class="st0" d="M28.8,94.8c0.2-0.3,0.4-0.5,0.7-0.7c0.2-0.2,0.5-0.2,0.9-0.2c0.5,0,0.9,0.1,1.2,0.4c0.3,0.3,0.4,0.8,0.4,1.4
			c0,0.3,0,0.7,0,0.9s0,0.5,0,0.8c0,0.2,0,0.5,0,0.7s0,0.5,0,0.7c-0.1,0-0.2,0-0.3,0s-0.3,0-0.4,0c-0.1,0-0.3,0-0.4,0s-0.2,0-0.3,0
			c0-0.4,0.1-0.8,0.1-1.3s0-1,0-1.7c0-0.4-0.1-0.8-0.2-1s-0.3-0.3-0.6-0.3c-0.3,0-0.5,0.1-0.7,0.4c-0.1,0.3-0.2,0.6-0.2,1.1v0.4
			c0,0.4,0,0.8,0,1.2s0,0.7,0.1,1.1c-0.1,0-0.2,0-0.3,0c-0.1,0-0.3,0-0.4,0c-0.2,0-0.3,0-0.4,0c-0.1,0-0.2,0-0.3,0
			c0-0.3,0.1-0.7,0.1-1.1c0-0.4,0-0.8,0-1.2v-0.4c0-0.4,0-0.8,0-1.2c0-0.4,0-0.7-0.1-1.1c0.1,0,0.2,0,0.4,0c0.1,0,0.2,0,0.4,0
			c0.1,0,0.2,0,0.4,0c0.1,0,0.2,0,0.4,0L28.8,94.8L28.8,94.8z"/>
		<path class="st0" d="M33,94.6c0.3-0.2,0.6-0.4,0.9-0.5c0.3-0.1,0.6-0.2,1-0.2c0.3,0,0.5,0,0.7,0.1c0.2,0.1,0.4,0.2,0.6,0.3
			c0.2,0.1,0.3,0.3,0.4,0.5c0.1,0.2,0.1,0.5,0.1,0.8c0,0.4,0,0.8,0,1.2c0,0.4,0,0.7,0,1.1c0,0.2,0,0.3,0,0.4s0.1,0.2,0.1,0.2
			c0,0,0.1,0.1,0.2,0.1c0.1,0,0.2,0,0.3,0v0.2C37.1,98.9,37,99,36.8,99s-0.3,0.1-0.4,0.1c-0.2,0-0.4-0.1-0.6-0.2
			c-0.2-0.1-0.3-0.3-0.4-0.5c-0.2,0.2-0.3,0.4-0.5,0.5c-0.2,0.1-0.5,0.2-0.8,0.2c-0.3,0-0.5,0-0.7-0.1c-0.2-0.1-0.3-0.2-0.4-0.3
			s-0.2-0.3-0.3-0.4c-0.1-0.2-0.1-0.3-0.1-0.5c0-0.2,0-0.4,0.1-0.6c0.1-0.2,0.2-0.3,0.3-0.4c0.1-0.1,0.3-0.2,0.5-0.3
			s0.4-0.1,0.6-0.2c0.3-0.1,0.5-0.1,0.7-0.2s0.3-0.1,0.4-0.2c0.1-0.1,0.1-0.1,0.2-0.2c0-0.1,0-0.1,0-0.2c0-0.2-0.1-0.5-0.3-0.6
			c-0.2-0.2-0.4-0.3-0.7-0.3c-0.1,0-0.2,0-0.4,0c-0.1,0-0.2,0.1-0.3,0.1c-0.1,0.1-0.2,0.1-0.3,0.2c-0.1,0.1-0.2,0.1-0.2,0.2h-0.1
			L33,94.6z M35.4,97.4c0-0.3,0-0.5,0-0.7c0-0.2,0-0.3,0-0.4c-0.1,0.1-0.3,0.1-0.4,0.2c-0.2,0.1-0.3,0.1-0.4,0.2
			c-0.1,0.1-0.2,0.2-0.3,0.3c-0.1,0.1-0.1,0.3-0.1,0.6c0,0.3,0.1,0.4,0.2,0.6s0.2,0.2,0.4,0.2c0.2,0,0.4-0.1,0.5-0.3
			C35.3,98,35.4,97.7,35.4,97.4z"/>
		<path class="st0" d="M40.6,94.3c0,0.1,0,0.2,0,0.3l-0.9,0c0,0.2,0,0.3,0,0.5s0,0.4,0,0.6c0,0.2,0,0.4,0,0.6c0,0.2,0,0.4,0,0.5
			c0,0.4,0,0.6,0,0.9s0,0.4,0.1,0.5c0,0.1,0.1,0.2,0.2,0.2c0.1,0,0.2,0.1,0.3,0.1c0.1,0,0.2,0,0.3,0c0.1,0,0.1,0,0.2-0.1v0.4
			c-0.1,0.1-0.3,0.1-0.5,0.2c-0.2,0-0.4,0.1-0.6,0.1c-0.8,0-1.3-0.5-1.3-1.6c0-0.2,0-0.4,0-0.7c0-0.3,0-0.5,0-0.8c0-0.3,0-0.5,0-0.8
			c0-0.3,0-0.5,0-0.7l-0.7,0c0-0.1,0-0.2,0-0.3c0-0.1,0-0.2,0-0.3l0.7,0c0-0.2,0-0.4,0-0.6c0-0.2,0-0.4,0-0.7
			c0.2-0.1,0.5-0.2,0.7-0.3c0.2-0.1,0.5-0.2,0.7-0.3l0.1,0.1c0,0.1,0,0.2,0,0.4c0,0.1,0,0.3,0,0.5c0,0.2,0,0.3,0,0.5
			c0,0.2,0,0.3,0,0.5l0.9,0C40.6,94.2,40.6,94.3,40.6,94.3z"/>
		<path class="st0" d="M41.4,92.1c0-0.2,0.1-0.4,0.2-0.6c0.2-0.2,0.3-0.2,0.6-0.2c0.2,0,0.4,0.1,0.6,0.2c0.2,0.2,0.2,0.3,0.2,0.6
			s-0.1,0.4-0.2,0.6c-0.2,0.2-0.3,0.2-0.6,0.2c-0.2,0-0.4-0.1-0.6-0.2C41.5,92.5,41.4,92.3,41.4,92.1z M41.5,96.3c0-0.4,0-0.8,0-1.2
			c0-0.4,0-0.7-0.1-1.1c0.1,0,0.2,0,0.3,0c0.1,0,0.3,0,0.4,0c0.3,0,0.6,0,0.8-0.1c0,0.4-0.1,0.7-0.1,1.1s0,0.8,0,1.2v0.4
			c0,0.4,0,0.8,0,1.2s0,0.7,0.1,1.1c-0.1,0-0.2,0-0.3,0c-0.1,0-0.3,0-0.4,0c-0.2,0-0.3,0-0.4,0s-0.2,0-0.3,0c0-0.3,0.1-0.7,0.1-1.1
			c0-0.4,0-0.8,0-1.2V96.3z"/>
		<path class="st0" d="M43.9,96.6c0-0.5,0.1-0.9,0.2-1.2c0.1-0.3,0.3-0.6,0.5-0.9c0.2-0.2,0.5-0.4,0.8-0.5c0.3-0.1,0.6-0.2,0.9-0.2
			c0.8,0,1.4,0.2,1.8,0.7c0.4,0.5,0.6,1.1,0.6,1.8c0,0.4-0.1,0.8-0.2,1.1s-0.3,0.6-0.5,0.9c-0.2,0.2-0.5,0.4-0.8,0.5s-0.6,0.2-1,0.2
			c-0.3,0-0.6,0-0.9-0.1c-0.3-0.1-0.6-0.2-0.8-0.4s-0.4-0.5-0.6-0.8S43.9,97.1,43.9,96.6z M47.3,96.2c0-0.6-0.1-1.1-0.2-1.4
			c-0.1-0.3-0.4-0.5-0.7-0.5c-0.3,0-0.5,0.2-0.7,0.6c-0.2,0.4-0.3,1-0.3,1.7c0,0.3,0,0.6,0,0.8c0,0.2,0.1,0.5,0.2,0.6
			c0.1,0.2,0.2,0.3,0.3,0.4c0.1,0.1,0.3,0.2,0.5,0.2C47,98.7,47.3,97.8,47.3,96.2z"/>
		<path class="st0" d="M51.1,94.8c0.2-0.3,0.4-0.5,0.7-0.7c0.2-0.2,0.5-0.2,0.9-0.2c0.5,0,0.9,0.1,1.2,0.4c0.3,0.3,0.4,0.8,0.4,1.4
			c0,0.3,0,0.7,0,0.9c0,0.3,0,0.5,0,0.8c0,0.2,0,0.5,0,0.7c0,0.3,0,0.5,0,0.7c-0.1,0-0.2,0-0.3,0s-0.3,0-0.4,0c-0.1,0-0.3,0-0.4,0
			s-0.2,0-0.3,0c0-0.4,0.1-0.8,0.1-1.3c0-0.5,0-1,0-1.7c0-0.4-0.1-0.8-0.2-1s-0.3-0.3-0.6-0.3c-0.3,0-0.5,0.1-0.7,0.4
			c-0.1,0.3-0.2,0.6-0.2,1.1v0.4c0,0.4,0,0.8,0,1.2s0,0.7,0.1,1.1c-0.1,0-0.2,0-0.3,0c-0.1,0-0.3,0-0.4,0c-0.2,0-0.3,0-0.4,0
			c-0.1,0-0.2,0-0.3,0c0-0.3,0.1-0.7,0.1-1.1c0-0.4,0-0.8,0-1.2v-0.4c0-0.4,0-0.8,0-1.2c0-0.4,0-0.7-0.1-1.1c0.1,0,0.2,0,0.4,0
			c0.1,0,0.2,0,0.4,0c0.1,0,0.2,0,0.4,0c0.1,0,0.2,0,0.4,0L51.1,94.8L51.1,94.8z"/>
		<path class="st0" d="M57.9,95.4c0-0.5,0.1-1,0.3-1.4s0.4-0.8,0.8-1.2c0.3-0.3,0.7-0.6,1.2-0.8c0.5-0.2,1-0.3,1.6-0.3
			c0.5,0,1,0.1,1.5,0.2c0.5,0.2,0.9,0.4,1.2,0.7c0.3,0.3,0.6,0.7,0.8,1.1s0.3,1,0.3,1.6c0,0.5-0.1,1-0.3,1.4
			c-0.2,0.4-0.5,0.8-0.8,1.2s-0.7,0.6-1.2,0.8c-0.5,0.2-1,0.3-1.5,0.3c-0.5,0-1-0.1-1.5-0.2c-0.5-0.1-0.9-0.4-1.2-0.6
			c-0.3-0.3-0.6-0.7-0.8-1.1C58,96.6,57.9,96.1,57.9,95.4z M63.9,95.2c0-0.4-0.1-0.8-0.2-1.2c-0.1-0.4-0.3-0.7-0.4-0.9
			s-0.4-0.4-0.7-0.6s-0.6-0.2-0.9-0.2c-0.3,0-0.6,0.1-0.9,0.3c-0.3,0.2-0.5,0.4-0.7,0.7c-0.2,0.3-0.3,0.6-0.4,1s-0.1,0.8-0.1,1.2
			c0,0.5,0.1,1,0.2,1.4c0.1,0.4,0.3,0.7,0.5,0.9c0.2,0.2,0.4,0.4,0.7,0.5c0.3,0.1,0.5,0.2,0.8,0.2c0.3,0,0.6-0.1,0.9-0.2
			c0.3-0.1,0.5-0.3,0.7-0.6c0.2-0.3,0.4-0.6,0.5-1C63.8,96.3,63.9,95.8,63.9,95.2z"/>
		<path class="st0" d="M69.5,98.2c-0.2,0.3-0.4,0.5-0.7,0.7c-0.3,0.1-0.5,0.2-0.9,0.2c-0.5,0-0.9-0.1-1.2-0.4
			c-0.3-0.3-0.4-0.8-0.4-1.4c0-0.3,0-0.7,0-0.9c0-0.3,0-0.5,0-0.8c0-0.2,0-0.5,0-0.7c0-0.3,0-0.5,0-0.8c0.1,0,0.2,0,0.3,0
			c0.1,0,0.3,0,0.4,0c0.1,0,0.3,0,0.4,0c0.1,0,0.2,0,0.3,0c0,0.4-0.1,0.8-0.1,1.3c0,0.5,0,1,0,1.7c0,0.4,0.1,0.8,0.2,1
			c0.1,0.2,0.3,0.3,0.6,0.3c0.3,0,0.5-0.1,0.7-0.4c0.1-0.3,0.2-0.6,0.2-1.1v-0.4c0-0.4,0-0.8,0-1.2s0-0.7-0.1-1.1
			c0.2,0,0.4,0.1,0.8,0.1c0.2,0,0.3,0,0.4,0c0.1,0,0.2,0,0.3,0c0,0.4-0.1,0.7-0.1,1.1s0,0.8,0,1.2v0.4c0,0.4,0,0.8,0,1.2
			s0,0.7,0.1,1.1c-0.1,0-0.2,0-0.4,0c-0.1,0-0.2,0-0.4,0s-0.2,0-0.4,0c-0.1,0-0.2,0-0.4,0L69.5,98.2L69.5,98.2z"/>
		<path class="st0" d="M74.6,94.3c0,0.1,0,0.2,0,0.3l-0.9,0c0,0.2,0,0.3,0,0.5s0,0.4,0,0.6c0,0.2,0,0.4,0,0.6c0,0.2,0,0.4,0,0.5
			c0,0.4,0,0.6,0,0.9s0,0.4,0.1,0.5c0,0.1,0.1,0.2,0.2,0.2c0.1,0,0.2,0.1,0.3,0.1c0.1,0,0.2,0,0.3,0c0.1,0,0.1,0,0.2-0.1v0.4
			c-0.1,0.1-0.3,0.1-0.5,0.2s-0.4,0.1-0.6,0.1c-0.8,0-1.3-0.5-1.3-1.6c0-0.2,0-0.4,0-0.7c0-0.3,0-0.5,0-0.8c0-0.3,0-0.5,0-0.8
			c0-0.3,0-0.5,0-0.7l-0.7,0c0-0.1,0-0.2,0-0.3c0-0.1,0-0.2,0-0.3l0.7,0c0-0.2,0-0.4,0-0.6c0-0.2,0-0.4,0-0.7
			c0.2-0.1,0.5-0.2,0.7-0.3c0.2-0.1,0.5-0.2,0.7-0.3l0.1,0.1c0,0.1,0,0.2,0,0.4c0,0.1,0,0.3,0,0.5s0,0.3,0,0.5c0,0.2,0,0.3,0,0.5
			l0.9,0C74.6,94.2,74.6,94.3,74.6,94.3z"/>
		<path class="st0" d="M79.7,95.4c0,0.7,0,1.3,0,1.9s0,1.1,0.1,1.7c-0.1,0-0.2,0-0.3,0s-0.3,0-0.4,0c-0.1,0-0.3,0-0.4,0
			c-0.1,0-0.2,0-0.3,0c0,0,0-0.1,0-0.1s0-0.2,0-0.3c0-0.1,0-0.2,0-0.3c0-0.1,0-0.1,0-0.2l0,0c-0.1,0.3-0.3,0.5-0.5,0.7
			c-0.2,0.2-0.5,0.3-0.9,0.3c-0.3,0-0.6-0.1-0.9-0.2c-0.2-0.1-0.4-0.3-0.6-0.6s-0.3-0.5-0.3-0.8c-0.1-0.3-0.1-0.7-0.1-1
			c0-0.4,0-0.7,0.1-1c0.1-0.3,0.2-0.6,0.4-0.8c0.2-0.2,0.4-0.4,0.6-0.5c0.2-0.1,0.5-0.2,0.8-0.2c0.3,0,0.6,0.1,0.8,0.2
			c0.2,0.1,0.4,0.3,0.5,0.5h0c0-0.6,0-1.2,0-1.7c0-0.5,0-1.1-0.1-1.7c0.1,0,0.2,0,0.3,0c0.1,0,0.3,0,0.4,0c0.1,0,0.3,0,0.4,0
			c0.1,0,0.2,0,0.3,0c0,0.6,0,1.1-0.1,1.7s0,1.2,0,1.9V95.4z M76.6,96.6c0,0.3,0,0.6,0.1,0.9s0.1,0.4,0.2,0.6
			c0.1,0.1,0.2,0.3,0.3,0.3s0.2,0.1,0.3,0.1c0.3,0,0.5-0.2,0.7-0.5c0.2-0.3,0.3-0.8,0.3-1.6c0-0.6-0.1-1.1-0.3-1.4s-0.4-0.4-0.6-0.4
			c-0.1,0-0.2,0-0.3,0.1c-0.1,0.1-0.2,0.2-0.3,0.3s-0.2,0.4-0.2,0.6S76.6,96.2,76.6,96.6z"/>
		<path class="st0" d="M80.7,96.6c0-0.5,0.1-0.9,0.2-1.2c0.1-0.3,0.3-0.6,0.5-0.9c0.2-0.2,0.5-0.4,0.8-0.5c0.3-0.1,0.6-0.2,0.9-0.2
			c0.8,0,1.4,0.2,1.8,0.7c0.4,0.5,0.6,1.1,0.6,1.8c0,0.4-0.1,0.8-0.2,1.1s-0.3,0.6-0.5,0.9c-0.2,0.2-0.5,0.4-0.8,0.5s-0.6,0.2-1,0.2
			c-0.3,0-0.6,0-0.9-0.1c-0.3-0.1-0.6-0.2-0.8-0.4c-0.2-0.2-0.4-0.5-0.6-0.8S80.7,97.1,80.7,96.6z M84.1,96.2c0-0.6-0.1-1.1-0.2-1.4
			c-0.1-0.3-0.4-0.5-0.7-0.5c-0.3,0-0.5,0.2-0.7,0.6c-0.2,0.4-0.3,1-0.3,1.7c0,0.3,0,0.6,0,0.8s0.1,0.5,0.2,0.6
			c0.1,0.2,0.2,0.3,0.3,0.4c0.1,0.1,0.3,0.2,0.5,0.2C83.8,98.7,84.1,97.8,84.1,96.2z"/>
		<path class="st0" d="M86.2,96.6c0-0.5,0.1-0.9,0.2-1.2c0.1-0.3,0.3-0.6,0.5-0.9c0.2-0.2,0.5-0.4,0.8-0.5c0.3-0.1,0.6-0.2,0.9-0.2
			c0.8,0,1.4,0.2,1.8,0.7c0.4,0.5,0.6,1.1,0.6,1.8c0,0.4-0.1,0.8-0.2,1.1s-0.3,0.6-0.5,0.9c-0.2,0.2-0.5,0.4-0.8,0.5s-0.6,0.2-1,0.2
			c-0.3,0-0.6,0-0.9-0.1c-0.3-0.1-0.6-0.2-0.8-0.4c-0.2-0.2-0.4-0.5-0.6-0.8S86.2,97.1,86.2,96.6z M89.7,96.2c0-0.6-0.1-1.1-0.2-1.4
			c-0.1-0.3-0.4-0.5-0.7-0.5c-0.3,0-0.5,0.2-0.7,0.6c-0.2,0.4-0.3,1-0.3,1.7c0,0.3,0,0.6,0,0.8s0.1,0.5,0.2,0.6
			c0.1,0.2,0.2,0.3,0.3,0.4c0.1,0.1,0.3,0.2,0.5,0.2C89.3,98.7,89.7,97.8,89.7,96.2z"/>
		<path class="st0" d="M93.5,95.3c0.2-0.5,0.4-0.8,0.6-1s0.5-0.3,0.9-0.3c0,0,0.1,0,0.1,0c0,0,0,0,0.1,0c0,0.1,0,0.2,0,0.3
			c0,0.1,0,0.3,0,0.4V95c0,0.1,0,0.1,0,0.2s0,0.1,0,0.2L95,95.4c-0.1,0-0.1-0.1-0.2-0.1c-0.1,0-0.2,0-0.3,0c-0.3,0-0.5,0.1-0.7,0.3
			s-0.3,0.4-0.3,0.7v0.4c0,0.4,0,0.8,0,1.2s0,0.7,0.1,1.1c-0.1,0-0.2,0-0.3,0s-0.3,0-0.4,0s-0.3,0-0.4,0s-0.2,0-0.3,0
			c0-0.3,0.1-0.7,0.1-1.1c0-0.4,0-0.8,0-1.2v-0.4c0-0.4,0-0.8,0-1.2c0-0.4,0-0.7-0.1-1.1c0.1,0,0.2,0,0.3,0c0.1,0,0.2,0,0.3,0
			c0.1,0,0.2,0,0.3,0c0.1,0,0.2,0,0.3,0L93.5,95.3L93.5,95.3z"/>
	</g>
</g>
</svg>
