<?xml version="1.0" encoding="utf-8"?>
<!-- Generator: Adobe Illustrator 26.0.0, SVG Export Plug-In . SVG Version: 6.00 Build 0)  -->
<svg version="1.1" id="Layer_1" xmlns="http://www.w3.org/2000/svg" xmlns:xlink="http://www.w3.org/1999/xlink" x="0px" y="0px"
	 viewBox="0 0 100 125" style="enable-background:new 0 0 100 125;" xml:space="preserve">
<style type="text/css">
	.st0{fill:#FFFFFF;}
	.st1{fill:none;}
	.st2{font-family:'Optima-ExtraBlack';}
	.st3{font-size:13.6806px;}
</style>
<path class="st0" d="M75.5,10.7c-9.9-4.1-21.1-0.5-27,8L41.4,1.1c-0.1-0.2-0.3-0.5-0.6-0.6s-0.6-0.1-0.9,0L-1.2,17
	c-0.2,0.1-0.5,0.3-0.6,0.6c-0.1,0.2-0.1,0.6,0,0.9l31.2,77.8c0.2,0.5,0.6,0.7,1,0.7c0.1,0,0.3,0,0.5-0.1l41.2-16.5
	c0.2-0.1,0.5-0.3,0.6-0.6c0.1-0.2,0.1-0.6,0-0.9L62.5,53.6c1.5,0.3,3,0.5,4.3,0.5c8.9,0,17.2-5.2,20.9-13.9c2.3-5.6,2.3-11.6,0-17.2
	C85.3,17.3,81,13,75.5,10.7z M39.7,3.1L47,21.2c-0.3,0.6-0.6,1.3-0.9,1.8c-2.1,4.9-2.2,10-0.8,14.8c-3.1,1.4-13.7,6.7-13.3,19
	c0,0.3,0,0.6,0,0.9L31.2,57c-0.5-0.5-1.1-0.5-1.6,0c-0.5,0.5-0.5,1.1,0,1.6l2.2,2.2c-1,8.1-5.5,13.9-7.6,16.2l-10.8-27
	c0.1,0,0.2-0.1,0.3-0.1c0.6-0.1,1-0.7,0.9-1.4c-0.1-0.6-0.7-1-1.4-0.9c-0.2,0-0.5,0.1-0.8,0.2L0.7,18.7L39.7,3.1z M59.8,52.9
	l4.6,11.4c-0.2,0.1-0.3,0.2-0.6,0.5c-0.6,0.3-0.7,1-0.3,1.6c0.2,0.3,0.6,0.6,0.9,0.6c0.2,0,0.5,0,0.6-0.2c0.1-0.1,0.2-0.1,0.2-0.2
	l4.9,12.2L31.2,94.3l-6-15c2.2-2.2,9.5-10.3,9.1-22.6C34,45.8,43.1,41.2,46.1,39.9c2.2,5.5,6.5,10,12.3,12.4
	C58.9,52.6,59.3,52.7,59.8,52.9L59.8,52.9z M85.6,39.2c-4.2,10.3-16.1,15.3-26.3,10.9C49,45.9,43.9,34.1,48.3,23.8
	C51.5,16.1,59,11.3,67,11.3c2.5,0,5.1,0.5,7.6,1.5C84.9,17.1,89.9,29,85.6,39.2z"/>
<path class="st0" d="M73.9,14.6c-4.6-1.8-9.6-1.8-14,0c-4.6,1.9-8.1,5.5-9.9,9.9c-3.9,9.3,0.7,20.1,10,23.9c2.3,0.9,4.7,1.4,7,1.4
	c2.4,0,4.8-0.5,7.1-1.4c4.6-1.9,8.1-5.5,9.9-9.9C87.7,29.2,83.3,18.5,73.9,14.6z M81.8,37.6c-1.6,4-4.7,7.1-8.7,8.8
	c-4,1.6-8.3,1.7-12.3,0c-8.2-3.4-12.1-12.8-8.8-21c2.5-6.2,8.6-9.9,14.9-9.9c2.1,0,4.1,0.3,6,1.3C81.2,20.1,85.2,29.5,81.8,37.6z"/>
<path class="st0" d="M75.6,35c-0.2,0.6,0,1.3,0.6,1.5l3,1.3c0.1,0.1,0.3,0.1,0.5,0.1c0.5,0,0.9-0.2,1-0.7c0.2-0.6,0-1.3-0.6-1.5
	l-3-1.3C76.6,34.2,75.9,34.4,75.6,35z"/>
<path class="st0" d="M57.3,28.6c0.5,0,0.9-0.2,1-0.7c0.2-0.6,0-1.3-0.6-1.5l-3-1.3c-0.6-0.2-1.3,0-1.5,0.6c-0.2,0.6,0,1.3,0.6,1.5
	l3,1.3C56.9,28.6,57.2,28.6,57.3,28.6z"/>
<path class="st0" d="M70.9,22.9C71,23,71.2,23,71.3,23c0.5,0,0.9-0.2,1-0.7l1.3-3c0.2-0.6,0-1.3-0.6-1.5c-0.6-0.2-1.3,0-1.5,0.6
	l-1.3,3C69.9,22,70.3,22.7,70.9,22.9z"/>
<path class="st0" d="M63.8,40.2c-0.6-0.2-1.3,0-1.5,0.6l-1.3,3c-0.2,0.6,0,1.3,0.6,1.5c0.1,0.1,0.3,0.1,0.5,0.1c0.5,0,0.9-0.2,1-0.7
	l1.3-3C64.6,41.2,64.4,40.5,63.8,40.2z"/>
<path class="st0" d="M24.7,27.8L24.7,27.8c0.6,0,1.1-0.2,1.6-0.7c0.5-0.5,0.7-0.9,0.7-1.6c0-0.7-0.2-1.1-0.7-1.6
	c-0.5-0.5-0.9-0.7-1.6-0.7c-0.6,0-1.1,0.2-1.6,0.7c-0.5,0.5-0.7,0.9-0.7,1.6l0,0C22.5,26.9,23.4,27.8,24.7,27.8z M24.7,25.5
	C24.8,25.5,24.8,25.6,24.7,25.5L24.7,25.5C24.7,25.6,24.7,25.5,24.7,25.5z"/>
<path class="st0" d="M29.6,40.1c0.2,0.1,0.3,0.1,0.6,0.1c0.1,0,0.3,0,0.5-0.1c0.3-0.1,0.6-0.5,0.7-0.8c0.3-1.4,3.5-13.1,1.8-17.4
	c-1.8-4.7-7.2-7-11.9-5c-4.7,1.8-7,7.2-5,11.9C17.8,33.1,28.3,39.4,29.6,40.1z M22.1,19c0.8-0.3,1.7-0.5,2.5-0.5
	c2.7,0,5.2,1.6,6.4,4.3c1,2.7-0.5,10.4-1.5,14.5c-3.6-2.3-10-6.7-11.2-9.5C16.8,24.4,18.5,20.4,22.1,19z"/>
<path class="st0" d="M56.3,69.2c0.1,0.5,0.6,0.8,1.1,0.8c0.1,0,0.2,0,0.3,0c1-0.3,2.2-0.7,3.2-1.3c0.6-0.2,0.8-0.9,0.6-1.5
	c-0.2-0.6-0.9-0.8-1.5-0.6c-1,0.5-2.1,0.8-3,1.1C56.4,68.1,56,68.6,56.3,69.2z"/>
<path class="st0" d="M52.8,68.6c-1,0.1-2.1,0.1-3.1,0.1c-0.7,0-1.1,0.5-1.3,1c0,0.7,0.5,1.1,1,1.3c0.5,0,0.9,0,1.4,0
	c0.7,0,1.5,0,2.2-0.1c0.6-0.1,1-0.6,1-1.3C54.1,69.1,53.5,68.6,52.8,68.6z"/>
<path class="st0" d="M21.5,49.1c-1.1-0.6-2.3-1-3.3-1.4c-0.6-0.1-1.3,0.2-1.4,0.8c-0.1,0.6,0.2,1.3,0.8,1.4c0.9,0.2,1.8,0.6,2.9,1.1
	c0.1,0.1,0.3,0.1,0.6,0.1c0.5,0,0.8-0.2,1-0.6C22.2,50.2,22.1,49.5,21.5,49.1z"/>
<path class="st0" d="M45.7,67.9c-0.7-0.2-1.3-0.5-1.9-0.8c-0.3-0.1-0.7-0.3-1-0.5c-0.6-0.3-1.3-0.1-1.6,0.5
	c-0.3,0.6-0.1,1.3,0.5,1.6c0.3,0.2,0.7,0.3,1.1,0.6c0.7,0.3,1.4,0.6,2.2,0.8c0.1,0,0.2,0,0.3,0c0.5,0,0.9-0.3,1.1-0.8
	C46.6,68.7,46.2,68.2,45.7,67.9z"/>
<path class="st0" d="M36.8,62.2c-0.5-0.3-1.1-0.3-1.6,0.1c-0.5,0.5-0.3,1.1,0.1,1.6c0.9,0.8,1.8,1.5,2.6,2.2
	c0.2,0.1,0.5,0.2,0.7,0.2c0.3,0,0.7-0.1,0.9-0.5c0.3-0.5,0.3-1.3-0.2-1.6C38.5,63.7,37.7,63,36.8,62.2z"/>
<path class="st0" d="M25.4,51.8c-0.5-0.3-1.3-0.3-1.6,0.2c-0.3,0.5-0.3,1.3,0.2,1.6c0.8,0.6,1.6,1.3,2.5,2.1
	c0.2,0.2,0.5,0.3,0.8,0.3c0.3,0,0.6-0.1,0.8-0.3c0.5-0.5,0.3-1.1-0.1-1.6C27,53,26.2,52.3,25.4,51.8z"/>
<path class="st0" d="M75,23.6c-0.6-0.2-1.3,0.1-1.5,0.7s0.1,1.3,0.7,1.5l1.5,0.6l-7.2,3.2c-0.1,0-0.2-0.1-0.2-0.1
	c-0.6-0.2-1.1-0.2-1.7,0c-0.6,0.2-0.9,0.7-1.1,1.3l0,0c0,0.1-0.1,0.2-0.1,0.5l-10.6,4.6c-0.6,0.2-0.8,0.9-0.6,1.5
	c0.2,0.5,0.6,0.7,1,0.7c0.1,0,0.3,0,0.5-0.1l10.5-4.7c0.1,0.1,0.3,0.2,0.6,0.3c0.2,0.1,0.6,0.1,0.8,0.1c0.9,0,1.7-0.6,2.1-1.4
	c0.1-0.2,0.1-0.5,0.1-0.7l7.4-3.3L76.4,30c-0.1,0.6,0.2,1.3,0.8,1.4c0.6,0.1,1.3-0.2,1.4-0.8l1.1-4.1c0.1-0.5,0-0.9-0.3-1.1
	c-0.2-0.1-0.5-0.2-0.7-0.2L75,23.6z"/>
<rect x="-22.3" y="113.6" class="st1" width="163.8" height="27.5"/>
<text transform="matrix(1 0 0 1 -22.3032 124.0261)" class="st0 st2 st3">Destination Outdoor</text>
</svg>
