<?xml version="1.0" encoding="utf-8"?>
<!-- Generator: Adobe Illustrator 26.0.0, SVG Export Plug-In . SVG Version: 6.00 Build 0)  -->
<svg version="1.1" id="Layer_1" xmlns="http://www.w3.org/2000/svg" xmlns:xlink="http://www.w3.org/1999/xlink" x="0px" y="0px"
	 viewBox="0 0 320 100" style="enable-background:new 0 0 320 100;" xml:space="preserve">
<style type="text/css">
	.st0{fill:#FFFFFF;}
</style>
<g>
	<path class="st0" d="M133,36.2c-0.8-0.4-1.7-0.8-2.4-1c-0.4-0.1-0.9,0.2-1,0.6s0.2,0.9,0.6,1c0.7,0.2,1.3,0.4,2.1,0.9
		c0.1,0.1,0.3,0.1,0.4,0.1c0.3,0,0.6-0.2,0.8-0.4C133.5,37,133.4,36.5,133,36.2z"/>
	<g>
		<path class="st0" d="M189.5,15.4c-7.3-3.1-15.4-0.3-19.8,6l-5.2-13.2c-0.1-0.2-0.3-0.3-0.4-0.4c-0.2-0.1-0.4-0.1-0.7,0l-30.1,12.4
			c-0.2,0.1-0.3,0.3-0.4,0.4c-0.1,0.2-0.1,0.4,0,0.7l22.9,58.5c0.2,0.3,0.4,0.5,0.8,0.5c0.1,0,0.3,0,0.3-0.1L187,67.8
			c0.2-0.1,0.3-0.3,0.4-0.4c0.1-0.2,0.1-0.4,0-0.7l-7.4-19c1.1,0.3,2.2,0.3,3.2,0.3c6.5,0,12.6-3.9,15.3-10.5c1.7-4.2,1.7-8.7,0-13
			C196.7,20.4,193.5,17.2,189.5,15.4z M163.3,9.7l5.3,13.6c-0.3,0.4-0.4,0.9-0.7,1.4c-1.5,3.7-1.6,7.5-0.6,11.1
			c-2.3,1-10,5.1-9.8,14.3c0,0.3,0,0.4,0,0.7l-0.6-0.6c-0.3-0.3-0.8-0.3-1.2,0c-0.3,0.3-0.3,0.9,0,1.2l1.6,1.6
			c-0.8,6.1-4,10.5-5.6,12.2L143.9,45c0.1,0,0.2-0.1,0.3-0.1c0.4-0.1,0.8-0.5,0.7-1c-0.1-0.4-0.5-0.8-1-0.7c-0.2,0-0.3,0.1-0.6,0.2
			l-8.5-21.9L163.3,9.7z M178,47.2l3.3,8.6c-0.2,0.1-0.3,0.2-0.4,0.3c-0.4,0.3-0.5,0.8-0.3,1.2c0.2,0.3,0.4,0.4,0.7,0.4
			c0.2,0,0.3,0,0.4-0.2c0.1-0.1,0.2-0.1,0.2-0.2l3.6,9.2L157,78.3L152.6,67c1.6-1.6,6.9-7.7,6.7-17c-0.2-8.1,6.5-11.7,8.7-12.6
			c1.6,4.1,4.8,7.5,9,9.3C177.3,46.9,177.6,47,178,47.2L178,47.2z M196.8,36.9c-3.1,7.7-11.8,11.5-19.3,8.2
			c-7.5-3.2-11.2-12.1-8-19.8c2.3-5.8,7.8-9.4,13.7-9.4c1.8,0,3.8,0.3,5.6,1.1C196.3,20.3,200,29.2,196.8,36.9z"/>
		<path class="st0" d="M188.3,18.4c-3.3-1.4-7-1.4-10.3,0c-3.3,1.5-5.9,4.1-7.3,7.5c-2.8,7,0.5,15.1,7.3,18c1.7,0.7,3.4,1,5.1,1
			c1.8,0,3.5-0.3,5.2-1c3.3-1.5,5.9-4.1,7.3-7.5C198.4,29.3,195.2,21.3,188.3,18.4z M194.1,35.7c-1.2,3-3.4,5.3-6.3,6.6
			c-2.9,1.2-6.1,1.3-9,0c-6-2.6-8.9-9.6-6.4-15.8c1.8-4.6,6.3-7.5,10.9-7.5c1.5,0,3,0.3,4.4,0.9C193.7,22.5,196.6,29.6,194.1,35.7z"
			/>
		<path class="st0" d="M189.6,33.7c-0.2,0.4,0,0.9,0.4,1.1l2.2,0.9c0.1,0.1,0.3,0.1,0.3,0.1c0.3,0,0.7-0.2,0.8-0.5
			c0.2-0.4,0-0.9-0.4-1.1l-2.2-0.9C190.2,33.1,189.7,33.3,189.6,33.7z"/>
		<path class="st0" d="M176.1,28.9c0.3,0,0.7-0.2,0.8-0.5c0.2-0.4,0-0.9-0.4-1.1l-2.2-0.9c-0.4-0.2-0.9,0-1.1,0.4
			c-0.2,0.4,0,0.9,0.4,1.1l2.2,0.9C175.9,28.9,176,28.9,176.1,28.9z"/>
		<path class="st0" d="M186.1,24.6c0.1,0.1,0.3,0.1,0.3,0.1c0.3,0,0.7-0.2,0.8-0.5l0.9-2.2c0.2-0.4,0-0.9-0.4-1.1
			c-0.4-0.2-0.9,0-1.1,0.4l-0.9,2.2C185.4,23.9,185.6,24.5,186.1,24.6z"/>
		<path class="st0" d="M180.9,37.7c-0.4-0.2-0.9,0-1.1,0.4l-0.9,2.2c-0.2,0.4,0,0.9,0.4,1.1c0.1,0.1,0.3,0.1,0.3,0.1
			c0.3,0,0.7-0.2,0.8-0.5l0.9-2.2C181.5,38.3,181.3,37.8,180.9,37.7z"/>
		<path class="st0" d="M152.3,28.3L152.3,28.3c0.4,0,0.8-0.2,1.2-0.5c0.3-0.3,0.5-0.7,0.5-1.2s-0.2-0.9-0.5-1.2
			c-0.3-0.3-0.7-0.5-1.2-0.5c-0.4,0-0.8,0.2-1.2,0.5s-0.5,0.7-0.5,1.2l0,0C150.7,27.6,151.3,28.3,152.3,28.3z M152.3,26.6
			C152.3,26.6,152.3,26.7,152.3,26.6L152.3,26.6C152.3,26.7,152.3,26.6,152.3,26.6z"/>
		<path class="st0" d="M155.8,37.6c0.2,0.1,0.3,0.1,0.4,0.1c0.1,0,0.3,0,0.3-0.1c0.3-0.1,0.4-0.3,0.5-0.6c0.3-1,2.6-9.9,1.3-13.1
			c-1.3-3.5-5.3-5.2-8.7-3.8c-3.4,1.4-5.1,5.4-3.7,8.9C147.2,32.3,154.9,37.1,155.8,37.6z M150.3,21.7c0.6-0.3,1.3-0.3,1.8-0.3
			c2,0,3.8,1.2,4.7,3.3c0.8,2.1-0.3,7.8-1.1,10.9c-2.7-1.7-7.3-5.1-8.2-7.1C146.5,25.7,147.7,22.7,150.3,21.7z"/>
		<path class="st0" d="M175.4,59.4c0.1,0.3,0.4,0.6,0.8,0.6c0.1,0,0.2,0,0.3,0c0.8-0.3,1.6-0.5,2.3-0.9c0.4-0.2,0.6-0.7,0.4-1.1
			c-0.2-0.4-0.7-0.6-1.1-0.4c-0.8,0.3-1.5,0.6-2.2,0.9C175.5,58.6,175.2,59,175.4,59.4z"/>
		<path class="st0" d="M172.9,59c-0.8,0.1-1.5,0.1-2.3,0.1c-0.5,0-0.8,0.3-0.9,0.8c0,0.5,0.3,0.9,0.8,0.9c0.3,0,0.7,0,1,0
			c0.5,0,1.1,0,1.6-0.1c0.4-0.1,0.8-0.4,0.8-0.9C173.8,59.4,173.4,59,172.9,59z"/>
		<path class="st0" d="M167.6,58.5c-0.5-0.2-0.9-0.3-1.4-0.6c-0.3-0.1-0.5-0.3-0.8-0.3c-0.4-0.3-0.9-0.1-1.2,0.3s-0.1,0.9,0.3,1.2
			c0.3,0.2,0.5,0.3,0.8,0.4c0.5,0.3,1,0.4,1.6,0.6c0.1,0,0.2,0,0.3,0c0.3,0,0.7-0.3,0.8-0.6C168.3,59.1,168,58.7,167.6,58.5z"/>
		<path class="st0" d="M161.1,54.2c-0.3-0.3-0.8-0.3-1.2,0.1c-0.3,0.3-0.3,0.9,0.1,1.2c0.7,0.6,1.3,1.1,1.9,1.6
			c0.2,0.1,0.3,0.2,0.5,0.2c0.3,0,0.5-0.1,0.7-0.3c0.3-0.3,0.3-0.9-0.2-1.2C162.4,55.3,161.8,54.8,161.1,54.2z"/>
		<path class="st0" d="M152.8,46.3c-0.3-0.3-0.9-0.3-1.2,0.2c-0.3,0.3-0.3,0.9,0.2,1.2c0.6,0.4,1.2,0.9,1.8,1.5
			c0.2,0.2,0.3,0.3,0.6,0.3c0.3,0,0.4-0.1,0.6-0.3c0.3-0.3,0.3-0.9-0.1-1.2C153.9,47.3,153.3,46.8,152.8,46.3z"/>
		<path class="st0" d="M189.1,25.1c-0.4-0.2-0.9,0.1-1.1,0.5c-0.2,0.4,0.1,0.9,0.5,1.1l1.1,0.4l-5.3,2.4c-0.1,0-0.2-0.1-0.2-0.1
			c-0.4-0.2-0.8-0.2-1.3,0s-0.7,0.5-0.8,0.9l0,0c0,0.1-0.1,0.2-0.1,0.3l-7.8,3.4c-0.4,0.2-0.6,0.7-0.4,1.1c0.2,0.3,0.4,0.5,0.8,0.5
			c0.1,0,0.3,0,0.3-0.1l7.7-3.5c0.1,0.1,0.3,0.2,0.4,0.3c0.2,0.1,0.4,0.1,0.6,0.1c0.7,0,1.3-0.4,1.5-1c0.1-0.2,0.1-0.3,0.1-0.5
			l5.4-2.5l-0.4,1.4c-0.1,0.4,0.2,0.9,0.6,1c0.4,0.1,0.9-0.2,1-0.6l0.8-3.1c0.1-0.3,0-0.7-0.3-0.9c-0.2-0.1-0.3-0.2-0.5-0.2
			L189.1,25.1z"/>
	</g>
	<g>
		<path class="st0" d="M125.9,87.9c0-0.6,0-1.1,0-1.5c0-0.4,0-0.9-0.1-1.3c0.1,0,0.2,0,0.4,0c0.1,0,0.3,0,0.5,0c0.2,0,0.5,0,0.7,0
			c0.3,0,0.6,0,1.1,0c0.6,0,1.1,0.1,1.6,0.2s0.9,0.3,1.2,0.5c0.3,0.3,0.6,0.6,0.8,1c0.2,0.4,0.3,1,0.3,1.6c0,0.6-0.1,1.1-0.3,1.5
			s-0.4,0.9-0.8,1.2c-0.3,0.3-0.7,0.6-1.1,0.7c-0.4,0.2-0.9,0.3-1.3,0.3c-0.5,0-0.9,0-1.3,0c-0.4,0-0.7,0-0.9,0c-0.2,0-0.3,0-0.5,0
			s-0.3,0-0.4,0c0-0.4,0-0.9,0.1-1.3c0-0.4,0-0.9,0-1.5V87.9z M127.4,90v0.6c0,0.2,0,0.4,0,0.5c0,0.2,0,0.3,0,0.3c0.1,0,0.2,0,0.4,0
			c0.1,0,0.3,0,0.5,0c0.8,0,1.4-0.3,1.8-0.8c0.4-0.5,0.7-1.3,0.7-2.4c0-0.4-0.1-0.8-0.2-1.1s-0.3-0.6-0.5-0.9s-0.4-0.4-0.7-0.5
			c-0.3-0.1-0.6-0.2-0.9-0.2c-0.2,0-0.4,0-0.6,0c-0.2,0-0.3,0-0.5,0c0,0,0,0.2,0,0.3c0,0.2,0,0.3,0,0.6v0.6v0.5v1.8V90z"/>
		<path class="st0" d="M134.6,89.7c0,0.3,0,0.5,0.1,0.8s0.1,0.4,0.2,0.6c0.1,0.2,0.2,0.3,0.4,0.4c0.2,0.1,0.4,0.1,0.6,0.1
			c0.5,0,0.9-0.2,1.2-0.5l0.1,0.1l-0.2,0.6c-0.2,0.1-0.4,0.2-0.6,0.3c-0.2,0.1-0.5,0.1-0.9,0.1c-0.3,0-0.6,0-0.9-0.1
			s-0.6-0.2-0.8-0.5c-0.2-0.2-0.4-0.5-0.5-0.8c-0.1-0.3-0.2-0.7-0.2-1.2c0-0.4,0.1-0.8,0.2-1.2c0.1-0.3,0.3-0.6,0.5-0.8
			s0.5-0.4,0.7-0.5c0.3-0.1,0.6-0.2,0.9-0.2c0.7,0,1.2,0.2,1.5,0.6c0.4,0.4,0.5,1,0.5,1.7v0.2c0,0.1,0,0.1,0,0.1H134.6z M136.2,89.2
			c0-0.5-0.1-0.9-0.2-1.2s-0.3-0.5-0.6-0.5c-0.1,0-0.3,0.1-0.4,0.2c-0.1,0.1-0.2,0.2-0.2,0.4c-0.1,0.2-0.1,0.3-0.1,0.5
			c0,0.2,0,0.4-0.1,0.6H136.2z"/>
		<path class="st0" d="M138.7,91.2c0.1,0.1,0.1,0.2,0.2,0.3c0.1,0.1,0.2,0.1,0.3,0.2c0.1,0,0.3,0.1,0.5,0.1c0.2,0,0.4-0.1,0.5-0.2
			c0.1-0.1,0.2-0.3,0.2-0.4c0-0.2-0.1-0.3-0.2-0.4c-0.1-0.1-0.3-0.2-0.4-0.3c-0.2-0.1-0.4-0.2-0.6-0.2c-0.2-0.1-0.4-0.2-0.6-0.3
			c-0.2-0.1-0.3-0.3-0.4-0.5c-0.1-0.2-0.2-0.4-0.2-0.7c0-0.3,0.1-0.5,0.2-0.7c0.1-0.2,0.2-0.4,0.4-0.5s0.4-0.2,0.6-0.3
			c0.2-0.1,0.4-0.1,0.6-0.1c0.3,0,0.5,0,0.7,0.1s0.4,0.2,0.7,0.4c-0.1,0.1-0.1,0.3-0.1,0.4c0,0.2-0.1,0.3-0.1,0.5h-0.3
			c0-0.1-0.1-0.2-0.1-0.3s-0.1-0.2-0.2-0.3c-0.1-0.1-0.2-0.2-0.3-0.2s-0.3-0.1-0.4-0.1c-0.2,0-0.4,0.1-0.5,0.2s-0.2,0.3-0.2,0.4
			c0,0.2,0.1,0.3,0.2,0.4c0.1,0.1,0.3,0.2,0.4,0.3s0.4,0.2,0.6,0.2c0.2,0.1,0.4,0.2,0.6,0.3s0.3,0.3,0.4,0.5
			c0.1,0.2,0.2,0.4,0.2,0.7c0,0.3-0.1,0.6-0.2,0.8c-0.1,0.2-0.3,0.4-0.4,0.5c-0.2,0.1-0.4,0.2-0.6,0.3s-0.5,0.1-0.7,0.1
			c-0.3,0-0.6,0-0.8-0.1s-0.4-0.2-0.6-0.3c0.1-0.3,0.1-0.7,0.2-1h0.3C138.6,91,138.6,91.1,138.7,91.2z"/>
		<path class="st0" d="M144.9,87.5c0,0.1,0,0.2,0,0.3l-0.9,0c0,0.2,0,0.3,0,0.5s0,0.4,0,0.6c0,0.2,0,0.4,0,0.6c0,0.2,0,0.4,0,0.5
			c0,0.4,0,0.6,0,0.9s0,0.4,0.1,0.5c0,0.1,0.1,0.2,0.2,0.2c0.1,0,0.2,0.1,0.3,0.1c0.1,0,0.2,0,0.3,0c0.1,0,0.1,0,0.2-0.1V92
			c-0.1,0.1-0.3,0.1-0.5,0.2c-0.2,0-0.4,0.1-0.6,0.1c-0.8,0-1.3-0.5-1.3-1.6c0-0.2,0-0.4,0-0.7c0-0.3,0-0.5,0-0.8c0-0.3,0-0.5,0-0.8
			c0-0.3,0-0.5,0-0.7l-0.7,0c0-0.1,0-0.2,0-0.3c0-0.1,0-0.2,0-0.3l0.7,0c0-0.2,0-0.4,0-0.6c0-0.2,0-0.4,0-0.7
			c0.2-0.1,0.5-0.2,0.7-0.3c0.2-0.1,0.5-0.2,0.7-0.3l0.1,0.1c0,0.1,0,0.2,0,0.4c0,0.1,0,0.3,0,0.5c0,0.2,0,0.3,0,0.5
			c0,0.2,0,0.3,0,0.5l0.9,0C144.9,87.3,144.9,87.4,144.9,87.5z"/>
		<path class="st0" d="M145.7,85.2c0-0.2,0.1-0.4,0.2-0.6c0.2-0.2,0.3-0.2,0.6-0.2c0.2,0,0.4,0.1,0.6,0.2c0.2,0.2,0.2,0.3,0.2,0.6
			s-0.1,0.4-0.2,0.6c-0.2,0.2-0.3,0.2-0.6,0.2c-0.2,0-0.4-0.1-0.6-0.2C145.7,85.6,145.7,85.4,145.7,85.2z M145.8,89.4
			c0-0.4,0-0.8,0-1.2c0-0.4,0-0.7-0.1-1.1c0.1,0,0.2,0,0.3,0c0.1,0,0.3,0,0.4,0c0.3,0,0.6,0,0.8-0.1c0,0.4-0.1,0.7-0.1,1.1
			s0,0.8,0,1.2v0.4c0,0.4,0,0.8,0,1.2s0,0.7,0.1,1.1c-0.1,0-0.2,0-0.3,0c-0.1,0-0.3,0-0.4,0c-0.2,0-0.3,0-0.4,0s-0.2,0-0.3,0
			c0-0.3,0.1-0.7,0.1-1.1c0-0.4,0-0.8,0-1.2V89.4z"/>
		<path class="st0" d="M149.8,87.9c0.2-0.3,0.4-0.5,0.7-0.7c0.2-0.2,0.5-0.2,0.9-0.2c0.5,0,0.9,0.1,1.2,0.4c0.3,0.3,0.4,0.8,0.4,1.4
			c0,0.3,0,0.7,0,0.9s0,0.5,0,0.8c0,0.2,0,0.5,0,0.7s0,0.5,0,0.7c-0.1,0-0.2,0-0.3,0s-0.3,0-0.4,0c-0.1,0-0.3,0-0.4,0s-0.2,0-0.3,0
			c0-0.4,0.1-0.8,0.1-1.3s0-1,0-1.7c0-0.4-0.1-0.8-0.2-1s-0.3-0.3-0.6-0.3c-0.3,0-0.5,0.1-0.7,0.4c-0.1,0.3-0.2,0.6-0.2,1.1v0.4
			c0,0.4,0,0.8,0,1.2s0,0.7,0.1,1.1c-0.1,0-0.2,0-0.3,0c-0.1,0-0.3,0-0.4,0c-0.2,0-0.3,0-0.4,0c-0.1,0-0.2,0-0.3,0
			c0-0.3,0.1-0.7,0.1-1.1c0-0.4,0-0.8,0-1.2v-0.4c0-0.4,0-0.8,0-1.2c0-0.4,0-0.7-0.1-1.1c0.1,0,0.2,0,0.4,0c0.1,0,0.2,0,0.4,0
			c0.1,0,0.2,0,0.4,0c0.1,0,0.2,0,0.4,0L149.8,87.9L149.8,87.9z"/>
		<path class="st0" d="M154,87.8c0.3-0.2,0.6-0.4,0.9-0.5c0.3-0.1,0.6-0.2,1-0.2c0.3,0,0.5,0,0.7,0.1c0.2,0.1,0.4,0.2,0.6,0.3
			c0.2,0.1,0.3,0.3,0.4,0.5c0.1,0.2,0.1,0.5,0.1,0.8c0,0.4,0,0.8,0,1.2c0,0.4,0,0.7,0,1.1c0,0.2,0,0.3,0,0.4s0.1,0.2,0.1,0.2
			c0,0,0.1,0.1,0.2,0.1c0.1,0,0.2,0,0.3,0V92c-0.2,0.1-0.4,0.1-0.5,0.2s-0.3,0.1-0.4,0.1c-0.2,0-0.4-0.1-0.6-0.2
			c-0.2-0.1-0.3-0.3-0.4-0.5c-0.2,0.2-0.3,0.4-0.5,0.5c-0.2,0.1-0.5,0.2-0.8,0.2c-0.3,0-0.5,0-0.7-0.1c-0.2-0.1-0.3-0.2-0.4-0.3
			s-0.2-0.3-0.3-0.4c-0.1-0.2-0.1-0.3-0.1-0.5c0-0.2,0-0.4,0.1-0.6c0.1-0.2,0.2-0.3,0.3-0.4c0.1-0.1,0.3-0.2,0.5-0.3
			s0.4-0.1,0.6-0.2c0.3-0.1,0.5-0.1,0.7-0.2s0.3-0.1,0.4-0.2c0.1-0.1,0.1-0.1,0.2-0.2c0-0.1,0-0.1,0-0.2c0-0.2-0.1-0.5-0.3-0.6
			c-0.2-0.2-0.4-0.3-0.7-0.3c-0.1,0-0.2,0-0.4,0c-0.1,0-0.2,0.1-0.3,0.1c-0.1,0.1-0.2,0.1-0.3,0.2c-0.1,0.1-0.2,0.1-0.2,0.2h-0.1
			L154,87.8z M156.4,90.6c0-0.3,0-0.5,0-0.7c0-0.2,0-0.3,0-0.4c-0.1,0.1-0.3,0.1-0.4,0.2c-0.2,0.1-0.3,0.1-0.4,0.2
			c-0.1,0.1-0.2,0.2-0.3,0.3c-0.1,0.1-0.1,0.3-0.1,0.6c0,0.3,0.1,0.4,0.2,0.6s0.2,0.2,0.4,0.2c0.2,0,0.4-0.1,0.5-0.3
			C156.3,91.1,156.4,90.9,156.4,90.6z"/>
		<path class="st0" d="M161.6,87.5c0,0.1,0,0.2,0,0.3l-0.9,0c0,0.2,0,0.3,0,0.5s0,0.4,0,0.6c0,0.2,0,0.4,0,0.6c0,0.2,0,0.4,0,0.5
			c0,0.4,0,0.6,0,0.9s0,0.4,0.1,0.5c0,0.1,0.1,0.2,0.2,0.2c0.1,0,0.2,0.1,0.3,0.1c0.1,0,0.2,0,0.3,0c0.1,0,0.1,0,0.2-0.1V92
			c-0.1,0.1-0.3,0.1-0.5,0.2c-0.2,0-0.4,0.1-0.6,0.1c-0.8,0-1.3-0.5-1.3-1.6c0-0.2,0-0.4,0-0.7c0-0.3,0-0.5,0-0.8c0-0.3,0-0.5,0-0.8
			c0-0.3,0-0.5,0-0.7l-0.7,0c0-0.1,0-0.2,0-0.3c0-0.1,0-0.2,0-0.3l0.7,0c0-0.2,0-0.4,0-0.6c0-0.2,0-0.4,0-0.7
			c0.2-0.1,0.5-0.2,0.7-0.3c0.2-0.1,0.5-0.2,0.7-0.3l0.1,0.1c0,0.1,0,0.2,0,0.4c0,0.1,0,0.3,0,0.5c0,0.2,0,0.3,0,0.5
			c0,0.2,0,0.3,0,0.5l0.9,0C161.6,87.3,161.6,87.4,161.6,87.5z"/>
		<path class="st0" d="M162.4,85.2c0-0.2,0.1-0.4,0.2-0.6c0.2-0.2,0.3-0.2,0.6-0.2c0.2,0,0.4,0.1,0.6,0.2c0.2,0.2,0.2,0.3,0.2,0.6
			s-0.1,0.4-0.2,0.6c-0.2,0.2-0.3,0.2-0.6,0.2c-0.2,0-0.4-0.1-0.6-0.2C162.4,85.6,162.4,85.4,162.4,85.2z M162.5,89.4
			c0-0.4,0-0.8,0-1.2c0-0.4,0-0.7-0.1-1.1c0.1,0,0.2,0,0.3,0c0.1,0,0.3,0,0.4,0c0.3,0,0.6,0,0.8-0.1c0,0.4-0.1,0.7-0.1,1.1
			s0,0.8,0,1.2v0.4c0,0.4,0,0.8,0,1.2s0,0.7,0.1,1.1c-0.1,0-0.2,0-0.3,0c-0.1,0-0.3,0-0.4,0c-0.2,0-0.3,0-0.4,0s-0.2,0-0.3,0
			c0-0.3,0.1-0.7,0.1-1.1c0-0.4,0-0.8,0-1.2V89.4z"/>
		<path class="st0" d="M164.9,89.8c0-0.5,0.1-0.9,0.2-1.2c0.1-0.3,0.3-0.6,0.5-0.9c0.2-0.2,0.5-0.4,0.8-0.5c0.3-0.1,0.6-0.2,0.9-0.2
			c0.8,0,1.4,0.2,1.8,0.7c0.4,0.5,0.6,1.1,0.6,1.8c0,0.4-0.1,0.8-0.2,1.1s-0.3,0.6-0.5,0.9c-0.2,0.2-0.5,0.4-0.8,0.5s-0.6,0.2-1,0.2
			c-0.3,0-0.6,0-0.9-0.1c-0.3-0.1-0.6-0.2-0.8-0.4s-0.4-0.5-0.6-0.8S164.9,90.2,164.9,89.8z M168.3,89.4c0-0.6-0.1-1.1-0.2-1.4
			c-0.1-0.3-0.4-0.5-0.7-0.5c-0.3,0-0.5,0.2-0.7,0.6c-0.2,0.4-0.3,1-0.3,1.7c0,0.3,0,0.6,0,0.8c0,0.2,0.1,0.5,0.2,0.6
			c0.1,0.2,0.2,0.3,0.3,0.4c0.1,0.1,0.3,0.2,0.5,0.2C168,91.8,168.3,91,168.3,89.4z"/>
		<path class="st0" d="M172.1,87.9c0.2-0.3,0.4-0.5,0.7-0.7c0.2-0.2,0.5-0.2,0.9-0.2c0.5,0,0.9,0.1,1.2,0.4c0.3,0.3,0.4,0.8,0.4,1.4
			c0,0.3,0,0.7,0,0.9c0,0.3,0,0.5,0,0.8c0,0.2,0,0.5,0,0.7c0,0.3,0,0.5,0,0.7c-0.1,0-0.2,0-0.3,0s-0.3,0-0.4,0c-0.1,0-0.3,0-0.4,0
			s-0.2,0-0.3,0c0-0.4,0.1-0.8,0.1-1.3c0-0.5,0-1,0-1.7c0-0.4-0.1-0.8-0.2-1s-0.3-0.3-0.6-0.3c-0.3,0-0.5,0.1-0.7,0.4
			c-0.1,0.3-0.2,0.6-0.2,1.1v0.4c0,0.4,0,0.8,0,1.2s0,0.7,0.1,1.1c-0.1,0-0.2,0-0.3,0c-0.1,0-0.3,0-0.4,0c-0.2,0-0.3,0-0.4,0
			c-0.1,0-0.2,0-0.3,0c0-0.3,0.1-0.7,0.1-1.1c0-0.4,0-0.8,0-1.2v-0.4c0-0.4,0-0.8,0-1.2c0-0.4,0-0.7-0.1-1.1c0.1,0,0.2,0,0.4,0
			c0.1,0,0.2,0,0.4,0c0.1,0,0.2,0,0.4,0c0.1,0,0.2,0,0.4,0L172.1,87.9L172.1,87.9z"/>
		<path class="st0" d="M178.8,88.6c0-0.5,0.1-1,0.3-1.4s0.4-0.8,0.8-1.2c0.3-0.3,0.7-0.6,1.2-0.8c0.5-0.2,1-0.3,1.6-0.3
			c0.5,0,1,0.1,1.5,0.2c0.5,0.2,0.9,0.4,1.2,0.7c0.3,0.3,0.6,0.7,0.8,1.1s0.3,1,0.3,1.6c0,0.5-0.1,1-0.3,1.4
			c-0.2,0.4-0.5,0.8-0.8,1.2s-0.7,0.6-1.2,0.8c-0.5,0.2-1,0.3-1.5,0.3c-0.5,0-1-0.1-1.5-0.2c-0.5-0.1-0.9-0.4-1.2-0.6
			c-0.3-0.3-0.6-0.7-0.8-1.1C178.9,89.8,178.8,89.2,178.8,88.6z M184.8,88.4c0-0.4-0.1-0.8-0.2-1.2c-0.1-0.4-0.3-0.7-0.4-0.9
			s-0.4-0.4-0.7-0.6s-0.6-0.2-0.9-0.2c-0.3,0-0.6,0.1-0.9,0.3c-0.3,0.2-0.5,0.4-0.7,0.7c-0.2,0.3-0.3,0.6-0.4,1s-0.1,0.8-0.1,1.2
			c0,0.5,0.1,1,0.2,1.4c0.1,0.4,0.3,0.7,0.5,0.9c0.2,0.2,0.4,0.4,0.7,0.5c0.3,0.1,0.5,0.2,0.8,0.2c0.3,0,0.6-0.1,0.9-0.2
			c0.3-0.1,0.5-0.3,0.7-0.6c0.2-0.3,0.4-0.6,0.5-1C184.8,89.4,184.8,88.9,184.8,88.4z"/>
		<path class="st0" d="M190.4,91.4c-0.2,0.3-0.4,0.5-0.7,0.7c-0.3,0.1-0.5,0.2-0.9,0.2c-0.5,0-0.9-0.1-1.2-0.4
			c-0.3-0.3-0.4-0.8-0.4-1.4c0-0.3,0-0.7,0-0.9c0-0.3,0-0.5,0-0.8c0-0.2,0-0.5,0-0.7c0-0.3,0-0.5,0-0.8c0.1,0,0.2,0,0.3,0
			c0.1,0,0.3,0,0.4,0c0.1,0,0.3,0,0.4,0c0.1,0,0.2,0,0.3,0c0,0.4-0.1,0.8-0.1,1.3c0,0.5,0,1,0,1.7c0,0.4,0.1,0.8,0.2,1
			c0.1,0.2,0.3,0.3,0.6,0.3c0.3,0,0.5-0.1,0.7-0.4c0.1-0.3,0.2-0.6,0.2-1.1v-0.4c0-0.4,0-0.8,0-1.2s0-0.7-0.1-1.1
			c0.2,0,0.4,0.1,0.8,0.1c0.2,0,0.3,0,0.4,0c0.1,0,0.2,0,0.3,0c0,0.4-0.1,0.7-0.1,1.1s0,0.8,0,1.2v0.4c0,0.4,0,0.8,0,1.2
			s0,0.7,0.1,1.1c-0.1,0-0.2,0-0.4,0c-0.1,0-0.2,0-0.4,0s-0.2,0-0.4,0c-0.1,0-0.2,0-0.4,0L190.4,91.4L190.4,91.4z"/>
		<path class="st0" d="M195.5,87.5c0,0.1,0,0.2,0,0.3l-0.9,0c0,0.2,0,0.3,0,0.5s0,0.4,0,0.6c0,0.2,0,0.4,0,0.6c0,0.2,0,0.4,0,0.5
			c0,0.4,0,0.6,0,0.9s0,0.4,0.1,0.5c0,0.1,0.1,0.2,0.2,0.2c0.1,0,0.2,0.1,0.3,0.1c0.1,0,0.2,0,0.3,0c0.1,0,0.1,0,0.2-0.1V92
			c-0.1,0.1-0.3,0.1-0.5,0.2s-0.4,0.1-0.6,0.1c-0.8,0-1.3-0.5-1.3-1.6c0-0.2,0-0.4,0-0.7c0-0.3,0-0.5,0-0.8c0-0.3,0-0.5,0-0.8
			c0-0.3,0-0.5,0-0.7l-0.7,0c0-0.1,0-0.2,0-0.3c0-0.1,0-0.2,0-0.3l0.7,0c0-0.2,0-0.4,0-0.6c0-0.2,0-0.4,0-0.7
			c0.2-0.1,0.5-0.2,0.7-0.3c0.2-0.1,0.5-0.2,0.7-0.3l0.1,0.1c0,0.1,0,0.2,0,0.4c0,0.1,0,0.3,0,0.5s0,0.3,0,0.5c0,0.2,0,0.3,0,0.5
			l0.9,0C195.5,87.3,195.5,87.4,195.5,87.5z"/>
		<path class="st0" d="M200.7,88.6c0,0.7,0,1.3,0,1.9s0,1.1,0.1,1.7c-0.1,0-0.2,0-0.3,0s-0.3,0-0.4,0c-0.1,0-0.3,0-0.4,0
			c-0.1,0-0.2,0-0.3,0c0,0,0-0.1,0-0.1s0-0.2,0-0.3c0-0.1,0-0.2,0-0.3c0-0.1,0-0.1,0-0.2l0,0c-0.1,0.3-0.3,0.5-0.5,0.7
			c-0.2,0.2-0.5,0.3-0.9,0.3c-0.3,0-0.6-0.1-0.9-0.2c-0.2-0.1-0.4-0.3-0.6-0.6s-0.3-0.5-0.3-0.8c-0.1-0.3-0.1-0.7-0.1-1
			c0-0.4,0-0.7,0.1-1c0.1-0.3,0.2-0.6,0.4-0.8c0.2-0.2,0.4-0.4,0.6-0.5c0.2-0.1,0.5-0.2,0.8-0.2c0.3,0,0.6,0.1,0.8,0.2
			c0.2,0.1,0.4,0.3,0.5,0.5h0c0-0.6,0-1.2,0-1.7c0-0.5,0-1.1-0.1-1.7c0.1,0,0.2,0,0.3,0c0.1,0,0.3,0,0.4,0c0.1,0,0.3,0,0.4,0
			c0.1,0,0.2,0,0.3,0c0,0.6,0,1.1-0.1,1.7s0,1.2,0,1.9V88.6z M197.5,89.8c0,0.3,0,0.6,0.1,0.9s0.1,0.4,0.2,0.6
			c0.1,0.1,0.2,0.3,0.3,0.3s0.2,0.1,0.3,0.1c0.3,0,0.5-0.2,0.7-0.5c0.2-0.3,0.3-0.8,0.3-1.6c0-0.6-0.1-1.1-0.3-1.4s-0.4-0.4-0.6-0.4
			c-0.1,0-0.2,0-0.3,0.1c-0.1,0.1-0.2,0.2-0.3,0.3s-0.2,0.4-0.2,0.6S197.5,89.4,197.5,89.8z"/>
		<path class="st0" d="M201.6,89.8c0-0.5,0.1-0.9,0.2-1.2c0.1-0.3,0.3-0.6,0.5-0.9c0.2-0.2,0.5-0.4,0.8-0.5c0.3-0.1,0.6-0.2,0.9-0.2
			c0.8,0,1.4,0.2,1.8,0.7c0.4,0.5,0.6,1.1,0.6,1.8c0,0.4-0.1,0.8-0.2,1.1s-0.3,0.6-0.5,0.9c-0.2,0.2-0.5,0.4-0.8,0.5s-0.6,0.2-1,0.2
			c-0.3,0-0.6,0-0.9-0.1c-0.3-0.1-0.6-0.2-0.8-0.4c-0.2-0.2-0.4-0.5-0.6-0.8S201.6,90.2,201.6,89.8z M205.1,89.4
			c0-0.6-0.1-1.1-0.2-1.4c-0.1-0.3-0.4-0.5-0.7-0.5c-0.3,0-0.5,0.2-0.7,0.6c-0.2,0.4-0.3,1-0.3,1.7c0,0.3,0,0.6,0,0.8
			s0.1,0.5,0.2,0.6c0.1,0.2,0.2,0.3,0.3,0.4c0.1,0.1,0.3,0.2,0.5,0.2C204.7,91.8,205.1,91,205.1,89.4z"/>
		<path class="st0" d="M207.2,89.8c0-0.5,0.1-0.9,0.2-1.2c0.1-0.3,0.3-0.6,0.5-0.9c0.2-0.2,0.5-0.4,0.8-0.5c0.3-0.1,0.6-0.2,0.9-0.2
			c0.8,0,1.4,0.2,1.8,0.7c0.4,0.5,0.6,1.1,0.6,1.8c0,0.4-0.1,0.8-0.2,1.1s-0.3,0.6-0.5,0.9c-0.2,0.2-0.5,0.4-0.8,0.5s-0.6,0.2-1,0.2
			c-0.3,0-0.6,0-0.9-0.1c-0.3-0.1-0.6-0.2-0.8-0.4c-0.2-0.2-0.4-0.5-0.6-0.8S207.2,90.2,207.2,89.8z M210.6,89.4
			c0-0.6-0.1-1.1-0.2-1.4c-0.1-0.3-0.4-0.5-0.7-0.5c-0.3,0-0.5,0.2-0.7,0.6c-0.2,0.4-0.3,1-0.3,1.7c0,0.3,0,0.6,0,0.8
			s0.1,0.5,0.2,0.6c0.1,0.2,0.2,0.3,0.3,0.4c0.1,0.1,0.3,0.2,0.5,0.2C210.3,91.8,210.6,91,210.6,89.4z"/>
		<path class="st0" d="M214.4,88.4c0.2-0.5,0.4-0.8,0.6-1s0.5-0.3,0.9-0.3c0,0,0.1,0,0.1,0c0,0,0,0,0.1,0c0,0.1,0,0.2,0,0.3
			c0,0.1,0,0.3,0,0.4v0.3c0,0.1,0,0.1,0,0.2s0,0.1,0,0.2l-0.1,0.1c-0.1,0-0.1-0.1-0.2-0.1c-0.1,0-0.2,0-0.3,0
			c-0.3,0-0.5,0.1-0.7,0.3s-0.3,0.4-0.3,0.7v0.4c0,0.4,0,0.8,0,1.2s0,0.7,0.1,1.1c-0.1,0-0.2,0-0.3,0s-0.3,0-0.4,0s-0.3,0-0.4,0
			s-0.2,0-0.3,0c0-0.3,0.1-0.7,0.1-1.1c0-0.4,0-0.8,0-1.2v-0.4c0-0.4,0-0.8,0-1.2c0-0.4,0-0.7-0.1-1.1c0.1,0,0.2,0,0.3,0
			c0.1,0,0.2,0,0.3,0c0.1,0,0.2,0,0.3,0c0.1,0,0.2,0,0.3,0L214.4,88.4L214.4,88.4z"/>
	</g>
</g>
</svg>
